<svg width="98" height="39" viewBox="0 0 98 39" fill="none" xmlns="http://www.w3.org/2000/svg">
<rect width="98" height="39" rx="1" fill="white"/>
<g clip-path="url(#clip0)">
<path d="M27.7421 10.2067C28.4579 9.51334 29.0842 8.90668 29.8 8.21334C30.0684 7.95334 30.3368 7.69334 30.6947 7.34668C30.7842 7.26001 30.8737 7.26001 30.9631 7.34668C31.4105 7.78001 31.8579 8.21334 32.3052 8.64668C32.3947 8.64668 32.3947 8.82001 32.3947 8.82001C32.3947 8.82001 32.3947 8.82001 32.3947 8.90668C31.5 9.94668 30.6947 10.9867 29.8 12.1133C29.8 12.1133 29.8 12.1133 29.8 12.2C29.8 12.2867 29.7105 12.3733 29.621 12.46C28.9052 13.3267 28.2789 14.1067 27.5631 14.9733C26.9368 15.7533 26.3105 16.5333 25.6842 17.3133C24.7895 18.44 23.8947 19.5667 23 20.6067C22.0158 21.82 21.121 22.9467 20.1368 24.16C19.9579 24.42 19.6895 24.68 19.5105 24.94C19.5105 25.0267 19.421 25.0267 19.3316 25.0267C19.2421 25.0267 19.1526 24.94 19.1526 24.8533C17.0052 22.7733 14.8579 20.6067 12.8 18.5267C12.621 18.3533 12.621 18.3533 12.8 18.0933C13.2474 17.5733 13.7842 16.9667 14.2316 16.4467C14.4105 16.1867 14.5 16.1867 14.7684 16.36C16.1105 17.14 17.4526 18.0067 18.7947 18.7867C18.9737 18.8733 18.9737 18.8733 19.1526 18.7867C20.2263 17.66 21.3895 16.62 22.4631 15.58C23.3579 14.7133 24.2526 13.8467 25.1473 12.98C25.3263 12.8067 25.5052 12.6333 25.6842 12.46C26.3105 11.8533 26.9368 11.16 27.5631 10.5533C27.3842 10.4667 27.5631 10.2933 27.7421 10.2067Z" fill="#009D56"/>
<path d="M19.1526 33C17.9 33 16.7368 32.8267 15.4842 32.48C11.6368 31.3533 8.86316 28.9267 7.16316 25.3733C6.53684 23.9867 6.08947 22.4267 6 20.8667C6 20.6067 6 20.26 6 20C6.08947 19.9133 6.17895 19.9133 6.17895 19.9133C7.16316 19.9133 8.14737 19.9133 9.13158 19.9133C9.22105 19.9133 9.22105 19.9133 9.22105 19.9133C9.31053 20 9.31053 20.0867 9.31053 20.1733C9.4 24.94 12.9789 28.9267 17.7211 29.5333C18.0789 29.62 18.4368 29.62 18.7947 29.62C18.8842 29.62 18.9737 29.62 19.0632 29.7067C19.0632 29.7933 19.0632 29.88 19.0632 29.9667C19.0632 30.8333 19.0632 31.7867 19.0632 32.6533C19.2421 32.8267 19.1526 32.9133 19.1526 33Z" fill="#3D81F6"/>
<path d="M9.31053 20H6C6 18.8733 6.08947 17.7467 6.44737 16.62C7.34211 13.0667 9.84737 10.12 13.0684 8.47334C14.6789 7.60667 16.3789 7.17334 18.2579 7.08667C18.5263 7.08667 18.7947 7.08667 19.1526 7.08667C19.2421 7.17334 19.2421 7.26 19.2421 7.26C19.2421 8.21334 19.2421 9.16667 19.2421 10.12C19.2421 10.2067 19.2421 10.2067 19.2421 10.2933C19.1526 10.38 19.0632 10.4667 18.9737 10.38C17.4526 10.38 15.9316 10.8133 14.5895 11.5067C13.6947 12.0267 12.8895 12.6333 12.1737 13.3267C11.1 14.3667 10.3842 15.6667 9.93684 17.14C9.66842 17.8333 9.57895 18.6133 9.48947 19.3933C9.48947 19.5667 9.48947 19.74 9.48947 19.9133C9.4 19.9133 9.4 20 9.31053 20Z" fill="#DE4431"/>
<path d="M32.2158 20C32.2158 20.6933 32.2158 21.3867 32.0368 22.08C31.7684 23.9 31.0526 25.6333 29.9789 27.1933C28.8158 28.9267 27.2947 30.3133 25.5053 31.3533C25.4158 31.3533 25.4158 31.3533 25.3263 31.44C25.0579 31.2667 24.8789 31.0933 24.7 30.92C24.1632 30.3133 23.5368 29.7933 23 29.1867C22.9105 29.1867 22.821 29.1 22.821 29.0133C22.821 28.9267 22.9105 28.84 23 28.84C24.1632 28.32 25.1474 27.6267 26.0421 26.6733C27.2053 25.46 28.0105 23.9867 28.3684 22.34C28.5474 21.6467 28.6368 20.9533 28.6368 20.26C28.6368 20.1733 28.6368 20.0867 28.7263 20C28.8158 20 28.9053 20 28.9947 20C29.8895 20 30.7842 20 31.7684 20C32.0368 19.9133 32.1263 19.9133 32.2158 20Z" fill="#007E44"/>
<path d="M19.1526 10.2933C19.1526 9.16667 19.1526 8.12667 19.1526 7C20.4052 7 21.6579 7.17333 22.821 7.52C24.6105 8.04 26.3105 8.99333 27.7421 10.2067C26.9368 10.9867 26.221 11.68 25.4157 12.46C25.4157 12.46 25.3263 12.46 25.3263 12.5467C25.2368 12.5467 25.1473 12.46 25.0579 12.46C23.8947 11.5933 22.6421 10.9867 21.2105 10.64C20.5842 10.4667 19.9579 10.38 19.2421 10.38C19.2421 10.38 19.1526 10.38 19.1526 10.2933Z" fill="#F5B400"/>
<path d="M32.2159 20H28.9053C28.8159 19.9133 28.8159 19.8267 28.8159 19.74C28.8159 18.18 28.3685 16.62 27.6527 15.32C27.5632 15.1467 27.4738 15.06 27.3843 14.8867C28.1001 14.02 28.8159 13.1533 29.5316 12.2867L29.6211 12.2C30.7843 13.6733 31.5895 15.4067 31.9474 17.2267C32.1264 18.0933 32.2159 19.0467 32.2159 20Z" fill="#C49000"/>
<path d="M23 28.9267C23 29.0134 23.0894 29.0134 23.0894 29.1C23.7157 29.7067 24.3421 30.4 25.0579 31.0067C25.2368 31.0934 25.3263 31.2667 25.5052 31.44C24.6105 31.96 23.6263 32.3934 22.6421 32.6534C21.7473 32.9134 20.8526 33 19.8684 33.0867C19.6 33.0867 19.421 33.0867 19.1526 33.0867C19.1526 31.96 19.1526 30.92 19.1526 29.7934C19.2421 29.7067 19.2421 29.7067 19.3315 29.7067C20.5842 29.7067 21.7473 29.4467 22.9105 28.9267C22.9105 28.9267 22.9105 28.84 23 28.9267C23 28.84 23 28.84 23 28.9267Z" fill="#009D56"/>
<path opacity="0.31" d="M23.0001 28.9267C22.3738 28.32 21.8369 27.7133 21.2106 27.1933C20.4948 26.5 19.779 25.8067 19.0632 25.1133C19.3317 24.7667 19.6001 24.42 19.958 24.0733C21.8369 21.7333 23.8053 19.3933 25.6843 16.9667C26.2211 16.2733 26.758 15.58 27.3843 14.8867C27.6527 15.2333 27.8317 15.58 28.0106 16.0133C28.458 16.9667 28.7264 18.0067 28.8159 19.1333C28.8159 19.48 28.8159 19.74 28.9053 20.0867C28.9053 21.1267 28.7264 22.1667 28.458 23.12C27.5632 25.6333 25.5948 27.8 23.0001 28.9267C23.0001 28.9267 23.0001 28.84 23.0001 28.9267Z" fill="black"/>
<path d="M36.958 10.8134V11.8534H36.8685C36.7791 11.5934 36.6001 11.2467 36.4212 11.0734C36.2422 10.9 36.0633 10.8134 35.7948 10.8134C35.6159 10.8134 35.437 10.8134 35.258 10.9C35.0791 10.9867 34.9896 11.16 34.9001 11.2467C34.7212 11.68 34.6317 12.1134 34.6317 12.5467C34.6317 12.72 34.6317 12.98 34.7212 13.1534C34.8106 13.3267 34.9001 13.5 34.9896 13.6734C35.1685 13.9334 35.437 14.1067 35.7948 14.1067C35.8843 14.1067 36.0633 14.1067 36.1527 14.02C36.4212 13.9334 36.6001 13.6734 36.6001 13.3267C36.6001 13.24 36.6001 13.0667 36.5106 12.98C36.4212 12.8934 36.2422 12.8934 36.0633 12.8934H37.5843V12.98C37.4948 12.98 37.4054 12.98 37.3159 13.0667C37.2264 13.0667 37.2264 13.1534 37.2264 13.24C37.2264 13.4134 37.137 13.5 37.137 13.6734C37.137 13.76 37.137 13.8467 37.137 13.9334V14.02C37.137 14.02 37.0475 14.02 36.958 14.02C36.8685 14.02 36.8685 14.02 36.7791 14.1067C36.6001 14.1934 36.4212 14.28 36.3317 14.3667C36.1527 14.4534 35.9738 14.4534 35.7054 14.4534C35.437 14.4534 35.1685 14.3667 34.9001 14.28C34.7212 14.1934 34.4527 14.02 34.3633 13.8467C34.2738 13.6734 34.1843 13.5 34.0948 13.3267C34.0054 13.1534 34.0054 12.8934 34.0054 12.72C34.0054 12.46 34.0948 12.2 34.1843 11.94C34.2738 11.5067 34.4527 11.3334 34.6317 11.16C34.8106 10.9867 34.9896 10.9 35.1685 10.9C35.3475 10.8134 35.6159 10.8134 35.7948 10.8134C35.8843 10.8134 36.0633 10.8134 36.1527 10.8134C36.2422 10.8134 36.4212 10.9 36.5106 10.9L36.6896 10.9867H36.7791C36.8685 10.9867 36.8685 10.9 36.958 10.8134Z" fill="#6F6F71"/>
<path d="M37.6738 13.1533C37.6738 12.8933 37.7633 12.6333 37.9422 12.46C38.3896 12.0267 39.1054 11.94 39.5528 12.3733L39.6422 12.46C40.0001 12.8067 40.0001 13.4133 39.6422 13.8467C39.1949 14.28 38.4791 14.3667 37.9422 13.9333C37.9422 13.9333 37.9422 13.9333 37.8528 13.8467C37.7633 13.76 37.6738 13.6733 37.6738 13.5C37.6738 13.3267 37.6738 13.24 37.6738 13.1533ZM38.1212 13.0667C38.1212 13.3267 38.2107 13.5867 38.3001 13.76C38.3896 13.9333 38.5686 14.1067 38.837 14.1067C38.9265 14.1067 39.0159 14.1067 39.1054 14.02C39.1949 13.9333 39.2843 13.9333 39.2843 13.8467C39.3738 13.76 39.3738 13.5867 39.4633 13.5C39.4633 13.4133 39.5528 13.24 39.5528 13.0667C39.5528 12.8933 39.5528 12.8067 39.4633 12.6333C39.4633 12.5467 39.3738 12.3733 39.2843 12.2867C39.1949 12.1133 39.0159 12.0267 38.837 12.0267C38.658 12.0267 38.4791 12.1133 38.3896 12.2867C38.2107 12.6333 38.1212 12.8067 38.1212 13.0667Z" fill="#6F6F71"/>
<path d="M40.2686 13.1533C40.2686 12.8933 40.358 12.6333 40.537 12.46C40.9843 12.0267 41.7001 11.94 42.1475 12.3733L42.237 12.46C42.5949 12.8067 42.5949 13.4133 42.237 13.8467C41.7896 14.28 41.0738 14.3667 40.537 13.9333C40.537 13.9333 40.537 13.9333 40.4475 13.8467C40.358 13.76 40.2686 13.6733 40.2686 13.5C40.2686 13.3267 40.2686 13.24 40.2686 13.1533ZM40.7159 13.0667C40.7159 13.3267 40.8054 13.5867 40.8949 13.76C40.9843 13.9333 41.1633 14.1067 41.4317 14.1067C41.5212 14.1067 41.6107 14.1067 41.7001 14.02C41.7896 14.02 41.7896 13.9333 41.8791 13.8467C41.9686 13.76 41.9686 13.5867 42.058 13.5C42.058 13.4133 42.1475 13.24 42.1475 13.0667C42.1475 12.8933 42.1475 12.8067 42.058 12.6333C42.058 12.5467 41.9686 12.3733 41.8791 12.2867C41.7896 12.2 41.6107 12.1133 41.3422 12.1133C41.1633 12.1133 40.9843 12.2 40.8949 12.3733C40.8054 12.6333 40.7159 12.8067 40.7159 13.0667Z" fill="#6F6F71"/>
<path d="M43.4 14.3667C43.3105 14.3667 43.3105 14.28 43.3105 14.28H43.2211C43.1316 14.28 43.1316 14.28 43.0421 14.3667C43.0421 14.4533 42.9526 14.4533 42.9526 14.54C42.9526 14.7133 43.0421 14.8 43.1316 14.8867C43.3105 14.9733 43.4895 15.06 43.6684 14.9733C43.8474 14.9733 44.0263 14.9733 44.2053 14.8C44.2947 14.7133 44.3842 14.6267 44.3842 14.4533C44.3842 14.3667 44.2947 14.28 44.2947 14.1933C44.2053 14.1067 44.0263 14.1067 43.9368 14.1067H43.5789C43.4 14.1067 43.3105 14.1067 43.2211 14.02C43.1316 13.9333 43.0421 13.8467 43.0421 13.76C43.0421 13.6733 43.1316 13.5 43.2211 13.5C43.3105 13.4133 43.4 13.4133 43.4895 13.4133C43.4 13.3267 43.2211 13.24 43.1316 13.1533C43.0421 13.0667 43.0421 12.8933 43.0421 12.8067C43.0421 12.6333 43.1316 12.46 43.2211 12.3733C43.4 12.2 43.5789 12.1133 43.7579 12.1133C43.9368 12.1133 44.1158 12.2 44.2053 12.2867C44.2947 12.2 44.2947 12.2 44.3842 12.2C44.4737 12.2 44.4737 12.2 44.5632 12.2C44.6526 12.2 44.7421 12.2 44.7421 12.2867C44.8316 12.2867 44.8316 12.3733 44.8316 12.46V12.5467H44.7421C44.6526 12.5467 44.6526 12.5467 44.5632 12.46L44.4737 12.2H44.3842C44.2947 12.2 44.2053 12.2 44.2053 12.2867C44.2947 12.46 44.3842 12.6333 44.3842 12.8067C44.3842 12.98 44.2947 13.24 44.1158 13.3267C44.0263 13.4133 43.9368 13.4133 43.8474 13.4133C43.8474 13.4133 43.6684 13.4133 43.5789 13.4133C43.3105 13.4133 43.2211 13.5 43.2211 13.5867C43.2211 13.6733 43.3105 13.76 43.4895 13.76H43.8474C43.9368 13.76 44.1158 13.76 44.2053 13.76C44.2947 13.76 44.3842 13.8467 44.4737 13.8467C44.6526 13.9333 44.6526 14.1067 44.6526 14.28C44.6526 14.4533 44.5632 14.6267 44.3842 14.8C44.1158 14.9733 43.9368 14.9733 43.6684 14.9733C43.4 14.9733 43.1316 14.8867 42.9526 14.8C42.8632 14.7133 42.7737 14.6267 42.7737 14.4533C42.7737 14.3667 42.7737 14.28 42.8632 14.1933C42.9526 14.1067 43.0421 14.1067 43.1316 14.1067C43.2211 14.1067 43.2211 14.1067 43.3105 14.1933C43.3105 14.1933 43.4 14.28 43.4 14.3667ZM43.2211 12.72C43.2211 12.8933 43.2211 12.98 43.3105 13.1533C43.4 13.24 43.4895 13.3267 43.5789 13.3267C43.6684 13.3267 43.7579 13.24 43.8474 13.1533C43.9368 12.98 43.9368 12.8933 43.9368 12.72C43.9368 12.5467 43.9368 12.3733 43.8474 12.2867C43.7579 12.2 43.6684 12.1133 43.5789 12.1133C43.4895 12.1133 43.3105 12.2 43.3105 12.2867C43.3105 12.3733 43.2211 12.46 43.2211 12.46C43.3105 12.5467 43.2211 12.6333 43.2211 12.72Z" fill="#6F6F71"/>
<path d="M44.8318 10.8134L45.5476 10.7267V13.4134V13.5867C45.5476 13.6734 45.5476 13.76 45.5476 13.8467C45.5476 13.9334 45.5476 13.9334 45.637 13.9334C45.7265 14.02 45.816 14.02 45.9055 14.02V14.1067H44.8318C44.9213 14.1067 45.0107 14.1067 45.0107 14.02C45.1002 14.02 45.1002 13.9334 45.1002 13.9334C45.1002 13.8467 45.1002 13.8467 45.1002 13.76C45.1002 13.6734 45.1002 13.5867 45.1002 13.4134V11.5067C45.1002 11.42 45.1002 11.2467 45.1002 11.16C45.1002 11.0734 45.1002 11.0734 45.0107 10.9867L44.9213 10.9C44.9213 10.9 44.9213 10.9 44.8318 10.8134Z" fill="#6F6F71"/>
<path d="M46.5316 12.8067C46.5316 12.8933 46.5316 12.98 46.5316 12.98C46.5316 13.1533 46.5316 13.24 46.6211 13.4133C46.6211 13.5 46.7105 13.6733 46.8 13.76C46.8895 13.9333 47.1579 14.02 47.3369 14.02C47.4263 14.02 47.5158 14.02 47.6053 13.9333C47.6948 13.9333 47.7842 13.8467 47.7842 13.8467C47.8737 13.76 47.8737 13.6733 47.9632 13.5867H48.0527C48.0527 13.76 47.9632 13.9333 47.7842 14.02C47.6053 14.1067 47.4263 14.1933 47.2474 14.1933C47.0684 14.1933 46.8895 14.1933 46.7105 14.1067C46.5316 14.02 46.3527 13.9333 46.2632 13.76C46.0842 13.5867 46.0842 13.3267 46.0842 13.0667C46.0842 12.72 46.1737 12.46 46.4421 12.2C46.6211 12.0267 46.8895 11.94 47.0684 11.94C47.1579 11.94 47.3369 11.94 47.4263 12.0267C47.6948 12.1133 47.8737 12.46 47.8737 12.72L46.5316 12.8067ZM47.6053 12.72C47.6053 12.6333 47.6053 12.46 47.5158 12.3733C47.5158 12.2867 47.4263 12.2 47.3369 12.2C47.2474 12.1133 47.1579 12.1133 47.0684 12.1133C46.8895 12.1133 46.8 12.2 46.7105 12.2867C46.6211 12.3733 46.5316 12.5467 46.5316 12.72H47.6053Z" fill="#6F6F71"/>
<path d="M36.779 21.9067H35.7054V16.5334H33.8264V15.6667H38.5685V16.5334H36.6896V21.9067H36.779Z" fill="#6D6D6F"/>
<path d="M41.9684 17.0533C42.1474 17.0533 42.3263 17.0533 42.5053 17.0533L42.4158 18.0067C42.2368 18.0067 42.1474 17.92 41.9684 17.92C41.6105 17.92 41.2526 18.0067 40.9842 18.3533C40.7158 18.6133 40.6263 18.96 40.6263 19.3933V21.9067H39.6421V17.14H40.4474L40.5368 18.0067H40.6263C40.8053 17.7467 40.9842 17.4867 41.2526 17.3133C41.3421 17.14 41.6105 17.0533 41.9684 17.0533Z" fill="#6D6D6F"/>
<path d="M46.7107 21.9067L46.5317 21.3H46.4422C46.2633 21.56 46.0844 21.7333 45.8159 21.82C45.5475 21.9067 45.1896 21.9933 44.9212 21.9933C44.4738 21.9933 44.0265 21.9067 43.6686 21.56C43.4001 21.2133 43.2212 20.6933 43.2212 20.26V17.14H44.2054V20.0867C44.2054 20.3467 44.2949 20.6933 44.4738 20.8667C44.6528 21.04 44.9212 21.1267 45.1896 21.1267C45.5475 21.1267 45.9054 21.04 46.0843 20.78C46.2633 20.52 46.3528 20.0867 46.3528 19.48V17.14H47.337V21.9067H46.7107Z" fill="#6D6D6F"/>
<path d="M52.0791 20.52C52.0791 20.9533 51.9001 21.3 51.5422 21.56C51.0949 21.82 50.558 21.9933 50.1107 21.9067C49.5738 21.9067 49.037 21.82 48.5896 21.6467V20.78C49.037 21.04 49.5738 21.1267 50.1107 21.1267C50.737 21.1267 51.0054 20.9533 51.0054 20.6067C51.0054 20.52 51.0054 20.4333 50.9159 20.3467C50.8264 20.26 50.737 20.1733 50.558 20.0867C50.3791 20 50.1107 19.9133 49.9317 19.8267C49.4843 19.6533 49.1264 19.48 48.858 19.22C48.6791 18.96 48.5896 18.7 48.5896 18.44C48.5896 18.0933 48.7685 17.7467 49.1264 17.4867C49.5738 17.2267 50.0212 17.14 50.4685 17.14C51.0054 17.14 51.5422 17.2267 52.0791 17.4867L51.7212 18.2667C51.2738 18.0933 50.9159 18.0067 50.4685 17.92C49.9317 17.92 49.6633 18.0933 49.6633 18.3533C49.6633 18.5267 49.7528 18.6133 49.8422 18.7C50.1107 18.8733 50.4685 19.0467 50.737 19.1333C51.0054 19.22 51.3633 19.3933 51.6317 19.5667C51.8107 19.6533 51.9001 19.8267 51.9896 20C52.0791 20.0867 52.0791 20.3467 52.0791 20.52Z" fill="#6D6D6F"/>
<path d="M54.9423 21.1266C55.2107 21.1266 55.4791 21.1266 55.6581 21.04V21.82C55.4791 21.9066 55.3897 21.9066 55.2107 21.9066C55.0318 21.9066 54.8528 21.9933 54.6739 21.9933C53.6897 21.9933 53.2423 21.4733 53.2423 20.52V18.0066H52.616V17.5733L53.3318 17.2266L53.6897 16.1866H54.316V17.2266H55.6581V18.0066H54.316V20.52C54.316 20.6933 54.4054 20.9533 54.4949 21.04C54.6739 21.1266 54.7633 21.1266 54.9423 21.1266Z" fill="#6D6D6F"/>
<path d="M58.7894 21.9933C58.1631 21.9933 57.5368 21.82 57.0894 21.3867C56.6421 20.8667 56.4631 20.26 56.4631 19.6533C56.4631 18.96 56.6421 18.3533 57 17.8333C57.4473 17.4 57.9842 17.14 58.6105 17.14C59.1473 17.14 59.6842 17.3133 60.1316 17.7467C60.4894 18.18 60.6684 18.7 60.6684 19.3067V19.8267H57.5368C57.5368 20.1733 57.6263 20.6067 57.8947 20.8667C58.1631 21.1267 58.521 21.3 58.8789 21.2133C59.1473 21.2133 59.4158 21.2133 59.6842 21.1267C59.9526 21.04 60.221 20.9533 60.4894 20.8667V21.6467C60.221 21.7333 60.0421 21.82 59.7737 21.9067C59.3263 21.9067 59.0579 21.9933 58.7894 21.9933ZM58.6105 17.8333C58.3421 17.8333 58.0737 17.92 57.8052 18.18C57.6263 18.44 57.4473 18.7 57.4473 19.0467H59.5947C59.5947 18.7 59.5052 18.44 59.3263 18.18C59.1473 17.92 58.8789 17.8333 58.6105 17.8333Z" fill="#6D6D6F"/>
<path d="M63.3528 21.9933C62.816 21.9933 62.2791 21.82 61.9212 21.3867C61.6528 20.8667 61.4739 20.26 61.4739 19.48C61.4739 18.7 61.6528 18.0933 62.0107 17.66C62.3686 17.2267 62.9055 16.9667 63.4423 17.0533C63.9791 17.0533 64.516 17.3133 64.8739 17.7467H64.9633C64.9633 17.4867 64.8739 17.2267 64.8739 16.9667V15.2333H65.8581V21.9067H65.0528L64.8739 21.3H64.7844C64.516 21.7333 63.9791 21.9933 63.3528 21.9933ZM63.6212 21.1267C63.9791 21.1267 64.337 21.04 64.516 20.78C64.6949 20.4333 64.8739 20.0867 64.7844 19.6533V19.48C64.7844 18.8733 64.6949 18.44 64.516 18.18C64.2476 17.92 63.9791 17.7467 63.6212 17.8333C63.2634 17.8333 62.9949 18.0067 62.816 18.2667C62.637 18.6133 62.4581 19.0467 62.5476 19.48C62.5476 19.9133 62.637 20.3467 62.816 20.6933C62.9949 21.04 63.2634 21.1267 63.6212 21.1267Z" fill="#6D6D6F"/>
<path d="M73.2842 20.1733C73.2842 20.6933 73.1053 21.1267 72.6579 21.4733C72.2106 21.82 71.5842 21.9933 70.9579 21.9067C70.3316 21.9067 69.7948 21.82 69.1685 21.56V20.6067C69.4369 20.78 69.7948 20.8667 70.0632 20.9533C70.3316 21.04 70.6895 21.04 70.9579 21.04C71.3158 21.04 71.5842 20.9533 71.8527 20.78C72.0316 20.6067 72.1211 20.4333 72.1211 20.1733C72.1211 19.9133 72.0316 19.74 71.8527 19.5667C71.4948 19.3067 71.1369 19.1333 70.779 18.96C70.3316 18.7867 69.8842 18.5267 69.5264 18.18C69.2579 17.8333 69.1685 17.4867 69.1685 17.14C69.1685 16.7067 69.3474 16.1867 69.7053 15.9267C70.1527 15.58 70.6895 15.4067 71.2264 15.4933C71.8527 15.4933 72.479 15.6667 73.0158 15.9267L72.6579 16.7933C72.2106 16.62 71.6737 16.4467 71.1369 16.4467C70.8685 16.4467 70.6 16.5333 70.4211 16.62C70.2421 16.7933 70.1527 16.9667 70.1527 17.2267C70.1527 17.4 70.1527 17.4867 70.2421 17.66C70.3316 17.8333 70.4211 17.92 70.6 18.0067C70.8685 18.18 71.1369 18.2667 71.4948 18.44C71.8527 18.6133 72.2106 18.7867 72.479 18.96C72.6579 19.1333 72.8369 19.3067 72.9263 19.48C73.2842 19.6533 73.2842 19.9133 73.2842 20.1733Z" fill="#6D6D6F"/>
<path d="M76.1474 21.1266C76.4158 21.1266 76.6842 21.1266 76.8632 21.04V21.82C76.6842 21.9066 76.5947 21.9066 76.4158 21.9066C76.2368 21.9066 76.0579 21.9933 75.8789 21.9933C74.8947 21.9933 74.4474 21.4733 74.4474 20.52V18.0066H73.821V17.5733L74.5368 17.2266L74.8947 16.1866H75.521V17.2266H76.8632V18.0066H75.521V20.52C75.521 20.6933 75.6105 20.9533 75.7 21.04C75.7895 21.1266 75.9684 21.1266 76.1474 21.1266Z" fill="#6D6D6F"/>
<path d="M82.0527 19.48C82.0527 20.1733 81.8737 20.78 81.4263 21.3C80.979 21.7333 80.3527 21.9934 79.7263 21.9067C79.279 21.9067 78.9211 21.82 78.5632 21.6467C78.2053 21.4733 77.9369 21.1267 77.7579 20.78C77.579 20.3467 77.4895 19.9133 77.4895 19.48C77.4895 18.7867 77.6684 18.18 78.1158 17.66C78.5632 17.2267 79.1895 16.9667 79.8158 17.0533C80.4421 17.0533 81.0685 17.2267 81.4263 17.7467C81.8737 18.18 82.1421 18.8733 82.0527 19.48ZM78.6527 19.48C78.6527 20.6067 79.1 21.1267 79.9053 21.1267C80.7106 21.1267 81.0684 20.6067 81.0684 19.48C81.0684 18.44 80.6211 17.8333 79.8158 17.8333C79.4579 17.8333 79.1 17.92 78.9211 18.2667C78.7421 18.7 78.5632 19.0467 78.6527 19.48Z" fill="#6D6D6F"/>
<path d="M85.6317 17.0533C85.8107 17.0533 85.9896 17.0533 86.1686 17.0533L86.0791 18.0067C85.9002 18.0067 85.8107 17.92 85.6317 17.92C85.2738 17.92 84.9159 18.0067 84.6475 18.3533C84.3791 18.6133 84.2896 18.96 84.2896 19.3933V21.9067H83.3054V17.14H84.1107L84.2002 18.0067H84.2896C84.4686 17.7467 84.6475 17.4867 84.9159 17.3133C85.0949 17.14 85.3633 17.0533 85.6317 17.0533Z" fill="#6D6D6F"/>
<path d="M89.1212 21.9933C88.4949 21.9933 87.8686 21.82 87.4212 21.3867C86.9739 20.8667 86.7949 20.26 86.7949 19.6533C86.7949 18.96 86.9739 18.3533 87.4212 17.8333C87.8686 17.4 88.4054 17.14 89.0318 17.14C89.5686 17.14 90.1054 17.3133 90.5528 17.7467C90.9107 18.18 91.0897 18.7 91.0897 19.3067V19.8267H87.9581C87.9581 20.1733 88.0476 20.6067 88.316 20.8667C88.5844 21.1267 88.9423 21.3 89.3002 21.2133C89.5686 21.2133 89.837 21.2133 90.1054 21.1267C90.3739 21.04 90.6423 20.9533 90.9107 20.8667V21.6467C90.6423 21.7333 90.4633 21.82 90.1949 21.9067C89.7475 21.9067 89.3897 21.9933 89.1212 21.9933ZM88.9423 17.8333C88.6739 17.8333 88.4054 17.92 88.137 18.18C87.9581 18.44 87.7791 18.7 87.7791 19.0467H89.9265C89.9265 18.7 89.837 18.44 89.6581 18.18C89.4791 17.92 89.2107 17.8333 88.9423 17.8333Z" fill="#6D6D6F"/>
<path d="M36.4212 23.9867V27.8L35.0791 28.7534L35.6159 26.8467L34.1843 25.8934L35.9738 25.8067L36.4212 23.9867Z" fill="#E9721C"/>
<path d="M36.4211 23.9867V27.8L37.7632 28.7534L37.2264 26.8467L38.658 25.8934L36.8685 25.8067L36.4211 23.9867Z" fill="#E9721C"/>
<path d="M41.7 23.9867V27.8L40.3579 28.7534L40.8947 26.8467L39.4631 25.8934L41.2526 25.8067L41.7 23.9867Z" fill="#E9721C"/>
<path d="M41.7 23.9867V27.8L43.0421 28.7534L42.5947 26.8467L43.9368 25.8934L42.1473 25.8067L41.7 23.9867Z" fill="#E9721C"/>
<path d="M46.979 23.9867V27.8L45.6369 28.7534L46.1738 26.8467L44.7422 25.8934L46.6211 25.8067L46.979 23.9867Z" fill="#E9721C"/>
<path d="M46.979 23.9867V27.8L48.4106 28.7534L47.8737 26.8467L49.3053 25.8934L47.4264 25.8067L46.979 23.9867Z" fill="#E9721C"/>
<path d="M52.3473 23.9867V27.8L50.9157 28.7534L51.4526 26.8467L50.021 25.8934L51.8999 25.8067L52.3473 23.9867Z" fill="#E9721C"/>
<path d="M52.3474 23.9867V27.8L53.6895 28.7534L53.1527 26.8467L54.5843 25.8934L52.7948 25.8067L52.3474 23.9867Z" fill="#E9721C"/>
<path d="M57.6262 23.9867V27.8L56.2841 28.7534L56.7315 26.8467L55.3894 25.8934L57.1789 25.8067L57.6262 23.9867Z" fill="#E9721C"/>
<path d="M57.6262 23.9867V27.8L58.9683 28.7534L58.4315 26.8467L59.8631 25.8934L58.0736 25.8067L57.6262 23.9867Z" fill="#E9721C"/>
</g>
<defs>
<clipPath id="clip0">
<rect width="85" height="26" fill="white" transform="translate(6 7)"/>
</clipPath>
</defs>
</svg>
