<svg width="98" height="39" viewBox="0 0 98 39" fill="none" xmlns="http://www.w3.org/2000/svg">
<rect width="98" height="39" rx="1" fill="white"/>
<g clip-path="url(#clip0)">
<path d="M24.8285 33C24.8285 33 10.4611 28.0355 12.1358 7.82903C16.2742 6.70444 20.5374 6.0901 24.8285 6C29.1513 6.05493 33.4482 6.66985 37.6093 7.82903C39.284 28.0355 24.8285 33 24.8285 33Z" fill="url(#paint0_linear)"/>
<path d="M24.8285 33C24.8285 33 10.4611 28.0355 12.1358 7.82903C16.2742 6.70444 20.5374 6.0901 24.8285 6C29.1513 6.05493 33.4482 6.66985 37.6093 7.82903L36.2871 9.04839L24.8285 31.6935V33V33Z" fill="url(#paint1_linear)"/>
<path d="M24.8284 31.6936C24.8284 31.6936 11.7832 27.2516 13.2816 8.9613C17.0463 7.93899 20.9249 7.38312 24.8284 7.30646C28.7321 7.38056 32.6111 7.93648 36.3752 8.9613C37.8736 27.2516 24.8284 31.6936 24.8284 31.6936Z" fill="white" stroke="#1F1E21" stroke-width="0.5145" stroke-linecap="round"/>
<path d="M24.8284 31.6936C24.8284 31.6936 11.7832 27.2516 13.2816 8.9613C17.0463 7.93899 20.9249 7.38312 24.8284 7.30646C28.7321 7.38056 32.6111 7.93648 36.3752 8.9613C37.8736 27.2516 24.8284 31.6936 24.8284 31.6936Z" fill="white"/>
<path d="M13.2817 8.7871H13.1935V8.8742C12.4002 18.3677 15.6615 24.1161 18.4821 27.2516C20.2473 29.25 22.447 30.828 24.9166 31.8677H25.0929C27.5624 30.828 29.7621 29.25 31.5273 27.2516C34.3479 24.1161 37.6092 18.3677 36.816 8.8742V8.7871H36.7278C32.8488 7.73713 28.85 7.18101 24.8284 7.13226C20.9258 7.21837 17.0483 7.77408 13.2817 8.7871V8.7871ZM25.0047 7.39355C28.8215 7.46788 32.613 8.024 36.2871 9.04839C36.3752 10.0065 36.3752 11.0516 36.3752 11.9226C36.3752 19.5871 33.5546 24.5516 31.0866 27.2516C29.3787 29.1932 27.2358 30.7141 24.8284 31.6936C22.4211 30.7141 20.2782 29.1932 18.5703 27.2516C16.1022 24.4645 13.2817 19.6742 13.2817 11.9226C13.2817 11.0516 13.3698 10.0065 13.4579 9.04839C17.2319 8.07078 21.1052 7.51568 25.0047 7.39355V7.39355Z" fill="url(#paint2_linear)"/>
<path d="M24.8284 29.429C24.8284 29.429 13.8987 25.4226 15.1327 10.0065C15.1327 10.0065 19.8924 10.3549 24.8284 10.3549C29.7645 10.3549 34.3479 10.0065 34.5242 10.0065C35.7582 25.4226 24.8284 29.429 24.8284 29.429Z" fill="url(#paint3_linear)"/>
<path d="M24.8284 28.1226C24.8284 28.1226 15.3971 24.6387 16.4548 11.4C16.4548 11.4 20.5976 11.7484 24.8284 11.7484C29.0593 11.7484 33.1139 11.4 33.2021 11.4C34.2598 24.6387 24.8284 28.1226 24.8284 28.1226Z" fill="url(#paint4_radial)"/>
<path d="M34.5242 10.0936C34.348 10.0936 29.6764 10.442 24.8285 10.442C19.9806 10.442 15.1327 10.0936 15.1327 10.0936L16.4548 11.4C16.4548 11.4 20.5976 11.7484 24.8285 11.7484C29.0594 11.7484 33.1139 11.4 33.2021 11.4L34.5242 10.0936Z" fill="#771A29"/>
<path d="M24.8284 29.429C24.8284 29.429 13.8987 25.4226 15.1327 10.0065L16.4548 11.3129C15.3971 24.5516 24.8284 28.0355 24.8284 28.0355V29.429Z" fill="url(#paint5_linear)"/>
<path d="M19.011 22.8097L20.5094 12.5323H23.1537L26.3269 22.8097H23.5944L22.1842 17.4968L21.3909 22.8097H19.011Z" fill="white"/>
<path d="M26.6795 12.5323H29.2356L30.7341 22.8097H28.2661L27.4728 17.4968L26.5032 21.6774L25.181 17.4968L26.6795 12.5323Z" fill="white"/>
<path d="M47.0406 17.4968H45.0133L43.0741 12.5323L42.369 17.4968H40.1654L41.5757 8.26453H43.6911L47.0406 17.4968ZM45.6303 12.7936L47.305 8.26453H49.5086L50.7426 17.4968H48.539L47.922 12.5323L46.688 15.4936L45.6303 12.7936Z" fill="#1F1E21"/>
<path d="M59.0281 15.929L58.4992 17.4968H56.2957L59.3807 8.26453H61.6724L64.6693 17.4968H62.4657L61.9368 15.929H59.0281V15.929ZM60.4384 11.1387L59.557 14.1H61.3198L60.4384 11.1387Z" fill="#1F1E21"/>
<path d="M75.5991 14.7097H71.3682C71.339 14.8844 71.3493 15.0633 71.3983 15.2336C71.4474 15.4039 71.5341 15.5613 71.6521 15.6945C71.7701 15.8278 71.9165 15.9335 72.0808 16.0042C72.245 16.0749 72.4231 16.1087 72.6022 16.1032C72.809 16.1197 73.0155 16.0691 73.1905 15.959C73.3654 15.849 73.4993 15.6856 73.5718 15.4936H75.511C75.389 16.1599 75.0097 16.7532 74.4532 17.1484C73.9036 17.5028 73.2584 17.685 72.6022 17.671C72.159 17.699 71.7148 17.6319 71.3003 17.4742C70.8858 17.3166 70.5107 17.0721 70.2009 16.7577C69.891 16.4432 69.6537 16.0662 69.5053 15.6526C69.3568 15.2389 69.3008 14.7984 69.3409 14.3613C69.2987 13.9312 69.3504 13.4971 69.4925 13.0884C69.6346 12.6797 69.8637 12.3059 70.1645 11.9922C70.4653 11.6785 70.8306 11.4322 71.236 11.2699C71.6413 11.1077 72.0772 11.0332 72.5141 11.0516C74.4532 11.0516 75.5991 12.3581 75.5991 14.5355V14.7097ZM73.7481 13.4903C73.7338 13.3293 73.6837 13.1735 73.6013 13.0338C73.5189 12.8942 73.4063 12.7743 73.2715 12.6828C73.1367 12.5912 72.9831 12.5302 72.8217 12.5042C72.6603 12.4782 72.495 12.4878 72.3378 12.5323C72.0918 12.5636 71.8632 12.6747 71.6877 12.848C71.5123 13.0213 71.4 13.2472 71.3682 13.4903H73.7481V13.4903Z" fill="#1F1E21"/>
<path d="M82.6505 14.7097H78.4196C78.3904 14.8844 78.4007 15.0633 78.4497 15.2336C78.4988 15.4039 78.5855 15.5613 78.7035 15.6945C78.8215 15.8278 78.9679 15.9335 79.1321 16.0042C79.2964 16.0749 79.4745 16.1087 79.6536 16.1032C79.8604 16.1197 80.0669 16.0691 80.2419 15.959C80.4168 15.849 80.5507 15.6856 80.6232 15.4936H82.5624C82.4404 16.1599 82.0611 16.7532 81.5046 17.1484C80.955 17.5028 80.3098 17.685 79.6536 17.671C79.2104 17.699 78.7662 17.6319 78.3517 17.4742C77.9372 17.3166 77.5621 17.0721 77.2523 16.7577C76.9424 16.4432 76.7051 16.0662 76.5567 15.6526C76.4082 15.2389 76.3522 14.7984 76.3923 14.3613C76.3501 13.9312 76.4018 13.4971 76.5439 13.0884C76.6859 12.6797 76.9151 12.3059 77.2159 11.9922C77.5166 11.6785 77.882 11.4322 78.2874 11.2699C78.6927 11.1077 79.1285 11.0332 79.5655 11.0516C81.5046 11.0516 82.6505 12.3581 82.6505 14.5355V14.7097ZM80.7114 13.4903C80.6971 13.3293 80.647 13.1735 80.5646 13.0338C80.4822 12.8942 80.3696 12.7743 80.2348 12.6828C80.1 12.5912 79.9464 12.5302 79.785 12.5042C79.6235 12.4782 79.4583 12.4878 79.3011 12.5323C79.055 12.5636 78.8264 12.6747 78.651 12.848C78.4756 13.0213 78.3632 13.2472 78.3315 13.4903H80.7114Z" fill="#1F1E21"/>
<path d="M82.915 10.0065C82.9141 9.80036 82.9546 9.59611 83.034 9.40551C83.1134 9.21491 83.2302 9.04174 83.3777 8.89599C83.5252 8.75024 83.7005 8.6348 83.8934 8.55632C84.0863 8.47783 84.293 8.43787 84.5016 8.43873C84.7056 8.43968 84.9073 8.48154 85.0945 8.56178C85.2817 8.64202 85.4504 8.75897 85.5905 8.90554C85.7306 9.05212 85.8392 9.22527 85.9095 9.41451C85.9799 9.60375 86.0107 9.80514 86 10.0065C86.0009 10.2126 85.9604 10.4168 85.881 10.6074C85.8016 10.798 85.6848 10.9712 85.5373 11.117C85.3898 11.2627 85.2145 11.3782 85.0216 11.4566C84.8287 11.5351 84.622 11.5751 84.4134 11.5742V11.5742C84.0061 11.5575 83.6216 11.3842 83.3417 11.0914C83.0618 10.7985 82.9087 10.4092 82.915 10.0065V10.0065ZM83.1794 10.0065C83.1794 10.353 83.3187 10.6853 83.5667 10.9303C83.8146 11.1753 84.1509 11.3129 84.5016 11.3129C84.8522 11.3129 85.1885 11.1753 85.4365 10.9303C85.6844 10.6853 85.8237 10.353 85.8237 10.0065C85.8152 9.66263 85.6732 9.33518 85.4271 9.09197C85.1809 8.84876 84.8496 8.70842 84.5016 8.70002V8.70002C84.327 8.69679 84.1537 8.72838 83.9918 8.79289C83.8299 8.8574 83.6828 8.95352 83.5594 9.07548C83.436 9.19745 83.3387 9.34276 83.2734 9.50272C83.2081 9.66269 83.1761 9.83402 83.1794 10.0065V10.0065ZM85.1186 10.8774H84.8541L84.4134 10.0936H84.0609V10.8774H83.7964V9.13551H84.5016C84.8541 9.13551 85.1186 9.22261 85.1186 9.57099C85.1147 9.69422 85.0692 9.81262 84.9894 9.90734C84.9095 10.002 84.7998 10.0676 84.6779 10.0936H84.5897L85.1186 10.8774ZM84.0609 9.3968V9.83228H84.3253C84.5897 9.83228 84.8541 9.83228 84.8541 9.65809C84.8541 9.3968 84.6779 9.3968 84.5016 9.3968H84.0609V9.3968Z" fill="#1F1E21"/>
<path d="M65.3744 12.7936H64.2285V11.2258H65.4625V10.529C65.4625 8.70001 66.2558 8.00323 67.8424 8.00323C68.195 8.00323 68.5475 8.09033 68.9001 8.09033L68.812 9.57098C68.5475 9.57098 68.2831 9.48388 68.1068 9.48388C67.578 9.48388 67.4017 9.83227 67.4017 10.4419V11.2258H68.812V12.7065H67.4017V17.4097H65.3744V12.7936Z" fill="#1F1E21"/>
<path d="M44.7489 21.9387C44.2274 21.6904 43.6527 21.5708 43.0741 21.5903C42.8992 21.5569 42.7191 21.5605 42.5456 21.6009C42.3722 21.6412 42.2094 21.7173 42.0678 21.8243C41.9263 21.9312 41.8093 22.0665 41.7245 22.2214C41.6396 22.3762 41.5889 22.547 41.5757 22.7226C41.5757 24.3774 45.3659 24.029 45.3659 26.8161C45.3659 28.6452 43.9556 29.429 42.1046 29.429C41.4743 29.3975 40.8514 29.2803 40.2535 29.0806L40.3417 27.9484C40.936 28.1753 41.5587 28.3218 42.1927 28.3839C42.6111 28.4182 43.0269 28.2929 43.3548 28.0337C43.6826 27.7746 43.8976 27.4012 43.9556 26.9903C43.9556 25.0742 40.1654 25.5968 40.1654 22.8968C40.1654 21.329 41.3994 20.5452 42.986 20.5452C43.6207 20.5339 44.2509 20.6525 44.837 20.8935L44.7489 21.9387Z" fill="#1F1E21"/>
<path d="M47.1288 20.6323H52.0648V21.6774H48.3628V24.2032H51.7122V25.3355H48.3628V28.2097H52.0648V29.3419H47.1288V20.6323Z" fill="#1F1E21"/>
<path d="M59.6451 22.0258C59.1297 21.7017 58.535 21.5216 57.9243 21.5044C57.3136 21.4873 56.7096 21.6339 56.1764 21.9286C55.6431 22.2233 55.2006 22.6551 54.8957 23.1783C54.5908 23.7014 54.435 24.2964 54.4446 24.9C54.421 25.3233 54.482 25.7471 54.6243 26.1471C54.7666 26.547 54.9874 26.9153 55.274 27.2308C55.5605 27.5464 55.9073 27.8029 56.2944 27.9859C56.6814 28.1688 57.1012 28.2744 57.5297 28.2968H57.7059C58.376 28.2869 59.0365 28.1385 59.6451 27.8613L59.7332 29.0807C59.0879 29.3298 58.3985 29.4483 57.7059 29.4291C57.0872 29.4791 56.4648 29.397 55.881 29.1883C55.2972 28.9796 54.7657 28.6492 54.3226 28.2196C53.8794 27.79 53.535 27.2712 53.3128 26.6984C53.0905 26.1256 52.9955 25.5123 53.0343 24.9C53.0123 24.2959 53.1195 23.6939 53.3488 23.1334C53.5782 22.573 53.9246 22.0666 54.3655 21.6474C54.8064 21.2282 55.3317 20.9056 55.9073 20.7007C56.4829 20.4958 57.0958 20.4131 57.7059 20.4581C58.3979 20.4463 59.0859 20.5646 59.7332 20.8065L59.6451 22.0258Z" fill="#1F1E21"/>
<path d="M67.6662 25.6839C67.6662 28.1226 66.4322 29.429 64.2286 29.429C62.025 29.429 60.791 28.1226 60.791 25.6839V20.6323H62.025V25.5097C62.025 27.1645 62.5539 28.2968 64.2286 28.2968C65.9033 28.2968 66.4322 27.1645 66.4322 25.5097V20.6323H67.6662V25.6839Z" fill="#1F1E21"/>
<path d="M69.6935 20.6323H71.8971C73.6599 20.6323 75.3347 20.8936 75.3347 22.9839C75.3241 23.4827 75.1306 23.9608 74.7902 24.3292C74.4497 24.6977 73.9854 24.9315 73.4837 24.9871C73.6867 25.0587 73.8711 25.174 74.0235 25.3246C74.176 25.4752 74.2926 25.6574 74.3651 25.8581L76.0398 29.3419H74.5414L73.2192 26.3807C73.1334 26.0712 72.9289 25.8071 72.649 25.6444C72.3692 25.4818 72.0362 25.4334 71.7208 25.5097H70.9275V29.3419H69.6935V20.6323V20.6323ZM70.9275 24.2903H71.9852C73.2192 24.2903 73.9244 23.7677 73.9244 22.8968C73.9244 22.1129 73.3074 21.5903 72.1615 21.5903H70.9275V24.2903Z" fill="#1F1E21"/>
<path d="M77.4501 20.6323H82.3861V21.6774H78.6841V24.2032H82.0335V25.3355H78.6841V28.2097H82.3861V29.3419H77.4501V20.6323Z" fill="#1F1E21"/>
<path d="M55.7668 13.2291C55.4046 12.9837 54.9715 12.8614 54.5328 12.8807C54.3128 12.8809 54.0955 12.9283 53.8958 13.0196C53.6961 13.1109 53.5189 13.244 53.3764 13.4097C53.2339 13.5753 53.1296 13.7696 53.0705 13.979C53.0114 14.1884 52.9991 14.408 53.0344 14.6226C53.0294 15.0481 53.1923 15.4587 53.4884 15.7676C53.7846 16.0765 54.1908 16.2594 54.621 16.2775H54.7091C55.1352 16.2837 55.5571 16.1944 55.9431 16.0162V17.5839C55.4034 17.7621 54.8374 17.8504 54.2684 17.8452C53.8277 17.8774 53.3852 17.8168 52.97 17.6674C52.5548 17.518 52.1764 17.2833 51.8598 16.9787C51.5432 16.6741 51.2956 16.3066 51.1334 15.9004C50.9713 15.4943 50.8981 15.0587 50.9189 14.6226C50.8962 14.182 50.9672 13.7417 51.1275 13.3299C51.2878 12.9182 51.5337 12.5443 51.8494 12.2324C52.1651 11.9204 52.5435 11.6774 52.9602 11.519C53.3769 11.3607 53.8225 11.2905 54.2684 11.3129C54.8178 11.3028 55.3616 11.4223 55.855 11.6613L55.7668 13.2291Z" fill="#1F1E21"/>
</g>
<defs>
<linearGradient id="paint0_linear" x1="17.1595" y1="27.4154" x2="30.9014" y2="1.52848" gradientUnits="userSpaceOnUse">
<stop stop-color="#636465"/>
<stop offset="0.0298" stop-color="#676869"/>
<stop offset="0.2659" stop-color="#828384"/>
<stop offset="0.5054" stop-color="#969798"/>
<stop offset="0.7484" stop-color="#A1A2A3"/>
<stop offset="1" stop-color="#A5A6A7"/>
</linearGradient>
<linearGradient id="paint1_linear" x1="30.3346" y1="20.0274" x2="12.4714" y2="8.06668" gradientUnits="userSpaceOnUse">
<stop stop-color="#C4C5C6"/>
<stop offset="0.0977" stop-color="#DCDDDD"/>
<stop offset="0.2067" stop-color="#F0F0F0"/>
<stop offset="0.3177" stop-color="#FBFBFB"/>
<stop offset="0.4326" stop-color="white"/>
<stop offset="0.5353" stop-color="#F6F7F7"/>
<stop offset="0.7001" stop-color="#DFDFE0"/>
<stop offset="0.905" stop-color="#B9BABB"/>
<stop offset="1" stop-color="#A5A6A7"/>
</linearGradient>
<linearGradient id="paint2_linear" x1="34.8334" y1="23.174" x2="16.095" y2="10.3456" gradientUnits="userSpaceOnUse">
<stop stop-color="#4C4C4E"/>
<stop offset="0.2192" stop-color="#636365"/>
<stop offset="0.4734" stop-color="#767778"/>
<stop offset="0.7321" stop-color="#818283"/>
<stop offset="1" stop-color="#858687"/>
</linearGradient>
<linearGradient id="paint3_linear" x1="16.4493" y1="22.3894" x2="32.4744" y2="10.8128" gradientUnits="userSpaceOnUse">
<stop stop-color="#771A29"/>
<stop offset="0.6067" stop-color="#AD0335"/>
<stop offset="0.7079" stop-color="#AC0335"/>
<stop offset="1" stop-color="#761F40"/>
</linearGradient>
<radialGradient id="paint4_radial" cx="0" cy="0" r="1" gradientUnits="userSpaceOnUse" gradientTransform="translate(22.2237 14.075) scale(17.0093 17.2293)">
<stop stop-color="#AD0335"/>
<stop offset="0.4607" stop-color="#AC0335"/>
<stop offset="1" stop-color="#761F40"/>
</radialGradient>
<linearGradient id="paint5_linear" x1="61.376" y1="1056.24" x2="339.92" y2="894.257" gradientUnits="userSpaceOnUse">
<stop stop-color="#771A29"/>
<stop offset="0.6067" stop-color="#AD0335"/>
<stop offset="0.7079" stop-color="#AC0335"/>
<stop offset="1" stop-color="#761F40"/>
</linearGradient>
<clipPath id="clip0">
<rect width="74" height="27" fill="white" transform="translate(12 6)"/>
</clipPath>
</defs>
</svg>
