<svg width="98" height="39" viewBox="0 0 98 39" fill="none" xmlns="http://www.w3.org/2000/svg">
<rect width="98" height="39" rx="1" fill="white"/>
<g clip-path="url(#clip0)">
<rect x="17.5294" y="4.5957" width="63.4706" height="22.2125" rx="11.1063" fill="white"/>
<path d="M70.0227 26.987H27.8406C26.3807 26.9789 24.9369 26.6809 23.5928 26.1102C22.2487 25.5394 21.0309 24.7073 20.01 23.6621C18.9891 22.6168 18.1853 21.3791 17.6452 20.0205C17.1051 18.662 16.8393 17.2097 16.8633 15.7476C16.8488 14.2926 17.1218 12.8491 17.6665 11.5001C18.2112 10.1512 19.0168 8.92341 20.037 7.88753C21.0573 6.85165 22.272 6.0281 23.6112 5.46426C24.9505 4.90043 26.3878 4.60744 27.8406 4.60217H70.0227C71.4826 4.61027 72.9264 4.90831 74.2705 5.47905C75.6146 6.04978 76.8323 6.88186 77.8532 7.92714C78.8741 8.97242 79.6779 10.2101 80.218 11.5686C80.7582 12.9272 81.0239 14.3795 81 15.8416C81.0144 17.2966 80.7414 18.7401 80.1967 20.089C79.652 21.4379 78.8463 22.6656 77.8261 23.7015C76.8058 24.7374 75.5912 25.5609 74.252 26.1248C72.9127 26.6887 71.4754 26.9817 70.0227 26.987V26.987ZM27.8406 5.51009C26.4941 5.51541 25.1619 5.78729 23.9206 6.3101C22.6794 6.83291 21.5536 7.59634 20.608 8.55647C19.6623 9.51661 18.9155 10.6545 18.4104 11.9048C17.9054 13.155 17.6521 14.4929 17.665 15.8416C17.6521 17.1902 17.9054 18.5281 18.4104 19.7784C18.9155 21.0286 19.6623 22.1665 20.608 23.1266C21.5536 24.0868 22.6794 24.8502 23.9206 25.373C25.1619 25.8958 26.4941 26.1677 27.8406 26.173H70.0227C71.3692 26.1677 72.7014 25.8958 73.9426 25.373C75.1839 24.8502 76.3097 24.0868 77.2553 23.1266C78.201 22.1665 78.9478 21.0286 79.4529 19.7784C79.9579 18.5281 80.2112 17.1902 80.1982 15.8416C80.2112 14.4929 79.9579 13.155 79.4528 11.9048C78.9478 10.6545 78.201 9.51661 77.2553 8.55647C76.3097 7.59634 75.1839 6.83291 73.9426 6.3101C72.7014 5.78729 71.3692 5.51541 70.0227 5.51009H27.8406Z" fill="#BBBABA"/>
<path d="M64.9967 9.5488C64.4015 9.54071 63.8174 9.7101 63.3185 10.0354C62.8197 10.3608 62.4287 10.8273 62.1953 11.3758C61.962 11.9243 61.8967 12.5299 62.0079 13.1157C62.1191 13.7014 62.4016 14.2408 62.8197 14.6653C63.2377 15.0897 63.7723 15.38 64.3556 15.4993C64.9388 15.6186 65.5443 15.5615 66.095 15.3352C66.6457 15.1089 67.1168 14.7237 67.4483 14.2285C67.7799 13.7333 67.9569 13.1505 67.9569 12.5543C67.9647 12.1609 67.8937 11.7699 67.7482 11.4044C67.6027 11.0389 67.3856 10.7063 67.1097 10.4262C66.8338 10.146 66.5047 9.9241 66.1418 9.77341C65.7789 9.62273 65.3896 9.54636 64.9967 9.5488V9.5488ZM64.9967 14.151C64.6991 14.1551 64.407 14.0704 64.1576 13.9077C63.9082 13.745 63.7127 13.5117 63.596 13.2375C63.4793 12.9633 63.4467 12.6604 63.5023 12.3676C63.5579 12.0747 63.6991 11.805 63.9082 11.5928C64.1172 11.3806 64.3845 11.2354 64.6761 11.1757C64.9677 11.1161 65.2704 11.1446 65.5458 11.2578C65.8212 11.3709 66.0567 11.5635 66.2225 11.8111C66.3883 12.0587 66.4768 12.3501 66.4768 12.6482C66.4808 12.8449 66.4453 13.0405 66.3726 13.2233C66.2999 13.406 66.1914 13.5724 66.0534 13.7125C65.9154 13.8525 65.7508 13.9635 65.5694 14.0388C65.3879 14.1142 65.1932 14.1523 64.9967 14.151V14.151Z" fill="#201600"/>
<path d="M51.3677 9.5488C50.7725 9.54071 50.1883 9.7101 49.6895 10.0354C49.1907 10.3608 48.7997 10.8273 48.5663 11.3758C48.3329 11.9243 48.2677 12.5299 48.3789 13.1157C48.49 13.7014 48.7726 14.2408 49.1906 14.6653C49.6087 15.0897 50.1433 15.38 50.7265 15.4993C51.3098 15.6186 51.9152 15.5615 52.4659 15.3352C53.0167 15.1089 53.4877 14.7237 53.8193 14.2285C54.1508 13.7333 54.3279 13.1505 54.3279 12.5543C54.3356 12.1609 54.2647 11.7699 54.1192 11.4044C53.9737 11.0389 53.7566 10.7063 53.4807 10.4262C53.2048 10.146 52.8757 9.9241 52.5128 9.77341C52.1499 9.62273 51.7605 9.54635 51.3677 9.5488V9.5488ZM51.3677 14.151C51.0701 14.1551 50.778 14.0704 50.5286 13.9077C50.2792 13.745 50.0837 13.5117 49.967 13.2375C49.8503 12.9633 49.8177 12.6604 49.8732 12.3676C49.9288 12.0747 50.0701 11.805 50.2791 11.5928C50.4882 11.3806 50.7555 11.2354 51.0471 11.1757C51.3387 11.1161 51.6414 11.1446 51.9168 11.2578C52.1921 11.3709 52.4277 11.5635 52.5935 11.8111C52.7592 12.0587 52.8478 12.3501 52.8478 12.6482C52.8692 13.0182 52.746 13.3819 52.5042 13.6624C52.2625 13.943 51.9212 14.1182 51.5527 14.151H51.3677Z" fill="#201600"/>
<path d="M61.8207 14.2449C61.6354 14.3216 61.4348 14.3538 61.2348 14.3388C60.7415 14.3388 60.649 14.151 60.649 13.6501V10.8324H61.8207V9.6427H60.649V8.04602H59.2614L58.9531 9.6427H57.8739C57.493 9.64713 57.1215 9.7618 56.8042 9.97288C56.4868 10.184 56.2372 10.4825 56.0854 10.8324L55.5921 9.6427H54.6053V15.4659H56.2704V12.9613C56.2704 11.6464 56.9488 10.8637 57.843 10.8637H58.7372V13.7753C58.6748 14.2119 58.7848 14.6557 59.0439 15.0123C59.303 15.369 59.6908 15.6103 60.1248 15.6851H60.5256C60.9628 15.6686 61.3969 15.6056 61.8207 15.4972V14.2449V14.2449Z" fill="#201600"/>
<path d="M70.0227 11.5528V15.4661H68.3579V9.73676H69.3444L69.6526 10.551" fill="#201600"/>
<path d="M69.6527 10.6446C69.8861 10.3406 70.1845 10.0928 70.526 9.91945C70.8675 9.74609 71.2434 9.65152 71.6261 9.6427C72.1133 9.6428 72.5815 9.83204 72.9322 10.1707C73.283 10.5093 73.489 10.9709 73.5071 11.4585V15.5911H71.8112V11.8342C71.8128 11.7278 71.7932 11.6222 71.7536 11.5234C71.714 11.4246 71.6552 11.3347 71.5806 11.259C71.506 11.1832 71.417 11.1231 71.319 11.0821C71.2209 11.0411 71.1157 11.0201 71.0094 11.0202H70.9169C70.7124 11.0121 70.51 11.0641 70.3347 11.1698C70.1594 11.2755 70.0187 11.4303 69.9302 11.6151" fill="#201600"/>
<path d="M41.8707 7.63879H43.7511L46.3412 12.5547V7.63879H47.9142V15.466H46.2181L43.4735 10.05V15.466H41.8707V7.63879Z" fill="#201600"/>
<path d="M78.5329 4.5957V4.87757H78.1322V6.28692H77.7315V4.87757H77.3308V4.5957H78.5329Z" fill="#201600"/>
<path d="M78.7183 6.28692V4.5957H79.119L79.4279 5.69178L79.7047 4.5957H80.1062V6.28692H79.9211V4.97178L79.5204 6.28692H79.3354L79.0264 4.97178V6.28692H78.7183Z" fill="#201600"/>
<path d="M41.3772 22.4787L41.7781 21.8839C42.1727 22.1996 42.6606 22.3758 43.1656 22.3848C43.3628 22.4233 43.5672 22.3825 43.7346 22.2712C43.9019 22.1598 44.0188 21.987 44.0598 21.79V21.6961C44.0598 21.1951 43.659 21.1012 42.8881 20.7881C42.528 20.7353 42.1989 20.5544 41.9611 20.2784C41.7233 20.0024 41.5926 19.6499 41.593 19.2854C41.6036 18.9269 41.7556 18.5873 42.0157 18.3408C42.2757 18.0944 42.6227 17.9612 42.9806 17.9704H43.1656C43.6468 17.9589 44.1234 18.0665 44.5532 18.2835L44.2449 18.8784C43.9206 18.6769 43.5472 18.5686 43.1656 18.5653C43.0801 18.545 42.9915 18.5419 42.9048 18.5561C42.818 18.5704 42.735 18.6017 42.6605 18.6483C42.5859 18.6949 42.5213 18.7558 42.4704 18.8275C42.4195 18.8992 42.3833 18.9804 42.3639 19.0662V19.1601C42.3639 19.6611 42.7648 19.755 43.3506 19.9741C43.7454 20.0236 44.1101 20.2107 44.3808 20.5027C44.6514 20.7947 44.8107 21.1729 44.8307 21.5708C44.8307 22.4787 44.2448 22.9796 43.1656 22.9796C42.8492 23.0214 42.5276 22.9986 42.2202 22.9125C41.9129 22.8264 41.6261 22.6788 41.3772 22.4787" fill="#969594"/>
<path d="M46.3412 17.9707H49.3014V18.6593H47.2045V20.0679H48.9007V20.663H47.2045V22.2593H49.3939V22.98H46.3412V17.9707Z" fill="#969594"/>
<path d="M50.5659 20.4751C50.5659 18.9723 51.2443 17.8766 52.6319 17.8766C52.9062 17.8678 53.1794 17.9161 53.4342 18.0185C53.6889 18.1209 53.9197 18.2751 54.1119 18.4714L53.6186 19.0663C53.4951 18.9286 53.3423 18.8205 53.1715 18.7501C53.0007 18.6796 52.8163 18.6486 52.6319 18.6593C51.8301 18.6593 51.4601 19.348 51.4601 20.569C51.4601 21.7587 51.861 22.2596 52.6319 22.2596C52.8251 22.2656 53.0167 22.2229 53.1891 22.1354C53.3615 22.0479 53.5092 21.9183 53.6186 21.7587L54.1119 22.3535C53.9246 22.5627 53.6968 22.7316 53.4424 22.85C53.188 22.9684 52.9123 23.0338 52.6319 23.0423C51.2751 23.0736 50.5659 21.9778 50.5659 20.4751" fill="#969594"/>
<path d="M55.6228 21.07V17.9705H56.517V21.1952C56.517 21.8839 56.702 22.2909 57.4112 22.2909C58.0896 22.2909 58.3054 21.8839 58.3054 21.1952V17.9705H59.1996V21.07C59.1996 22.2596 58.7063 23.0736 57.4112 23.0736C56.1162 23.0736 55.6228 22.2596 55.6228 21.07" fill="#969594"/>
<path d="M64.1949 22.9797H63.3007L62.314 20.8821H61.5123V22.9797H60.7106V17.9705H62.2832C63.2699 17.9705 64.0716 18.3775 64.0716 19.4733C64.082 19.7594 64.0009 20.0412 63.84 20.2778C63.6791 20.5144 63.4469 20.6932 63.1774 20.7882L64.1949 22.9797ZM62.2215 20.162C62.4302 20.202 62.6464 20.1635 62.8284 20.0537C63.0105 19.9439 63.1458 19.7707 63.2082 19.5672V19.3794C63.2335 19.2865 63.2378 19.1892 63.2207 19.0945C63.2036 18.9999 63.1656 18.9102 63.1094 18.8321C63.0533 18.7541 62.9804 18.6896 62.8961 18.6435C62.8118 18.5973 62.7183 18.5706 62.6223 18.5654H61.5123V20.0681L62.2215 20.1621V20.162Z" fill="#969594"/>
<path d="M65.5828 17.9707H68.5429V18.6593H66.4767V20.0679H68.0497V20.663H66.4767V22.2593H68.6661V22.98H65.5828V17.9707Z" fill="#969594"/>
<path d="M70.0227 17.9705H71.1945C71.4759 17.9376 71.7611 17.9611 72.0334 18.0395C72.3057 18.118 72.5597 18.25 72.7806 18.4277C73.0016 18.6054 73.185 18.8253 73.3203 19.0747C73.4556 19.324 73.5401 19.5979 73.5688 19.8802V20.4751C73.6171 20.7573 73.609 21.0463 73.5451 21.3255C73.4811 21.6046 73.3626 21.8682 73.1963 22.1011C73.03 22.334 72.8192 22.5316 72.5761 22.6824C72.3331 22.8332 72.0626 22.9342 71.7803 22.9797H69.8994V17.9705H70.0227H70.0227ZM71.2253 22.2596C72.397 22.2596 72.7979 21.7587 72.7979 20.4438C72.7979 19.348 72.4895 18.6279 71.3178 18.6279H70.8245V22.2283C70.9564 22.2543 71.0909 22.2648 71.2253 22.2596H71.2253Z" fill="#969594"/>
<path d="M27.8406 27.895C24.6841 27.848 21.6727 26.5591 19.4572 24.3067C17.2416 22.0543 15.9996 19.0192 15.9996 15.8572C15.9996 12.6953 17.2416 9.66023 19.4572 7.40783C21.6727 5.15542 24.6841 3.8665 27.8406 3.81952C30.9971 3.8665 34.0084 5.15542 36.224 7.40783C38.4395 9.66023 39.6815 12.6953 39.6815 15.8572C39.6815 19.0192 38.4395 22.0543 36.224 24.3067C34.0084 26.5591 30.9971 27.848 27.8406 27.895V27.895ZM27.8406 7.63903C25.6856 7.65082 23.6233 8.51769 22.1053 10.0497C20.5993 11.6151 19.7496 13.6991 19.731 15.8729C19.7377 18.0491 20.5892 20.1373 22.1052 21.6961C23.63 23.218 25.6881 24.083 27.8405 24.1068C28.908 24.1039 29.9644 23.8894 30.9488 23.4757C31.9331 23.0619 32.826 22.4571 33.5758 21.6961C35.0818 20.1307 35.9315 18.0467 35.9501 15.8729C35.9621 13.7047 35.1151 11.6203 33.5948 10.0767C32.0746 8.53316 30.0052 7.65652 27.8406 7.63903V7.63903" fill="#EFBA44"/>
<path d="M41.5929 1.90973H40.6987V2.81765H41.5929V1.90973Z" fill="#EFBA44"/>
<path d="M41.5929 0H40.6987V0.907918H41.5929V0Z" fill="#EFBA44"/>
<path d="M39.0336 2.81769H38.1394V3.72561H39.0336V2.81769Z" fill="#EFBA44"/>
<path d="M37.3378 4.63348H36.4436V5.5414H37.3378V4.63348Z" fill="#201600"/>
<path d="M39.9895 3.81952H39.0028V4.72744H39.9895V3.81952Z" fill="#201600"/>
<path d="M36.4435 3.81952H35.5493V4.63352H36.4435V3.81952Z" fill="#201600"/>
<path d="M39.0336 4.63348H38.1394V5.5414H39.0336V4.63348Z" fill="#201600"/>
<path d="M40.6988 1.00183H39.8046V1.90975H40.6988V1.00183Z" fill="#201600"/>
<path d="M39.8045 1.90973H38.1394V2.81765H39.8045V1.90973Z" fill="#201600"/>
<path d="M38.1395 2.81769H37.2452V4.63352H38.1395V2.81769Z" fill="#201600"/>
<path d="M37.2453 5.51013V6.41805H36.3511V5.51013H34.871V6.10497H34.1926V6.91897H35.0868V7.82688H34.1926V6.91897H33.2984V8.3278H32.4042V9.23572H31.8183V10.1436H31.2325C30.1533 12.0534 29.074 13.9632 28.1798 15.9668C26.1755 13.2431 24.6955 12.1473 23.4929 11.7403C22.9071 11.5525 22.1054 12.2412 23.0921 13.337C24.8819 15.3016 26.228 17.6295 27.039 20.162C27.4398 21.07 29.1974 21.2578 29.5057 20.256C30.3078 18.0577 31.3744 15.9656 32.6817 14.0258V13.0239H33.3601V12.116H34.1618V11.1141H35.056V10.1123H34.1618V9.20443H35.056V10.1123H35.9502V9.20443H36.6594V8.10865H37.4611V7.41989H38.1395V5.51013H37.2453Z" fill="#201600"/>
<path d="M21.4578 31.9963H22.167V32.4972C22.2763 32.3376 22.424 32.208 22.5964 32.1205C22.7689 32.033 22.9605 31.9903 23.1537 31.9963C23.4972 32.0059 23.8236 32.1481 24.065 32.3931C24.3063 32.6381 24.4438 32.967 24.4488 33.3112V33.499C24.4686 33.6841 24.4502 33.8713 24.3948 34.0489C24.3395 34.2266 24.2482 34.391 24.1268 34.5319C24.0054 34.6728 23.8563 34.7872 23.6889 34.8681C23.5216 34.9489 23.3394 34.9944 23.1537 35.0018C22.9605 35.0078 22.7689 34.9651 22.5964 34.8776C22.424 34.7901 22.2763 34.6605 22.167 34.5009V35.6906H21.4886L21.4578 31.9963ZM23.7396 33.4051C23.7643 33.1955 23.7077 32.9844 23.5815 32.8154C23.4552 32.6464 23.269 32.5325 23.0612 32.4972H22.9687C22.8552 32.5002 22.7436 32.5266 22.6407 32.5746C22.5379 32.6227 22.446 32.6915 22.3708 32.7766C22.2956 32.8618 22.2387 32.9615 22.2036 33.0696C22.1686 33.1778 22.1561 33.292 22.167 33.4051V33.4051C22.1413 33.5104 22.1392 33.6201 22.1608 33.7264C22.1825 33.8326 22.2273 33.9327 22.2922 34.0195C22.357 34.1063 22.4403 34.1776 22.5359 34.2284C22.6315 34.2791 22.7372 34.308 22.8453 34.313C22.9505 34.338 23.0598 34.3392 23.1655 34.3164C23.2711 34.2937 23.3704 34.2477 23.456 34.1817C23.5417 34.1158 23.6116 34.0315 23.6606 33.9351C23.7097 33.8386 23.7366 33.7325 23.7395 33.6243V33.4051" fill="#201600"/>
<path d="M24.9113 33.4051C24.914 33.0109 25.0701 32.6333 25.3466 32.3526C25.623 32.0719 25.9978 31.9104 26.3913 31.9023C26.5813 31.8958 26.7706 31.9273 26.9483 31.9949C27.126 32.0625 27.2885 32.1648 27.4262 32.296C27.564 32.4271 27.6743 32.5844 27.7507 32.7587C27.8272 32.933 27.8682 33.1208 27.8714 33.3112V33.4051C27.8687 33.7993 27.7125 34.1769 27.4361 34.4576C27.1597 34.7383 26.7848 34.8998 26.3913 34.9079C25.9995 34.8946 25.6277 34.7314 25.3524 34.4519C25.0771 34.1723 24.9192 33.7977 24.9113 33.4051V33.4051ZM27.2855 33.4051C27.2871 33.2865 27.2652 33.1687 27.2209 33.0586C27.1767 32.9486 27.1111 32.8484 27.0279 32.764C26.9447 32.6795 26.8456 32.6125 26.7363 32.5667C26.627 32.5209 26.5098 32.4974 26.3913 32.4974C26.2729 32.4974 26.1556 32.5209 26.0463 32.5667C25.9371 32.6125 25.8379 32.6795 25.7547 32.764C25.6716 32.8484 25.6059 32.9486 25.5617 33.0586C25.5175 33.1687 25.4955 33.2865 25.4971 33.4051V33.4051C25.4957 33.6442 25.589 33.8741 25.7567 34.0444C25.9243 34.2146 26.1526 34.3112 26.3913 34.313C26.5043 34.3226 26.6181 34.3087 26.7255 34.2723C26.8329 34.2358 26.9316 34.1776 27.0155 34.1012C27.0994 34.0248 27.1667 33.9319 27.2132 33.8283C27.2596 33.7247 27.2843 33.6126 27.2855 33.499V33.4051" fill="#201600"/>
<path d="M28.272 31.996H28.9816L29.4749 33.9063L30.1531 31.996H30.6464L31.356 33.9063L31.9418 31.996H32.5276L31.6336 34.9081H31.0471L30.3688 32.9044L29.7524 34.9081H29.1667L28.272 31.996Z" fill="#201600"/>
<path d="M32.9284 33.4051C32.9196 33.2148 32.9486 33.0247 33.0138 32.8457C33.079 32.6668 33.179 32.5026 33.3081 32.3628C33.4373 32.2229 33.5929 32.1102 33.7659 32.0311C33.9389 31.9521 34.1259 31.9083 34.316 31.9023V31.9023C34.5011 31.8976 34.6853 31.9309 34.857 32.0003C35.0288 32.0696 35.1845 32.1736 35.3145 32.3056C35.4446 32.4377 35.5462 32.595 35.6131 32.768C35.68 32.9409 35.7108 33.1258 35.7036 33.3112V33.5929H33.6376C33.6559 33.7895 33.7498 33.9712 33.8994 34.0998C34.049 34.2283 34.2426 34.2935 34.4393 34.2817C34.5872 34.2871 34.7347 34.2621 34.8725 34.2083C35.0104 34.1544 35.1358 34.0729 35.241 33.9686L35.6419 34.2817C35.4924 34.4426 35.3109 34.5704 35.1091 34.6567C34.9073 34.7429 34.6896 34.7859 34.4702 34.7826C34.1304 34.824 33.7877 34.7335 33.5124 34.5297C33.2372 34.326 33.0503 34.0244 32.9901 33.6869C32.9406 33.6017 32.919 33.5032 32.9284 33.4051V33.4051ZM34.9944 33.2173C35.0027 33.0214 34.9377 32.8294 34.8123 32.6789C34.6869 32.5284 34.5099 32.4301 34.316 32.4033C34.2258 32.402 34.1363 32.4191 34.0528 32.4534C33.9693 32.4877 33.8936 32.5385 33.8303 32.6029C33.7669 32.6672 33.7172 32.7437 33.6841 32.8277C33.651 32.9118 33.6352 33.0017 33.6376 33.092V33.1859L34.9944 33.2173L34.9944 33.2173Z" fill="#201600"/>
<path d="M36.2894 31.9963H36.9678V32.5911C37.0518 32.3956 37.1888 32.2275 37.3631 32.1058C37.5375 31.9841 37.7423 31.9136 37.9545 31.9023V32.5911C37.8222 32.5851 37.69 32.6069 37.5667 32.6553C37.4433 32.7037 37.3315 32.7775 37.2385 32.872C37.1454 32.9665 37.0732 33.0795 37.0266 33.2037C36.98 33.3279 36.96 33.4605 36.9678 33.593V34.7826H36.2894V31.9963Z" fill="#201600"/>
<path d="M38.3553 33.4051C38.3464 33.2148 38.3754 33.0247 38.4406 32.8457C38.5058 32.6668 38.6059 32.5026 38.735 32.3628C38.8641 32.2229 39.0197 32.1102 39.1928 32.0311C39.3658 31.9521 39.5528 31.9083 39.7429 31.9023V31.9023C39.928 31.8976 40.1121 31.9309 40.2839 32.0003C40.4556 32.0696 40.6113 32.1736 40.7414 32.3056C40.8714 32.4377 40.9731 32.595 41.04 32.768C41.1069 32.9409 41.1377 33.1258 41.1304 33.3112V33.5929H39.0645C39.0828 33.7895 39.1766 33.9712 39.3262 34.0998C39.4758 34.2283 39.6695 34.2935 39.8662 34.2817C40.0141 34.2871 40.1615 34.2621 40.2994 34.2083C40.4373 34.1544 40.5627 34.0729 40.6679 33.9686L41.0688 34.2817C40.9193 34.4426 40.7378 34.5704 40.536 34.6567C40.3341 34.7429 40.1165 34.7859 39.897 34.7826C39.5573 34.824 39.2146 34.7335 38.9393 34.5297C38.6641 34.326 38.4772 34.0244 38.417 33.6869C38.3675 33.6017 38.3459 33.5032 38.3553 33.4051L38.3553 33.4051ZM40.4212 33.2173C40.4295 33.0214 40.3646 32.8294 40.2392 32.6789C40.1137 32.5284 39.9368 32.4301 39.7429 32.4033C39.6527 32.402 39.5631 32.4191 39.4797 32.4534C39.3962 32.4877 39.3205 32.5385 39.2572 32.6029C39.1938 32.6672 39.1441 32.7437 39.111 32.8277C39.0779 32.9118 39.0621 33.0017 39.0645 33.092V33.1859L40.4212 33.2173L40.4212 33.2173Z" fill="#201600"/>
<path d="M41.6239 33.405C41.5799 33.0642 41.667 32.7193 41.8673 32.4403C42.0677 32.1613 42.3665 31.9689 42.7031 31.9023H42.8881C43.0813 31.8962 43.2729 31.9389 43.4453 32.0265C43.6177 32.114 43.7654 32.2435 43.8748 32.4032V30.9004H44.5532V34.9078H43.8748V34.4069C43.7654 34.5665 43.6177 34.6961 43.4453 34.7836C43.2729 34.8711 43.0813 34.9138 42.8881 34.9078C42.5446 34.8982 42.2181 34.756 41.9768 34.511C41.7355 34.266 41.598 33.937 41.593 33.5929C41.6182 33.5337 41.6287 33.4692 41.6238 33.4051L41.6239 33.405ZM43.9056 33.4051C43.9304 33.1955 43.8738 32.9843 43.7475 32.8153C43.6213 32.6464 43.435 32.5324 43.2273 32.4971H43.1347C42.9394 32.491 42.7488 32.5582 42.6004 32.6857C42.4521 32.8132 42.3567 32.9916 42.333 33.1859V33.3737C42.3172 33.4779 42.3221 33.5841 42.3476 33.6863C42.373 33.7884 42.4185 33.8845 42.4813 33.969C42.5442 34.0534 42.6231 34.1245 42.7136 34.1781C42.8041 34.2318 42.9043 34.2668 43.0085 34.2814C43.1126 34.2959 43.2186 34.2895 43.3202 34.2627C43.4219 34.2358 43.5173 34.189 43.6007 34.125C43.6842 34.0609 43.7541 33.9809 43.8064 33.8896C43.8588 33.7982 43.8925 33.6974 43.9056 33.5929V33.405" fill="#201600"/>
<path d="M47.5441 34.4069V34.8139H46.9583V30.8065H47.6366V32.4032C47.746 32.2436 47.8937 32.114 48.0661 32.0265C48.2385 31.939 48.4302 31.8962 48.6234 31.9023C48.9668 31.9119 49.2933 32.0541 49.5346 32.2991C49.776 32.5441 49.9135 32.873 49.9184 33.2172V33.405C49.9382 33.5901 49.9199 33.7773 49.8645 33.9549C49.8091 34.1326 49.7179 34.297 49.5965 34.4379C49.475 34.5788 49.326 34.6932 49.1586 34.7741C48.9912 34.8549 48.809 34.9004 48.6234 34.9078C48.4137 34.9502 48.1959 34.9245 48.0018 34.8344C47.8077 34.7443 47.6474 34.5945 47.5441 34.4069L47.5441 34.4069ZM49.2401 33.405C49.2648 33.1954 49.2082 32.9843 49.082 32.8153C48.9557 32.6463 48.7694 32.5324 48.5617 32.4971H48.4692C48.3557 32.5001 48.2441 32.5265 48.1412 32.5745C48.0383 32.6226 47.9465 32.6914 47.8713 32.7765C47.7961 32.8617 47.7392 32.9614 47.7041 33.0695C47.669 33.1777 47.6566 33.2919 47.6674 33.405V33.405C47.6516 33.5091 47.6565 33.6154 47.682 33.7175C47.7074 33.8197 47.7529 33.9158 47.8157 34.0003C47.8786 34.0847 47.9575 34.1558 48.048 34.2094C48.1385 34.263 48.2387 34.2981 48.3429 34.3126C48.447 34.3272 48.553 34.3208 48.6547 34.294C48.7563 34.2671 48.8517 34.2203 48.9351 34.1563C49.0186 34.0922 49.0885 34.0122 49.1409 33.9209C49.1932 33.8295 49.2269 33.7287 49.24 33.6242V33.405" fill="#201600"/>
<path d="M50.3192 35.5966L50.5042 35.0957C50.6237 35.1707 50.7647 35.2038 50.905 35.1896C50.997 35.1892 51.0862 35.1582 51.1587 35.1016C51.2313 35.0449 51.283 34.9658 51.3059 34.8766L50.1342 31.965H50.8125L51.6143 34.0626L52.2926 31.965H52.971L51.8918 34.8766C51.8745 35.1009 51.7723 35.3102 51.6061 35.4615C51.4399 35.6128 51.2222 35.6948 50.9976 35.6906C50.7673 35.737 50.5282 35.7039 50.3192 35.5967" fill="#201600"/>
<path d="M57.0156 33.9335C57.0156 34.2482 56.9032 34.4936 56.6783 34.6697C56.4535 34.8458 56.1483 34.9339 55.7629 34.9339C55.3454 34.9339 55.0242 34.8793 54.7993 34.77V34.3689C54.9439 34.4308 55.1012 34.4798 55.2715 34.5156C55.4417 34.5515 55.6103 34.5694 55.7774 34.5694C56.0504 34.5694 56.2559 34.5173 56.3941 34.4129C56.5322 34.3069 56.6012 34.1602 56.6012 33.9726C56.6012 33.8487 56.5763 33.7476 56.5266 33.6693C56.4784 33.5894 56.3965 33.5161 56.2808 33.4492C56.1668 33.3824 55.9926 33.3065 55.7581 33.2217C55.4305 33.1027 55.196 32.9617 55.0547 32.7986C54.9149 32.6355 54.8451 32.4228 54.8451 32.1602C54.8451 31.8847 54.9471 31.6653 55.151 31.5023C55.355 31.3392 55.6248 31.2577 55.9604 31.2577C56.3106 31.2577 56.6326 31.3229 56.9264 31.4534L56.7988 31.8154C56.5081 31.6914 56.2254 31.6295 55.9508 31.6295C55.734 31.6295 55.5646 31.6768 55.4425 31.7713C55.3205 31.8659 55.2594 31.9972 55.2594 32.1651C55.2594 32.289 55.2819 32.391 55.3269 32.4709C55.3719 32.5491 55.4473 32.6217 55.5533 32.6885C55.6609 32.7538 55.8247 32.8263 56.0448 32.9062C56.4141 33.0399 56.6679 33.1834 56.806 33.3367C56.9457 33.49 57.0156 33.6889 57.0156 33.9335Z" fill="#201600"/>
<path d="M57.2565 32.2043H57.6853L58.2634 33.7329C58.3903 34.0819 58.469 34.3338 58.4995 34.4887H58.5188C58.5397 34.4056 58.583 34.2637 58.6489 34.0631C58.7163 33.8609 58.9347 33.2413 59.3041 32.2043H59.7329L58.5983 35.2567C58.4859 35.5584 58.3542 35.772 58.2032 35.8976C58.0539 36.0247 57.87 36.0883 57.6516 36.0883C57.5295 36.0883 57.409 36.0745 57.2902 36.0468V35.7215C57.3785 35.741 57.4773 35.7508 57.5865 35.7508C57.8611 35.7508 58.0571 35.5943 58.1743 35.2812L58.3213 34.8996L57.2565 32.2043Z" fill="#201600"/>
<path d="M63.5271 34.885V33.141C63.5271 32.9274 63.4821 32.7676 63.3922 32.6616C63.3022 32.554 63.1625 32.5002 62.973 32.5002C62.7241 32.5002 62.5402 32.5728 62.4213 32.7179C62.3025 32.863 62.2431 33.0864 62.2431 33.3881V34.885H61.8432V33.141C61.8432 32.9274 61.7982 32.7676 61.7083 32.6616C61.6183 32.554 61.4778 32.5002 61.2867 32.5002C61.0362 32.5002 60.8523 32.5768 60.7351 32.7301C60.6194 32.8818 60.5616 33.1312 60.5616 33.4786V34.885H60.1617V32.2043H60.4869L60.552 32.5711H60.5712C60.6467 32.4407 60.7527 32.3388 60.8892 32.2654C61.0273 32.192 61.1815 32.1553 61.3518 32.1553C61.7645 32.1553 62.0343 32.307 62.1612 32.6103H62.1804C62.2591 32.47 62.3732 32.3592 62.5225 32.2776C62.6719 32.1961 62.8421 32.1553 63.0332 32.1553C63.3319 32.1553 63.5552 32.2336 63.7029 32.3901C63.8523 32.545 63.927 32.7937 63.927 33.1361V34.885H63.5271Z" fill="#201600"/>
<path d="M66.3769 34.885L66.2974 34.5034H66.2781C66.1464 34.6713 66.0147 34.7855 65.8831 34.8458C65.753 34.9045 65.59 34.9339 65.394 34.9339C65.1323 34.9339 64.9267 34.8654 64.7773 34.7284C64.6296 34.5914 64.5557 34.3966 64.5557 34.1439C64.5557 33.6025 64.9821 33.3188 65.8349 33.2927L66.2829 33.278V33.1117C66.2829 32.9013 66.238 32.7464 66.148 32.647C66.0597 32.5459 65.9176 32.4953 65.7217 32.4953C65.5016 32.4953 65.2527 32.5638 64.9749 32.7008L64.852 32.3901C64.9821 32.3184 65.1242 32.2621 65.2784 32.2214C65.4342 32.1806 65.59 32.1602 65.7457 32.1602C66.0605 32.1602 66.2934 32.2312 66.4443 32.373C66.5969 32.5149 66.6732 32.7424 66.6732 33.0554V34.885H66.3769ZM65.4735 34.5988C65.7225 34.5988 65.9176 34.5295 66.0589 34.3909C66.2018 34.2523 66.2733 34.0582 66.2733 33.8088V33.5666L65.8734 33.5837C65.5554 33.5952 65.3258 33.6457 65.1844 33.7354C65.0447 33.8234 64.9749 33.9612 64.9749 34.1487C64.9749 34.2955 65.0182 34.4072 65.105 34.4838C65.1933 34.5605 65.3161 34.5988 65.4735 34.5988Z" fill="#201600"/>
<path d="M69.3062 34.885V33.1508C69.3062 32.9323 69.2572 32.7693 69.1593 32.6616C69.0613 32.554 68.9079 32.5002 68.6992 32.5002C68.4229 32.5002 68.2206 32.576 68.0921 32.7277C67.9636 32.8793 67.8994 33.1296 67.8994 33.4786V34.885H67.4995V32.2043H67.8247L67.8897 32.5711H67.909C67.9909 32.4391 68.1057 32.3371 68.2535 32.2654C68.4012 32.192 68.5659 32.1553 68.7473 32.1553C69.0653 32.1553 69.3046 32.2336 69.4652 32.3901C69.6258 32.545 69.7061 32.7937 69.7061 33.1361V34.885H69.3062Z" fill="#201600"/>
<path d="M71.3828 34.5988C71.4534 34.5988 71.5217 34.5939 71.5875 34.5841C71.6534 34.5727 71.7056 34.5613 71.7441 34.5499V34.8605C71.7008 34.8817 71.6365 34.8988 71.5514 34.9119C71.4679 34.9265 71.3924 34.9339 71.325 34.9339C70.8142 34.9339 70.5589 34.6607 70.5589 34.1145V32.5198H70.1807V32.3241L70.5589 32.1553L70.7275 31.583H70.9588V32.2043H71.7248V32.5198H70.9588V34.0974C70.9588 34.2588 70.9965 34.3827 71.072 34.4692C71.1475 34.5556 71.2511 34.5988 71.3828 34.5988Z" fill="#201600"/>
<path d="M73.3894 34.9339C72.9992 34.9339 72.6908 34.8132 72.4644 34.5719C72.2396 34.3306 72.1271 33.9955 72.1271 33.5666C72.1271 33.1345 72.2315 32.7913 72.4403 32.5369C72.6507 32.2825 72.9325 32.1553 73.2859 32.1553C73.6167 32.1553 73.8785 32.2662 74.0712 32.488C74.2639 32.7081 74.3603 32.9992 74.3603 33.3612V33.618H72.5415C72.5495 33.9327 72.6274 34.1716 72.7752 34.3346C72.9245 34.4977 73.1341 34.5792 73.4039 34.5792C73.6882 34.5792 73.9692 34.5189 74.247 34.3982V34.7602C74.1057 34.8222 73.9716 34.8662 73.8447 34.8923C73.7195 34.92 73.5677 34.9339 73.3894 34.9339ZM73.281 32.4953C73.0691 32.4953 72.8996 32.5654 72.7727 32.7057C72.6475 32.8459 72.5736 33.0399 72.5511 33.2878H73.9315C73.9315 33.0318 73.8753 32.8361 73.7628 32.7008C73.6504 32.5638 73.4898 32.4953 73.281 32.4953Z" fill="#201600"/>
<path d="M76.0996 34.9339C75.7173 34.9339 75.421 34.8148 75.2106 34.5768C75.0019 34.3371 74.8975 33.9987 74.8975 33.5617C74.8975 33.1133 75.0035 32.7668 75.2155 32.5222C75.4291 32.2776 75.7326 32.1553 76.1261 32.1553C76.2529 32.1553 76.3798 32.1692 76.5067 32.1969C76.6335 32.2246 76.7331 32.2572 76.8054 32.2948L76.6825 32.6396C76.5942 32.6037 76.4978 32.5744 76.3935 32.5516C76.2891 32.5271 76.1967 32.5149 76.1164 32.5149C75.58 32.5149 75.3118 32.8622 75.3118 33.5568C75.3118 33.8862 75.3769 34.139 75.5069 34.3151C75.6386 34.4912 75.833 34.5792 76.0899 34.5792C76.3099 34.5792 76.5356 34.5311 76.7668 34.4349V34.7945C76.5902 34.8874 76.3678 34.9339 76.0996 34.9339Z" fill="#201600"/>
</g>
<defs>
<clipPath id="clip0">
<rect width="65" height="36" fill="white" transform="translate(16)"/>
</clipPath>
</defs>
</svg>
