<svg xmlns="http://www.w3.org/2000/svg" xmlns:xlink="http://www.w3.org/1999/xlink" viewBox="0 0 317.5 126"><defs><style>.cls-1{fill:#fff;}.cls-2{fill:url(#grad_7);}.cls-3{fill:url(#grad_2);}.cls-4{fill:url(#grad_3);}.cls-5{fill:url(#grad_6);}.cls-6{fill:url(#grad_5);}.cls-7{fill:#6a3736;}.cls-8{fill:url(#grad_6-2);}.cls-10,.cls-9{fill:#333;stroke:#333;stroke-miterlimit:10;}.cls-9{stroke-width:0.5px;}</style><linearGradient id="grad_7" x1="184.86" y1="44.29" x2="227.38" y2="-34.85" gradientTransform="translate(-60.57 75.62)" gradientUnits="userSpaceOnUse"><stop offset="0" stop-color="#636465"/><stop offset="0.03" stop-color="#676869"/><stop offset="0.27" stop-color="#828384"/><stop offset="0.51" stop-color="#969798"/><stop offset="0.75" stop-color="#a1a2a3"/><stop offset="1" stop-color="#a5a6a7"/></linearGradient><linearGradient id="grad_2" x1="224.95" y1="21.6" x2="170.07" y2="-14.73" gradientTransform="translate(-60.57 75.62)" gradientUnits="userSpaceOnUse"><stop offset="0" stop-color="#c4c5c6"/><stop offset="0.1" stop-color="#dcdddd"/><stop offset="0.21" stop-color="#f0f0f0"/><stop offset="0.32" stop-color="#fbfbfb"/><stop offset="0.7" stop-color="#dfdfe0"/><stop offset="0.91" stop-color="#b9babb"/><stop offset="1" stop-color="#a5a6a7"/></linearGradient><linearGradient id="grad_3" x1="238.83" y1="31.91" x2="180.93" y2="-7.28" gradientTransform="translate(-60.57 75.62)" gradientUnits="userSpaceOnUse"><stop offset="0" stop-color="#4c4c4e"/><stop offset="0.22" stop-color="#636365"/><stop offset="0.47" stop-color="#767778"/><stop offset="0.73" stop-color="#818283"/><stop offset="1" stop-color="#858687"/></linearGradient><linearGradient id="grad_6" x1="182.64" y1="29.24" x2="232.17" y2="-6.09" gradientTransform="translate(-60.57 75.62)" gradientUnits="userSpaceOnUse"><stop offset="0" stop-color="#6a3736"/><stop offset="0.61" stop-color="#b24e51"/><stop offset="0.71" stop-color="#ac0335"/><stop offset="1" stop-color="#6b3f4e"/></linearGradient><radialGradient id="grad_5" cx="200.25" cy="3.65" r="52.63" gradientTransform="translate(-60.57 75.62)" gradientUnits="userSpaceOnUse"><stop offset="0" stop-color="#b24e51"/><stop offset="0.46" stop-color="#ac0335"/><stop offset="1" stop-color="#6b3f4e"/></radialGradient><linearGradient id="grad_6-2" x1="168.32" y1="-4.75" x2="212.13" y2="45.75" xlink:href="#grad_6"/></defs><title>ssl</title><rect class="cls-1" width="317.5" height="126" rx="3.03" ry="3.03"/><path class="cls-2" d="M147.66,137s-44.36-15-39.37-76.91a165.65,165.65,0,0,1,39.37-5.51A165.65,165.65,0,0,1,187,60.05C192.28,121.74,147.66,137,147.66,137Z" transform="translate(-46.59 -33.55)"/><path class="cls-3" d="M147.66,137s-44.36-15-39.37-76.91a165.65,165.65,0,0,1,39.37-5.51A165.65,165.65,0,0,1,187,60.05l-3.94,3.67L147.66,133V137h0Z" transform="translate(-46.59 -33.55)"/><path class="cls-1" d="M147.66,133S107.5,119.37,112,63.46a148.24,148.24,0,0,1,35.7-5,148.24,148.24,0,0,1,35.7,5C188.08,119.37,147.66,133,147.66,133Z" transform="translate(-46.59 -33.55)"/><path class="cls-4" d="M112,62.94h0l-0.26.52c-2.36,29.14,7.61,46.46,16.27,56.43a50,50,0,0,0,19.69,13.91h0.52a55.91,55.91,0,0,0,19.95-13.91c8.66-9.45,18.64-27,16.27-56.17V63.2h-0.26A142.47,142.47,0,0,0,147.66,58,148.24,148.24,0,0,0,112,62.94Zm36.22-4.2a155.6,155.6,0,0,1,34.91,5c0.26,2.89.26,6,.26,8.66,0,23.62-8.66,38.32-16.54,46.72a52.35,52.35,0,0,1-19.16,13.65,55.59,55.59,0,0,1-19.42-13.65C120.62,110.71,112,96,112,72.39c0-2.62.26-6,.52-8.66A180,180,0,0,1,148.19,58.74Z" transform="translate(-46.59 -33.55)"/><path class="cls-5" d="M147.66,126.2s-33.6-12.34-29.92-59.06c0,0,15,1.31,29.92,1.31a285.29,285.29,0,0,0,29.92-1.31C181.52,113.86,147.66,126.2,147.66,126.2Z" transform="translate(-46.59 -33.55)"/><path class="cls-6" d="M147.92,122s-29.14-10.76-25.72-51.18c0,0,12.86,1,25.72,1s25.46-1,26-1C177.06,111.5,147.92,122,147.92,122Z" transform="translate(-46.59 -33.55)"/><path class="cls-7" d="M177.85,66.88a290.3,290.3,0,0,1-30.19,1.31c-15,0-29.92-1.31-29.92-1.31l4.2,3.94s12.86,1,25.72,1,25.46-1,26-1Z" transform="translate(-46.59 -33.55)"/><path class="cls-8" d="M147.66,126.2s-33.6-12.34-29.92-59.06l4.2,3.94c-3.41,40.42,25.72,51.18,25.72,51.18v3.94h0Z" transform="translate(-46.59 -33.55)"/><polygon class="cls-1" points="125.48 43.04 104.74 79.79 95.29 79.79 84.01 55.38 93.72 55.38 100.28 71.39 116.55 43.04 125.48 43.04"/><path class="cls-9" d="M204.36,112.81a10.88,10.88,0,0,0-4.2-.79,3.34,3.34,0,0,0-3.94,2.62v0.26c0,4.46,10,3.41,10,11,0,5-3.67,6.82-8.4,6.82a14.86,14.86,0,0,1-4.72-.79l0.26-2.89a10.65,10.65,0,0,0,5,1,4.28,4.28,0,0,0,4.46-3.67c0-5.25-10-3.67-10-11,0-4.2,3.41-6.3,7.35-6.3a11.37,11.37,0,0,1,5,1Z" transform="translate(-46.59 -33.55)"/><path class="cls-9" d="M210.66,109.4h12.86V112h-9.45v6.82h8.66v2.89h-8.66v7.61h9.45v2.89H210.39V109.4h0.26Z" transform="translate(-46.59 -33.55)"/><path class="cls-9" d="M243.73,113.07a9.82,9.82,0,0,0-4.72-1.31,9.08,9.08,0,0,0-8.66,9.45,9.28,9.28,0,0,0,8.4,8.66,15.35,15.35,0,0,0,5-1L244,132a9,9,0,0,1-5.25,1,11.07,11.07,0,0,1-12.07-10.5v-1.57a11.67,11.67,0,0,1,11-12.07h1a10.65,10.65,0,0,1,5,1v3.15Z" transform="translate(-46.59 -33.55)"/><path class="cls-9" d="M264.47,122.79c0,6.56-3.41,10-8.92,10s-8.66-3.41-8.66-10V109.14h3.41v13.12c0,4.46,1.31,7.61,5.51,7.61s5.51-2.89,5.51-7.61V109.14h3.41v13.65h-0.26Z" transform="translate(-46.59 -33.55)"/><path class="cls-9" d="M270,109.4h5.51c4.72,0,8.92.79,8.92,6.3a5.37,5.37,0,0,1-4.72,5.25h0a3.2,3.2,0,0,1,2.1,2.36l4.46,9.19h-3.67l-3.41-7.87a3.22,3.22,0,0,0-3.67-2.1h-2.36v10.24H270V109.4Zm3.15,9.71H276c3.15,0,5-1.31,5-3.67s-1.57-3.41-4.72-3.41h-3.15v7.09h0Z" transform="translate(-46.59 -33.55)"/><path class="cls-9" d="M289.93,109.4h12.86V112h-9.45v6.82H302v2.89h-8.66v7.61h9.45v2.89H289.93V109.4h0Z" transform="translate(-46.59 -33.55)"/><path class="cls-10" d="M255.54,68.45a15.31,15.31,0,0,0-6.82-1.57c-2.89,0-6.3,1-6.3,4.72,0,7.09,16,5.51,16,17.59,0,8.14-6,11-13.39,11a33.24,33.24,0,0,1-7.35-1.57L238,93.91a20.34,20.34,0,0,0,7.87,1.84c2.89,0,7.09-1.84,7.09-5.77,0-8.4-16-5.77-16-17.59,0-6.56,5.25-10,11.81-10A21.06,21.06,0,0,1,256.59,64Z" transform="translate(-46.59 -33.55)"/><path class="cls-10" d="M227.72,68.45a15.31,15.31,0,0,0-6.82-1.57c-2.89,0-6.3,1-6.3,4.72,0,7.09,16,5.51,16,17.59,0,8.14-6,11-13.39,11a33.24,33.24,0,0,1-7.35-1.57l0.26-4.72A20.34,20.34,0,0,0,218,95.75c2.89,0,7.09-1.84,7.09-5.77,0-8.4-16-5.77-16-17.59,0-6.56,5.25-10,11.81-10A21.06,21.06,0,0,1,228.77,64Z" transform="translate(-46.59 -33.55)"/><path class="cls-10" d="M265.25,62.94l5-.52V95.49h15v4.46H265.25v-37Z" transform="translate(-46.59 -33.55)"/></svg>