<svg xmlns="http://www.w3.org/2000/svg" viewBox="0 0 314.39459 378.6567">
  <defs>
    <style>
      .cls-1 {
        isolation: isolate;
      }

      .cls-2, .cls-6 {
        fill: #bddbff;
      }

      .cls-2, .cls-4, .cls-7 {
        mix-blend-mode: multiply;
      }

      .cls-3, .cls-4 {
        fill: #ffb347;
      }

      .cls-5 {
        fill: #f9f6f2;
      }

      .cls-7 {
        fill: #eae3da;
      }

      .cls-8 {
        fill: #60c967;
      }
    </style>
  </defs>
  <title>s</title>
  <g class="cls-1">
    <g id="Layer_3" data-name="Layer 3">
      <g>
        <g>
          <ellipse class="cls-2" cx="157.1968" cy="369.96337" rx="157.19729" ry="8.69335"/>
          <g>
            <g>
              <path class="cls-3" d="M385.94039,415.5898a16.45546,16.45546,0,0,1-16.4716,16.4375l-239.01369-.082a16.45385,16.45385,0,0,1-16.4512-16.4648l0.063-150.336a16.44119,16.44119,0,0,1,16.458-16.4526l239.0161,0.085a16.45691,16.45691,0,0,1,16.45309,16.4692Z" transform="translate(-92.8027 -60.6714)"/>
              <path class="cls-3" d="M381.627,252.3574c0,12.1865-3.05771,28.2696-12.14561,28.2696l-239.01359-.0801c-9.086.0039-11.5943-16.086-11.5899-28.2813l120.4287-105.5298s7.7168-7.6425,12.4063-7.6469c5.2432-.0044,12.8447,7.6591,12.8447,7.6591Z" transform="translate(-92.8027 -60.6714)"/>
              <path class="cls-4" d="M381.627,252.3574c0,12.1865-3.05771,28.2696-12.14561,28.2696l-239.01359-.0801c-9.086.0039-11.5943-16.086-11.5899-28.2813l120.4287-105.5298s7.7168-7.6425,12.4063-7.6469c5.2432-.0044,12.8447,7.6591,12.8447,7.6591Z" transform="translate(-92.8027 -60.6714)"/>
              <path class="cls-5" d="M360.79,383.293a15.11018,15.11018,0,0,1-15.09571,15.0918l-191.4897-.0801a15.07945,15.07945,0,0,1-15.0791-15.0918l0.0742-209.4531a15.08818,15.08818,0,0,1,15.0918-15.0762l191.4956,0.0762a15.08129,15.08129,0,0,1,15.0811,15.084Z" transform="translate(-92.8027 -60.6714)"/>
              <path class="cls-6" d="M379.23729,411.9473a15.87346,15.87346,0,0,1-15.6465,16.0761l-227.19529-.0898a15.85908,15.85908,0,0,1-15.6372-16.084l119.0776-81.4219s7.1387-5.623,11.5996-5.6113c4.97951-.0059,11.3291,4.9336,11.3291,4.9336Z" transform="translate(-92.8027 -60.6714)"/>
              <path class="cls-6" d="M385.94039,415.5898a16.45546,16.45546,0,0,1-16.4716,16.4375l-239.01369-.082a16.45385,16.45385,0,0,1-16.4512-16.4648l0.063-150.336c-0.0068-9.0976,3.7368-11.6953,5.8086-13.0918l119.3989,74.3282s9.1885,5.875,13.751,5.875c6.63961,0,14.1855-5.4571,14.1855-5.4571l113.0918-74.9179c1.5049,3.5644,5.7071,4.2754,5.6914,13.3652Z" transform="translate(-92.8027 -60.6714)"/>
              <path class="cls-3" d="M385.94039,415.5898a16.45546,16.45546,0,0,1-16.4716,16.4375l-239.01369-.082a16.45385,16.45385,0,0,1-16.4512-16.4648l0.063-150.336c-0.0068-9.0976,3.2646-11.4746,5.7344-13.707l119.477,80.7324s7.1338,4.9571,11.7051,4.9571c4.5635,0.0039,12.4238-5.67,12.4238-5.67l117.3721-79.8769c2.3369,2.1084,5.2305,4.5762,5.2148,13.666Z" transform="translate(-92.8027 -60.6714)"/>
              <path class="cls-4" d="M385.96289,413.2539c-0.00489,9.0899-2.0205,16.1074-11.1113,16.1055l-239.00779-.084c-9.0962-.0059-21.8218-6.0391-21.8101-15.127l121.2534-84.6621s12.4942,8.9844,17.0645,8.9785c4.56341,0,15.10541-9.6796,15.10541-9.6796Z" transform="translate(-92.8027 -60.6714)"/>
              <path class="cls-3" d="M385.96389,415.5898a16.45257,16.45257,0,0,1-16.4668,16.4375l-239.01569-.082a16.45594,16.45594,0,0,1-16.4511-16.4648l125.2763-83.3106s7.5127-5.7519,12.2022-5.7558c5.2451-.002,11.9297,5.0429,11.9297,5.0429Z" transform="translate(-92.8027 -60.6714)"/>
            </g>
            <path class="cls-7" d="M240.10639,179.856a8.01461,8.01461,0,0,1-8.0156,8.0146h-63.272a8.01446,8.01446,0,0,1-8.0146-8.0146h0a8.01427,8.01427,0,0,1,8.0146-8.0137h63.272a8.01442,8.01442,0,0,1,8.0156,8.0137h0Z" transform="translate(-92.8027 -60.6714)"/>
            <path class="cls-7" d="M339.61229,179.856a8.01589,8.01589,0,0,1-8.0156,8.0146H312.04a8.012,8.012,0,0,1-8.01461-8.0146h0a8.01177,8.01177,0,0,1,8.01461-8.0137h19.55669a8.0157,8.0157,0,0,1,8.0156,8.0137h0Z" transform="translate(-92.8027 -60.6714)"/>
          </g>
          <path class="cls-6" d="M109.8213,180.6787a2.5166,2.5166,0,0,1-1.3955-.4233L105.0439,178a2.52089,2.52089,0,1,1,2.7955-4.1958l3.3823,2.2544A2.52161,2.52161,0,0,1,109.8213,180.6787Z" transform="translate(-92.8027 -60.6714)"/>
          <path class="cls-6" d="M101.8682,175.3765a2.50984,2.50984,0,0,1-1.396-.4239l-4.7569-3.1713a2.52132,2.52132,0,0,1,2.7969-4.1959l4.7568,3.1719A2.52141,2.52141,0,0,1,101.8682,175.3765Z" transform="translate(-92.8027 -60.6714)"/>
          <path class="cls-6" d="M144.1133,139.5933a2.51774,2.51774,0,0,1-2.0445-1.0435l-3.0156-4.167a2.52111,2.52111,0,0,1,4.0855-2.9551l3.0151,4.167A2.52111,2.52111,0,0,1,144.1133,139.5933Z" transform="translate(-92.8027 -60.6714)"/>
          <path class="cls-6" d="M136.4766,129.0415a2.51773,2.51773,0,0,1-2.0445-1.0435l-6.7217-9.2871a2.52117,2.52117,0,1,1,4.085-2.956l6.7222,9.2871A2.5216,2.5216,0,0,1,136.4766,129.0415Z" transform="translate(-92.8027 -60.6714)"/>
          <path class="cls-6" d="M196.0469,120.4233a2.52225,2.52225,0,0,1-2.3819-1.6953l-7.9257-22.854a2.52109,2.52109,0,0,1,4.7636-1.6528l7.9258,22.854A2.52339,2.52339,0,0,1,196.0469,120.4233Z" transform="translate(-92.8027 -60.6714)"/>
          <path class="cls-6" d="M184.125,86.0483a2.52177,2.52177,0,0,1-2.3813-1.6958l-2.2085-6.3657a2.52125,2.52125,0,0,1,4.7641-1.6523l2.2075,6.3657A2.5229,2.5229,0,0,1,184.125,86.0483Z" transform="translate(-92.8027 -60.6714)"/>
          <path class="cls-6" d="M390.082,180.6787a2.52176,2.52176,0,0,1-1.39941-4.6196l5.044-3.3623a2.52079,2.52079,0,0,1,2.7959,4.1953l-5.044,3.3628A2.5092,2.5092,0,0,1,390.082,180.6787Z" transform="translate(-92.8027 -60.6714)"/>
          <path class="cls-6" d="M399.66989,174.2871a2.52137,2.52137,0,0,1-1.3994-4.6191l3.1221-2.0826a2.52132,2.52132,0,0,1,2.7969,4.1959l-3.1231,2.0815A2.50657,2.50657,0,0,1,399.66989,174.2871Z" transform="translate(-92.8027 -60.6714)"/>
          <path class="cls-6" d="M355.791,139.5933a2.52141,2.52141,0,0,1-2.04-3.9986l3.50289-4.8398a2.52065,2.52065,0,1,1,4.083,2.957l-3.501,4.8379A2.51778,2.51778,0,0,1,355.791,139.5933Z" transform="translate(-92.8027 -60.6714)"/>
          <path class="cls-6" d="M363.07229,129.5317a2.521,2.521,0,0,1-2.0391-3.999l7.0762-9.7778a2.52113,2.52113,0,1,1,4.0849,2.956l-7.0771,9.7779A2.51622,2.51622,0,0,1,363.07229,129.5317Z" transform="translate(-92.8027 -60.6714)"/>
          <path class="cls-6" d="M303.85739,120.4233a2.52412,2.52412,0,0,1-2.3818-3.3481l7.793-22.4712a2.52086,2.52086,0,1,1,4.7636,1.6514l-7.792,22.4726A2.52378,2.52378,0,0,1,303.85739,120.4233Z" transform="translate(-92.8027 -60.6714)"/>
          <path class="cls-6" d="M315.60449,86.5532a2.52214,2.52214,0,0,1-2.3828-3.3481l2.3828-6.8716a2.52173,2.52173,0,0,1,4.7646,1.6538l-2.3837,6.8711A2.522,2.522,0,0,1,315.60449,86.5532Z" transform="translate(-92.8027 -60.6714)"/>
          <path class="cls-6" d="M249.90529,112.6074a2.52063,2.52063,0,0,1-2.5205-2.5215v-5.5996a2.5205,2.5205,0,1,1,5.041,0v5.5996A2.52063,2.52063,0,0,1,249.90529,112.6074Z" transform="translate(-92.8027 -60.6714)"/>
          <path class="cls-6" d="M249.90529,101.4077a2.5202,2.5202,0,0,1-2.5205-2.521V87.688a2.5205,2.5205,0,1,1,5.041,0V98.8867A2.5202,2.5202,0,0,1,249.90529,101.4077Z" transform="translate(-92.8027 -60.6714)"/>
          <path class="cls-6" d="M249.90529,81.52a2.5202,2.5202,0,0,1-2.5205-2.521V63.1929a2.5205,2.5205,0,1,1,5.041,0V78.999A2.5202,2.5202,0,0,1,249.90529,81.52Z" transform="translate(-92.8027 -60.6714)"/>
          <path class="cls-4" d="M380.77929,251.5801l-0.4766.3008c1.6016,12.0722,1.8047,135.6269,1.1328,158.1504-0.205,6.9179,1.6807,17.9921-22.5029,18.9648-15.6494.6289-218.33489,1.4687-237.33789,0.3457a16.37584,16.37584,0,0,0,8.8604,2.6035l239.01369,0.082a16.45546,16.45546,0,0,0,16.4716-16.4375l0.0537-150.3437C386.00979,256.1563,383.11619,253.6885,380.77929,251.5801Z" transform="translate(-92.8027 -60.6714)"/>
        </g>
        <g>
          <path class="cls-8" d="M248.13569,308.5a55.6792,55.6792,0,1,1,31.3135-101.7241l-7.3183,10.7441a42.6831,42.6831,0,1,0,18.6836,35.3003,42.99842,42.99842,0,0,0-1.0332-9.3862l12.6855-2.8428A55.72707,55.72707,0,0,1,248.13569,308.5Z" transform="translate(-92.8027 -60.6714)"/>
          <path class="cls-8" d="M250.165,272.0791a4.451,4.451,0,0,1-3.48631-1.4453l-25.8135-27.3872s-4.1479-4.9658.2696-9.3853c4.15621-4.1567,9.2954.3697,9.2954,0.3697L247.958,252.8262a4.072,4.072,0,0,0,2.51369,1.1465,3.63541,3.63541,0,0,0,2.5605-1.0957l48.4756-48.4761s4.74021-5.0337,9.4697-.6768c4.7491,4.3726-.1757,9.9717-0.1757,9.9717l-57.1143,57.1147A5.14425,5.14425,0,0,1,250.165,272.0791Z" transform="translate(-92.8027 -60.6714)"/>
        </g>
      </g>
    </g>
  </g>
</svg>
