<svg width="55" height="37" viewBox="0 0 55 37" fill="none" xmlns="http://www.w3.org/2000/svg">
<rect x="0.5" y="0.5" width="54" height="36" rx="1.5" fill="url(#paint0_linear)" stroke="#ACACAC"/>
<path d="M11.5523 28C11.5523 28 1.97407 24.6903 3.09054 11.2194C5.84947 10.4696 8.6916 10.0601 11.5523 10C14.4342 10.0366 17.2988 10.4466 20.0729 11.2194C21.1893 24.6903 11.5523 28 11.5523 28Z" fill="url(#paint1_linear)"/>
<path d="M11.5523 28C11.5523 28 1.97407 24.6903 3.09054 11.2194C5.84947 10.4696 8.6916 10.0601 11.5523 10C14.4342 10.0366 17.2988 10.4466 20.0729 11.2194L19.1914 12.0323L11.5523 27.129V28Z" fill="url(#paint2_linear)"/>
<path d="M11.5522 27.1292C11.5522 27.1292 2.85539 24.1679 3.85432 11.9743C6.36412 11.2928 8.94985 10.9222 11.5522 10.8711C14.1547 10.9205 16.7407 11.2911 19.2501 11.9743C20.249 24.1679 11.5522 27.1292 11.5522 27.1292Z" fill="white" stroke="#1F1E21" stroke-width="0.5145" stroke-linecap="round"/>
<path d="M11.5522 27.1292C11.5522 27.1292 2.85539 24.1679 3.85432 11.9743C6.36412 11.2928 8.94985 10.9222 11.5522 10.8711C14.1547 10.9205 16.7407 11.2911 19.2501 11.9743C20.249 24.1679 11.5522 27.1292 11.5522 27.1292Z" fill="white"/>
<path d="M3.85456 11.8591H3.79576V11.9172C3.26689 18.2462 5.44109 22.0784 7.32149 24.1688C8.49829 25.501 9.96476 26.553 11.6112 27.2462H11.7287C13.375 26.553 14.8415 25.501 16.0183 24.1688C17.8987 22.0784 20.0729 18.2462 19.5441 11.9172V11.8591H19.4853C16.8993 11.1591 14.2334 10.7884 11.5524 10.7559C8.95062 10.8133 6.36562 11.1837 3.85456 11.8591ZM11.6699 10.9301C14.2144 10.9796 16.7421 11.3504 19.1915 12.0333C19.2502 12.672 19.2502 13.3688 19.2502 13.9494C19.2502 19.0591 17.3698 22.3688 15.7245 24.1688C14.5859 25.4632 13.1573 26.4771 11.5524 27.1301C9.94749 26.4771 8.51889 25.4632 7.38029 24.1688C5.73489 22.3107 3.85456 19.1172 3.85456 13.9494C3.85456 13.3688 3.91329 12.672 3.97202 12.0333C6.48802 11.3815 9.07022 11.0115 11.6699 10.9301Z" fill="url(#paint3_linear)"/>
<path d="M11.5522 25.6183C11.5522 25.6183 4.26578 22.9473 5.08845 12.6699C5.08845 12.6699 8.26158 12.9022 11.5522 12.9022C14.843 12.9022 17.8986 12.6699 18.0161 12.6699C18.8388 22.9473 11.5522 25.6183 11.5522 25.6183Z" fill="url(#paint4_linear)"/>
<path d="M11.5524 24.748C11.5524 24.748 5.26483 22.4254 5.96996 13.5996C5.96996 13.5996 8.73183 13.8319 11.5524 13.8319C14.373 13.8319 17.076 13.5996 17.1348 13.5996C17.84 22.4254 11.5524 24.748 11.5524 24.748Z" fill="url(#paint5_radial)"/>
<path d="M18.0163 12.7285C17.8988 12.7285 14.7844 12.9608 11.5525 12.9608C8.32056 12.9608 5.08862 12.7285 5.08862 12.7285L5.97002 13.5994C5.97002 13.5994 8.73189 13.8317 11.5525 13.8317C14.3731 13.8317 17.0761 13.5994 17.1349 13.5994L18.0163 12.7285Z" fill="#771A29"/>
<path d="M11.5522 25.6183C11.5522 25.6183 4.26578 22.9473 5.08845 12.6699L5.96985 13.5409C5.26471 22.3667 11.5522 24.6893 11.5522 24.6893V25.6183Z" fill="url(#paint6_linear)"/>
<path d="M7.67407 21.2071L8.67301 14.3555H10.4359L12.5513 21.2071H10.7297L9.78954 17.6651L9.26067 21.2071H7.67407Z" fill="white"/>
<path d="M12.7864 14.3555H14.4904L15.4894 21.2071H13.8441L13.3152 17.6651L12.6688 20.4522L11.7874 17.6651L12.7864 14.3555Z" fill="white"/>
<path d="M26.3606 17.6646H25.009L23.7162 14.3549L23.2462 17.6646H21.7771L22.7173 11.5098H24.1276L26.3606 17.6646ZM25.4204 14.5291L26.5368 11.5098H28.0059L28.8286 17.6646H27.3595L26.9482 14.3549L26.1255 16.3291L25.4204 14.5291Z" fill="#1F1E21"/>
<path d="M34.3521 16.6194L33.9995 17.6646H32.5305L34.5872 11.5098H36.115L38.1129 17.6646H36.6438L36.2912 16.6194H34.3521ZM35.2923 13.4259L34.7047 15.4001H35.8799L35.2923 13.4259Z" fill="#1F1E21"/>
<path d="M45.3994 15.8058H42.5788C42.5594 15.9223 42.5662 16.0415 42.5989 16.1551C42.6316 16.2686 42.6894 16.3735 42.7681 16.4623C42.8468 16.5512 42.9444 16.6217 43.0539 16.6688C43.1634 16.7159 43.2821 16.7385 43.4015 16.7348C43.5394 16.7458 43.677 16.7121 43.7937 16.6387C43.9103 16.5653 43.9996 16.4564 44.0479 16.3284H45.3407C45.2594 16.7726 45.0065 17.1681 44.6355 17.4316C44.2691 17.6679 43.839 17.7893 43.4015 17.78C43.106 17.7987 42.8099 17.7539 42.5336 17.6488C42.2572 17.5437 42.0071 17.3807 41.8006 17.1711C41.594 16.9615 41.4358 16.7101 41.3369 16.4344C41.2379 16.1586 41.2005 15.8649 41.2273 15.5735C41.1991 15.2868 41.2336 14.9974 41.3284 14.7249C41.4231 14.4525 41.5758 14.2033 41.7763 13.9941C41.9769 13.785 42.2204 13.6208 42.4907 13.5126C42.7609 13.4045 43.0515 13.3548 43.3428 13.3671C44.6355 13.3671 45.3994 14.2381 45.3994 15.6897V15.8058ZM44.1654 14.9929C44.1559 14.8855 44.1225 14.7817 44.0676 14.6885C44.0126 14.5955 43.9376 14.5155 43.8477 14.4545C43.7578 14.3935 43.6554 14.3528 43.5478 14.3355C43.4402 14.3181 43.33 14.3245 43.2252 14.3542C43.0612 14.3751 42.9088 14.4491 42.7918 14.5647C42.6749 14.6802 42.6 14.8308 42.5788 14.9929H44.1654Z" fill="#1F1E21"/>
<path d="M50.1003 15.8058H47.2797C47.2603 15.9223 47.2671 16.0415 47.2998 16.1551C47.3325 16.2686 47.3903 16.3735 47.469 16.4623C47.5477 16.5512 47.6453 16.6217 47.7547 16.6688C47.8643 16.7159 47.983 16.7385 48.1024 16.7348C48.2403 16.7458 48.3779 16.7121 48.4946 16.6387C48.6112 16.5653 48.7005 16.4564 48.7488 16.3284H50.0416C49.9603 16.7726 49.7074 17.1681 49.3364 17.4316C48.97 17.6679 48.5399 17.7893 48.1024 17.78C47.8069 17.7987 47.5108 17.7539 47.2345 17.6488C46.9581 17.5437 46.7081 17.3807 46.5015 17.1711C46.2949 16.9615 46.1367 16.7101 46.0378 16.4344C45.9388 16.1586 45.9015 15.8649 45.9282 15.5735C45.9001 15.2868 45.9345 14.9974 46.0293 14.7249C46.1239 14.4525 46.2767 14.2033 46.4773 13.9941C46.6777 13.785 46.9213 13.6208 47.1916 13.5126C47.4618 13.4045 47.7523 13.3548 48.0437 13.3671C49.3364 13.3671 50.1003 14.2381 50.1003 15.6897V15.8058ZM48.8076 14.9929C48.7981 14.8855 48.7647 14.7817 48.7097 14.6885C48.6548 14.5955 48.5797 14.5155 48.4899 14.4545C48.4 14.3935 48.2976 14.3528 48.19 14.3355C48.0823 14.3181 47.9722 14.3245 47.8674 14.3542C47.7033 14.3751 47.5509 14.4491 47.434 14.5647C47.3171 14.6802 47.2421 14.8308 47.221 14.9929H48.8076Z" fill="#1F1E21"/>
<path d="M50.2767 12.6721C50.2761 12.5347 50.3031 12.3985 50.3561 12.2715C50.409 12.1444 50.4869 12.029 50.5852 11.9318C50.6835 11.8346 50.8004 11.7577 50.929 11.7054C51.0576 11.653 51.1954 11.6264 51.3345 11.627C51.4705 11.6276 51.6049 11.6555 51.7297 11.709C51.8545 11.7625 51.967 11.8405 52.0604 11.9382C52.1538 12.0359 52.2262 12.1513 52.2731 12.2775C52.32 12.4036 52.3405 12.5379 52.3334 12.6721C52.334 12.8095 52.307 12.9457 52.2541 13.0727C52.2011 13.1998 52.1233 13.3153 52.0249 13.4125C51.9266 13.5096 51.8097 13.5866 51.6811 13.6389C51.5525 13.6912 51.4147 13.7179 51.2757 13.7173C51.0041 13.7061 50.7478 13.5906 50.5612 13.3954C50.3746 13.2001 50.2725 12.9406 50.2767 12.6721ZM50.453 12.6721C50.453 12.9031 50.5459 13.1247 50.7112 13.288C50.8765 13.4513 51.1007 13.5431 51.3345 13.5431C51.5682 13.5431 51.7924 13.4513 51.9577 13.288C52.123 13.1247 52.2159 12.9031 52.2159 12.6721C52.2102 12.4429 52.1155 12.2246 51.9515 12.0625C51.7873 11.9003 51.5665 11.8068 51.3345 11.8012C51.2181 11.799 51.1025 11.8201 50.9946 11.8631C50.8867 11.9061 50.7886 11.9702 50.7063 12.0515C50.6241 12.1328 50.5592 12.2296 50.5157 12.3363C50.4721 12.4429 50.4508 12.5572 50.453 12.6721ZM51.7458 13.2527H51.5695L51.2757 12.7302H51.0407V13.2527H50.8643V12.0915H51.3345C51.5695 12.0915 51.7458 12.1495 51.7458 12.3818C51.7432 12.464 51.7129 12.5429 51.6597 12.606C51.6064 12.6691 51.5333 12.7129 51.452 12.7302H51.3932L51.7458 13.2527ZM51.0407 12.2657V12.556H51.2169C51.3932 12.556 51.5695 12.556 51.5695 12.4399C51.5695 12.2657 51.452 12.2657 51.3345 12.2657H51.0407Z" fill="#1F1E21"/>
<path d="M38.583 14.5295H37.8191V13.4843H38.6418V13.0198C38.6418 11.8005 39.1706 11.3359 40.2284 11.3359C40.4634 11.3359 40.6984 11.394 40.9335 11.394L40.8748 12.3811C40.6984 12.3811 40.5222 12.323 40.4046 12.323C40.0521 12.323 39.9346 12.5553 39.9346 12.9617V13.4843H40.8748V14.4715H39.9346V17.6069H38.583V14.5295Z" fill="#1F1E21"/>
<path d="M24.8328 20.6268C24.4851 20.4612 24.102 20.3815 23.7162 20.3945C23.5996 20.3722 23.4796 20.3746 23.3639 20.4016C23.2483 20.4284 23.1398 20.4792 23.0454 20.5505C22.951 20.6218 22.873 20.712 22.8165 20.8152C22.7599 20.9184 22.7261 21.0323 22.7173 21.1494C22.7173 22.2526 25.2441 22.0203 25.2441 23.8784C25.2441 25.0978 24.3039 25.6203 23.0699 25.6203C22.6497 25.5993 22.2344 25.5212 21.8358 25.388L21.8946 24.6332C22.2908 24.7845 22.706 24.8822 23.1286 24.9236C23.4076 24.9464 23.6848 24.8629 23.9034 24.6901C24.1219 24.5174 24.2652 24.2684 24.3039 23.9945C24.3039 22.7171 21.7771 23.0655 21.7771 21.2655C21.7771 20.2203 22.5998 19.6978 23.6575 19.6978C24.0806 19.6902 24.5008 19.7693 24.8915 19.93L24.8328 20.6268Z" fill="#1F1E21"/>
<path d="M26.4192 19.7559H29.7099V20.4526H27.2419V22.1365H29.4748V22.8913H27.2419V24.8075H29.7099V25.5623H26.4192V19.7559Z" fill="#1F1E21"/>
<path d="M34.7634 20.6839C34.4198 20.4679 34.0234 20.3478 33.6162 20.3363C33.2091 20.3249 32.8064 20.4227 32.451 20.6191C32.0954 20.8156 31.8004 21.1035 31.5972 21.4523C31.3939 21.801 31.29 22.1977 31.2964 22.6001C31.2807 22.8823 31.3214 23.1648 31.4162 23.4315C31.5111 23.6981 31.6583 23.9436 31.8494 24.1539C32.0404 24.3643 32.2716 24.5353 32.5296 24.6573C32.7876 24.7793 33.0675 24.8497 33.3532 24.8646H33.4706C33.9174 24.858 34.3577 24.7591 34.7634 24.5743L34.8222 25.3872C34.392 25.5533 33.9324 25.6323 33.4706 25.6195C33.0582 25.6528 32.6432 25.5981 32.254 25.4589C31.8648 25.3198 31.5105 25.0995 31.2151 24.8131C30.9196 24.5267 30.69 24.1809 30.5419 23.799C30.3937 23.4171 30.3304 23.0083 30.3562 22.6001C30.3416 22.1973 30.413 21.796 30.5659 21.4223C30.7188 21.0487 30.9498 20.7111 31.2437 20.4317C31.5376 20.1522 31.8878 19.9371 32.2716 19.8005C32.6553 19.6639 33.0639 19.6088 33.4706 19.6388C33.932 19.6309 34.3906 19.7098 34.8222 19.8711L34.7634 20.6839Z" fill="#1F1E21"/>
<path d="M40.1108 23.1236C40.1108 24.7494 39.2881 25.6203 37.8191 25.6203C36.35 25.6203 35.5273 24.7494 35.5273 23.1236V19.7559H36.35V23.0075C36.35 24.1107 36.7026 24.8655 37.8191 24.8655C38.9355 24.8655 39.2881 24.1107 39.2881 23.0075V19.7559H40.1108V23.1236Z" fill="#1F1E21"/>
<path d="M41.4624 19.7559H42.9315C44.1067 19.7559 45.2232 19.9301 45.2232 21.3236C45.2161 21.6561 45.0871 21.9749 44.8602 22.2205C44.6332 22.4661 44.3237 22.622 43.9892 22.6591C44.1245 22.7068 44.2475 22.7837 44.3491 22.8841C44.4507 22.9845 44.5285 23.1059 44.5768 23.2397L45.6933 25.5623H44.6943L43.8129 23.5881C43.7557 23.3818 43.6193 23.2057 43.4327 23.0973C43.2462 22.9889 43.0242 22.9566 42.8139 23.0075H42.2851V25.5623H41.4624V19.7559ZM42.2851 22.1945H42.9902C43.8129 22.1945 44.283 21.8461 44.283 21.2655C44.283 20.7429 43.8717 20.3945 43.1077 20.3945H42.2851V22.1945Z" fill="#1F1E21"/>
<path d="M46.6335 19.7559H49.9242V20.4526H47.4562V22.1365H49.6891V22.8913H47.4562V24.8075H49.9242V25.5623H46.6335V19.7559Z" fill="#1F1E21"/>
<path d="M32.1778 14.8192C31.9363 14.6556 31.6476 14.5741 31.3551 14.587C31.2085 14.5871 31.0636 14.6187 30.9305 14.6796C30.7973 14.7404 30.6792 14.8292 30.5842 14.9396C30.4892 15.05 30.4197 15.1796 30.3803 15.3192C30.3409 15.4588 30.3327 15.6052 30.3562 15.7482C30.3529 16.0319 30.4615 16.3056 30.6589 16.5116C30.8563 16.7175 31.1271 16.8394 31.4139 16.8515H31.4727C31.7567 16.8556 32.038 16.7961 32.2953 16.6773V17.7224C31.9355 17.8412 31.5582 17.9001 31.1789 17.8966C30.8851 17.9181 30.5901 17.8777 30.3133 17.7781C30.0365 17.6785 29.7842 17.522 29.5731 17.319C29.3621 17.1159 29.197 16.8709 29.0889 16.6001C28.9808 16.3294 28.932 16.039 28.9459 15.7482C28.9307 15.4545 28.9781 15.161 29.0849 14.8864C29.1918 14.612 29.3557 14.3627 29.5662 14.1548C29.7767 13.9468 30.0289 13.7848 30.3067 13.6792C30.5845 13.5736 30.8816 13.5268 31.1789 13.5418C31.5451 13.535 31.9077 13.6147 32.2366 13.774L32.1778 14.8192Z" fill="#1F1E21"/>
<defs>
<linearGradient id="paint0_linear" x1="27.5" y1="0" x2="27.5" y2="37" gradientUnits="userSpaceOnUse">
<stop stop-color="#FEFEFE"/>
<stop offset="1" stop-color="#D5D6D7"/>
</linearGradient>
<linearGradient id="paint1_linear" x1="6.43967" y1="24.2769" x2="15.6009" y2="7.01899" gradientUnits="userSpaceOnUse">
<stop stop-color="#636465"/>
<stop offset="0.0298" stop-color="#676869"/>
<stop offset="0.2659" stop-color="#828384"/>
<stop offset="0.5054" stop-color="#969798"/>
<stop offset="0.7484" stop-color="#A1A2A3"/>
<stop offset="1" stop-color="#A5A6A7"/>
</linearGradient>
<linearGradient id="paint2_linear" x1="15.2231" y1="19.3516" x2="3.31427" y2="11.3778" gradientUnits="userSpaceOnUse">
<stop stop-color="#C4C5C6"/>
<stop offset="0.0977" stop-color="#DCDDDD"/>
<stop offset="0.2067" stop-color="#F0F0F0"/>
<stop offset="0.3177" stop-color="#FBFBFB"/>
<stop offset="0.4326" stop-color="white"/>
<stop offset="0.5353" stop-color="#F6F7F7"/>
<stop offset="0.7001" stop-color="#DFDFE0"/>
<stop offset="0.905" stop-color="#B9BABB"/>
<stop offset="1" stop-color="#A5A6A7"/>
</linearGradient>
<linearGradient id="paint3_linear" x1="18.2224" y1="21.4504" x2="5.73009" y2="12.8981" gradientUnits="userSpaceOnUse">
<stop stop-color="#4C4C4E"/>
<stop offset="0.2192" stop-color="#636365"/>
<stop offset="0.4734" stop-color="#767778"/>
<stop offset="0.7321" stop-color="#818283"/>
<stop offset="1" stop-color="#858687"/>
</linearGradient>
<linearGradient id="paint4_linear" x1="5.96618" y1="20.9252" x2="16.6496" y2="13.2075" gradientUnits="userSpaceOnUse">
<stop stop-color="#771A29"/>
<stop offset="0.6067" stop-color="#AD0335"/>
<stop offset="0.7079" stop-color="#AC0335"/>
<stop offset="1" stop-color="#761F40"/>
</linearGradient>
<radialGradient id="paint5_radial" cx="0" cy="0" r="1" gradientUnits="userSpaceOnUse" gradientTransform="translate(9.81589 15.3829) scale(11.3395 11.4862)">
<stop stop-color="#AD0335"/>
<stop offset="0.4607" stop-color="#AC0335"/>
<stop offset="1" stop-color="#761F40"/>
</radialGradient>
<linearGradient id="paint6_linear" x1="35.9173" y1="710.159" x2="221.613" y2="602.17" gradientUnits="userSpaceOnUse">
<stop stop-color="#771A29"/>
<stop offset="0.6067" stop-color="#AD0335"/>
<stop offset="0.7079" stop-color="#AC0335"/>
<stop offset="1" stop-color="#761F40"/>
</linearGradient>
</defs>
</svg>
