<svg width="22" height="22" viewBox="0 0 22 22" fill="none" xmlns="http://www.w3.org/2000/svg">
<path d="M22 11.0124L20.1171 8.55969L20.5383 5.51239L17.6644 4.37275L16.5248 1.49888L13.4775 1.92005L11 0.0123901L8.5473 1.89527L5.5 1.4741L4.36036 4.34798L1.48649 5.48762L1.90766 8.53491L0 11.0124L1.88288 13.4651L1.46171 16.5124L4.33559 17.652L5.47522 20.5259L8.52252 20.1047L10.9752 21.9876L13.4279 20.1047L16.4752 20.5259L17.6149 17.652L20.4887 16.4876L20.0676 13.4403L22 11.0124Z" fill="#50C450"/>
<path d="M15.8165 7.19918C15.699 7.07156 15.5405 7 15.3754 7C15.2102 7 15.0517 7.07156 14.9343 7.19918L9.26953 13.3636L7.0649 10.9984C6.94743 10.8708 6.78894 10.7992 6.6238 10.7992C6.45865 10.7992 6.30016 10.8708 6.18269 10.9984C6.12481 11.0612 6.07885 11.136 6.04747 11.2184C6.0161 11.3009 5.99995 11.3894 5.99995 11.4787C5.99995 11.5681 6.0161 11.6566 6.04747 11.7391C6.07885 11.8215 6.12481 11.8963 6.18269 11.9591L8.83052 14.8034C8.94893 14.9295 9.10731 15 9.27215 15C9.437 15 9.59537 14.9295 9.71378 14.8034L15.8165 8.15984C15.8746 8.09722 15.9207 8.02248 15.9523 7.94C15.9838 7.85752 16 7.76897 16 7.67951C16 7.59005 15.9838 7.50149 15.9523 7.41901C15.9207 7.33654 15.8746 7.2618 15.8165 7.19918C15.5728 6.93361 16.0612 7.46474 15.8165 7.19918Z" fill="white"/>
</svg>
