<svg id="Capa_1" data-name="Capa 1" xmlns="http://www.w3.org/2000/svg" viewBox="0 0 23 21"><title>online-shopping-cart</title><path d="M0.78145,1.712H3.2206L6.695,14.35187a0.85176,0.85176,0,0,0,.82249.62773H18.196a0.85249,0.85249,0,0,0,.78-0.51359l3.88564-8.98776a0.87053,0.87053,0,0,0-.07092-0.81318,0.8434,0.8434,0,0,0-.70908-0.38519H10.28285a0.856,0.856,0,0,0,0,1.712H20.777l-3.14823,7.27581H8.15566L4.6813,0.62773A0.85175,0.85175,0,0,0,3.8588,0H0.78145A0.856,0.856,0,0,0,.78145,1.712Z" transform="translate(0.06943)" style="fill:#2a7bae"/><path d="M6.70918,21a1.94023,1.94023,0,1,0-1.92863-1.94025A1.93645,1.93645,0,0,0,6.70918,21Z" transform="translate(0.06943)" style="fill:#2a7bae"/><path d="M18.76325,21H18.905a1.92091,1.92091,0,0,0,1.31885-.67053A1.92025,1.92025,0,1,0,18.76325,21Z" transform="translate(0.06943)" style="fill:#2a7bae"/></svg>