<svg width="222" height="40" viewBox="0 0 222 40" fill="none" xmlns="http://www.w3.org/2000/svg">
<path d="M217.066 3.97739C215.278 1.9858 212.047 1.13196 207.914 1.13196H195.917C195.071 1.13196 194.353 1.73319 194.22 2.54841L189.225 33.5172C189.126 34.1279 189.609 34.6811 190.243 34.6811H197.649L199.509 23.148L199.451 23.5092C199.584 22.694 200.297 22.0927 201.142 22.0927H204.661C211.575 22.0927 216.989 19.3475 218.57 11.4062C218.617 11.1713 218.658 10.9427 218.693 10.7194C218.494 10.616 218.494 10.616 218.693 10.7194C219.164 7.78416 218.69 5.78631 217.066 3.97739Z" fill="#787878"/>
<path d="M217.066 3.97739C215.278 1.9858 212.047 1.13196 207.914 1.13196H195.917C195.071 1.13196 194.353 1.73319 194.22 2.54841L189.225 33.5172C189.126 34.1279 189.609 34.6811 190.243 34.6811H197.649L199.509 23.148L199.451 23.5092C199.584 22.694 200.297 22.0927 201.142 22.0927H204.661C211.575 22.0927 216.989 19.3475 218.57 11.4062C218.617 11.1713 218.658 10.9427 218.693 10.7194C218.494 10.616 218.494 10.616 218.693 10.7194C219.164 7.78416 218.69 5.78631 217.066 3.97739Z" fill="#787878"/>
<path d="M201.508 10.7585C201.587 10.2679 201.909 9.86601 202.343 9.66247C202.54 9.57061 202.76 9.51947 202.991 9.51947H212.396C213.51 9.51947 214.549 9.59045 215.498 9.73971C215.771 9.78247 216.034 9.83157 216.291 9.88793C216.547 9.94321 216.796 10.0059 217.037 10.0748C217.158 10.1092 217.276 10.1448 217.393 10.1823C217.859 10.3347 218.294 10.5121 218.693 10.7198C219.164 7.78361 218.69 5.7868 217.066 3.97787C215.277 1.98628 212.047 1.13245 207.914 1.13245H195.916C195.071 1.13245 194.353 1.73368 194.22 2.5489L189.225 33.5167C189.126 34.1283 189.609 34.6805 190.241 34.6805H197.649L199.509 23.1475L201.508 10.7585Z" fill="#888888"/>
<path d="M218.693 10.7194C218.657 10.9438 218.618 11.1713 218.571 11.4062C216.989 19.3465 211.575 22.0927 204.661 22.0927H201.141C200.296 22.0927 199.583 22.694 199.451 23.5092L197.649 34.68L197.137 37.8491C197.051 38.3835 197.474 38.8678 198.027 38.8678H204.27C205.009 38.8678 205.638 38.3417 205.754 37.6288L205.815 37.3178L206.991 30.0278L207.067 29.6249C207.182 28.9119 207.811 28.3859 208.55 28.3859H209.485C215.533 28.3859 220.268 25.9841 221.652 19.0375C222.23 16.1347 221.931 13.7109 220.403 12.0085C219.94 11.4928 219.364 11.0669 218.693 10.7194" fill="#999999"/>
<path d="M217.037 10.0742C216.796 10.0053 216.547 9.94271 216.291 9.88739C216.035 9.83202 215.77 9.78301 215.499 9.74021C214.548 9.5899 213.51 9.51892 212.396 9.51892H202.991C202.76 9.51892 202.54 9.57011 202.343 9.66297C201.909 9.86651 201.587 10.2673 201.508 10.759L199.509 23.148L199.452 23.5091C199.583 22.6939 200.296 22.0927 201.141 22.0927H204.662C211.576 22.0927 216.989 19.3474 218.571 11.4061C218.618 11.1713 218.657 10.9437 218.694 10.7193C218.293 10.5126 217.86 10.3341 217.393 10.1828C217.277 10.1452 217.158 10.1086 217.037 10.0742Z" fill="#787878"/>
<g clip-path="url(#clip0)">
<path d="M64 40.0001H0V0.000118587H64V40.0001Z" fill="white"/>
<path d="M1.06567 33.5001H62.9323V38.9581H1.06567V33.5001Z" fill="#787878"/>
<path d="M1.06567 6.50671H62.9323V1.04931H1.06567V6.50671Z" fill="#787878"/>
<path d="M30.7696 11.434L27.6692 25.6947H23.9192L27.0197 11.434H30.7696ZM46.5446 20.6422L48.5191 15.2868L49.6534 20.6422H46.5446ZM50.7304 25.6947H54.1974L51.1683 11.434H47.9695C47.248 11.434 46.6418 11.8459 46.3727 12.4794L40.746 25.6947H44.6838L45.4649 23.5645H50.2759L50.7304 25.6947ZM40.9416 21.0387C40.9573 17.2756 35.6532 17.0669 35.6879 15.3854C35.7006 14.8743 36.1955 14.33 37.2787 14.191C37.8153 14.1228 39.2977 14.0682 40.9768 14.8294L41.6337 11.8037C40.7315 11.4827 39.5706 11.1737 38.1264 11.1737C34.4194 11.1737 31.8117 13.1109 31.791 15.8871C31.7667 17.9406 33.6535 19.0852 35.0725 19.7691C36.5341 20.4676 37.0242 20.9165 37.0174 21.5407C37.007 22.4975 35.8503 22.9211 34.7747 22.9368C32.8888 22.9663 31.7954 22.4354 30.9234 22.0357L30.2428 25.1618C31.1202 25.5574 32.7371 25.9011 34.4117 25.9186C38.3525 25.9186 40.93 24.0035 40.9416 21.0387ZM25.4111 11.434L19.3357 25.6947H15.3719L12.3819 14.3134C12.2009 13.614 12.0432 13.3566 11.4915 13.061C10.5899 12.5791 9.10099 12.1284 7.79224 11.848L7.88053 11.434H14.2619C15.0741 11.434 15.8053 11.966 15.9911 12.8873L17.571 21.1401L21.4712 11.434H25.4111Z" fill="#787878"/>
<path d="M35.5688 29.6201H34.0452V31.0153H35.7495V31.4348H33.5317V27.5639H35.6621V27.9834H34.0452V29.2064H35.5688V29.6201Z" fill="#787878"/>
<path d="M36.5364 27.3575H37.0499V31.4348H36.5364V27.3575Z" fill="#787878"/>
<path d="M39.8511 29.7749C39.857 29.4591 39.7169 28.9595 39.1391 28.9595C38.6137 28.9595 38.3918 29.4247 38.3509 29.7749H39.8511ZM38.3453 30.1367C38.3569 30.8203 38.7948 31.1016 39.3139 31.1016C39.6819 31.1016 39.9095 31.0384 40.0964 30.9582L40.1898 31.32C40.0087 31.4001 39.6938 31.4978 39.244 31.4978C38.3746 31.4978 37.8552 30.9293 37.8552 30.0909C37.8552 29.2525 38.3569 28.5977 39.18 28.5977C40.108 28.5977 40.3474 29.3903 40.3474 29.9014C40.3474 30.0046 40.3415 30.0792 40.3296 30.1367H38.3453Z" fill="#787878"/>
<path d="M43.1421 31.337C43.0079 31.4003 42.7101 31.4979 42.3308 31.4979C41.4787 31.4979 40.9243 30.9294 40.9243 30.0793C40.9243 29.2237 41.5193 28.5978 42.4417 28.5978C42.7451 28.5978 43.0135 28.6721 43.1537 28.7471L43.0372 29.1319C42.9143 29.0686 42.7217 28.9995 42.4417 28.9995C41.7937 28.9995 41.4437 29.4762 41.4437 30.0508C41.4437 30.6939 41.8639 31.0901 42.4242 31.0901C42.716 31.0901 42.9086 31.0213 43.0544 30.958L43.1421 31.337Z" fill="#787878"/>
<path d="M44.5827 27.989V28.6551H45.3178V29.0396H44.5827V30.5387C44.5827 30.8836 44.6819 31.0786 44.9679 31.0786C45.1077 31.0786 45.1898 31.0672 45.2657 31.0439L45.2891 31.429C45.1898 31.4634 45.0322 31.4978 44.8336 31.4978C44.5942 31.4978 44.4016 31.4173 44.2793 31.2856C44.1391 31.1302 44.0808 30.8836 44.0808 30.5562V29.0396H43.6428V28.6551H44.0808V28.1382L44.5827 27.989Z" fill="#787878"/>
<path d="M46.0351 29.5224C46.0351 29.195 46.0289 28.9137 46.0117 28.6551H46.4612L46.4846 29.2064H46.5018C46.6304 28.8332 46.9454 28.5977 47.2897 28.5977C47.3424 28.5977 47.3833 28.6035 47.4301 28.609V29.086C47.3774 29.0743 47.3252 29.0743 47.2547 29.0743C46.8932 29.0743 46.636 29.3384 46.5661 29.7177C46.5545 29.7865 46.5486 29.8725 46.5486 29.9533V31.4348H46.0351V29.5224Z" fill="#787878"/>
<path d="M48.3515 30.0507C48.3515 30.6594 48.7017 31.1188 49.2036 31.1188C49.694 31.1188 50.0614 30.6649 50.0614 30.039C50.0614 29.5682 49.8223 28.9764 49.2152 28.9764C48.6143 28.9764 48.3515 29.5279 48.3515 30.0507ZM50.587 30.0218C50.587 31.0497 49.8572 31.4978 49.1802 31.4978C48.4214 31.4978 47.8264 30.9462 47.8264 30.0679C47.8264 29.1431 48.4507 28.5977 49.227 28.5977C50.0383 28.5977 50.587 29.1775 50.587 30.0218Z" fill="#787878"/>
<path d="M51.3742 29.4075C51.3742 29.1148 51.368 28.8851 51.3508 28.6554H51.8059L51.8353 29.1148H51.8468C51.987 28.8562 52.3138 28.598 52.7808 28.598C53.1716 28.598 53.7787 28.8277 53.7787 29.7807V31.4348H53.2652V29.8326C53.2652 29.3848 53.096 29.0113 52.6116 29.0113C52.2788 29.0113 52.016 29.2469 51.923 29.5282C51.8993 29.5915 51.8877 29.6775 51.8877 29.7638V31.4348H51.3742V29.4075Z" fill="#787878"/>
</g>
<g clip-path="url(#clip1)">
<path d="M80.3062 39.6748V37.0374C80.3214 36.8156 80.2896 36.5931 80.2129 36.3846C80.1362 36.1762 80.0163 35.9866 79.8612 35.8286C79.7061 35.6706 79.5194 35.5476 79.3135 35.4681C79.1077 35.3885 78.8873 35.3541 78.6672 35.3671C78.3791 35.348 78.0912 35.4073 77.8336 35.5388C77.576 35.6702 77.3581 35.869 77.2026 36.1143C77.0609 35.8763 76.8582 35.6813 76.6157 35.5498C76.3733 35.4183 76.1002 35.3552 75.8252 35.3671C75.5854 35.3549 75.3467 35.406 75.1326 35.5155C74.9185 35.625 74.7365 35.789 74.6047 35.9913V35.4726H73.698V39.6748H74.6134V37.3627C74.5939 37.219 74.6062 37.0727 74.6493 36.9344C74.6924 36.796 74.7652 36.6689 74.8627 36.5623C74.9601 36.4556 75.0798 36.3719 75.213 36.3173C75.3462 36.2627 75.4898 36.2384 75.6334 36.2462C76.2349 36.2462 76.54 36.6418 76.54 37.3539V39.6924H77.4554V37.3627C77.4368 37.2191 77.4496 37.0732 77.493 36.9352C77.5363 36.7972 77.6093 36.6704 77.7065 36.5639C77.8038 36.4575 77.9231 36.3738 78.056 36.3189C78.1888 36.264 78.332 36.2392 78.4754 36.2462C79.0944 36.2462 79.3908 36.6418 79.3908 37.3539V39.6924L80.3062 39.6748ZM93.8495 35.4726H92.3588V34.1979H91.4434V35.4726H90.6152V36.3077H91.4608V38.2418C91.4608 39.2176 91.8357 39.7979 92.908 39.7979C93.3086 39.7992 93.7015 39.6865 94.0413 39.4726L93.7798 38.6902C93.5367 38.8364 93.2607 38.9181 92.9777 38.9275C92.5418 38.9275 92.3762 38.6462 92.3762 38.2242V36.3077H93.8583L93.8495 35.4726ZM101.582 35.3671C101.361 35.3605 101.143 35.4142 100.949 35.5225C100.756 35.6308 100.595 35.7897 100.484 35.9825V35.4726H99.5859V39.6748H100.493V37.3187C100.493 36.6242 100.789 36.2374 101.364 36.2374C101.558 36.2347 101.751 36.2706 101.931 36.3429L102.21 35.4638C102.003 35.3891 101.785 35.3504 101.565 35.3495L101.582 35.3671ZM89.8916 35.8066C89.3784 35.4989 88.7883 35.3464 88.1916 35.3671C87.1367 35.3671 86.448 35.877 86.448 36.7121C86.448 37.3979 86.9536 37.8198 87.8865 37.9517L88.3224 38.0132C88.8193 38.0836 89.0547 38.2154 89.0547 38.4528C89.0547 38.7781 88.7234 38.9627 88.1044 38.9627C87.6065 38.9772 87.1183 38.8224 86.7183 38.5231L86.2824 39.2352C86.8105 39.6071 87.4431 39.7981 88.087 39.7803C89.2901 39.7803 89.9875 39.2088 89.9875 38.4088C89.9875 37.6088 89.4383 37.2836 88.5316 37.1517L88.0957 37.0902C87.7034 37.0374 87.3895 36.9583 87.3895 36.677C87.3895 36.3957 87.6859 36.1847 88.1829 36.1847C88.6422 36.19 89.0924 36.3141 89.4906 36.5451L89.8916 35.8066ZM114.175 35.3671C113.954 35.3605 113.736 35.4142 113.542 35.5225C113.349 35.6308 113.188 35.7897 113.077 35.9825V35.4726H112.179V39.6748H113.086V37.3187C113.086 36.6242 113.382 36.2374 113.957 36.2374C114.151 36.2347 114.344 36.2706 114.524 36.3429L114.803 35.4638C114.596 35.3891 114.378 35.3504 114.158 35.3495L114.175 35.3671ZM102.493 37.5649C102.483 37.8602 102.533 38.1545 102.642 38.429C102.75 38.7035 102.914 38.9522 103.123 39.159C103.333 39.3659 103.582 39.5265 103.857 39.6304C104.131 39.7344 104.424 39.7794 104.716 39.7627C105.261 39.7906 105.796 39.6118 106.216 39.2616L105.78 38.5231C105.467 38.7641 105.084 38.8967 104.69 38.9011C104.355 38.8738 104.043 38.7202 103.815 38.471C103.587 38.2218 103.46 37.8952 103.46 37.5561C103.46 37.217 103.587 36.8904 103.815 36.6412C104.043 36.3919 104.355 36.2384 104.69 36.211C105.084 36.2155 105.467 36.348 105.78 36.5891L106.216 35.8506C105.796 35.5004 105.261 35.3216 104.716 35.3495C104.424 35.3328 104.131 35.3778 103.857 35.4818C103.582 35.5857 103.333 35.7463 103.123 35.9531C102.914 36.16 102.75 36.4087 102.642 36.6832C102.533 36.9577 102.483 37.252 102.493 37.5473V37.5649ZM110.985 37.5649V35.4726H110.078V35.9825C109.924 35.7827 109.725 35.6227 109.498 35.5157C109.27 35.4087 109.021 35.3578 108.77 35.3671C108.192 35.3671 107.638 35.5986 107.229 36.0108C106.82 36.423 106.591 36.982 106.591 37.5649C106.591 38.1478 106.82 38.7068 107.229 39.119C107.638 39.5311 108.192 39.7627 108.77 39.7627C109.021 39.772 109.27 39.7211 109.498 39.6141C109.725 39.5071 109.924 39.3471 110.078 39.1473V39.6572H110.985V37.5649ZM107.611 37.5649C107.625 37.3175 107.711 37.0798 107.858 36.8811C108.005 36.6823 108.206 36.5312 108.437 36.4462C108.667 36.3613 108.918 36.3463 109.157 36.4031C109.396 36.4599 109.614 36.5859 109.783 36.7658C109.952 36.9456 110.065 37.1714 110.108 37.4153C110.152 37.6592 110.123 37.9106 110.027 38.1384C109.93 38.3663 109.77 38.5608 109.565 38.6979C109.361 38.8349 109.121 38.9087 108.875 38.9099C108.702 38.9121 108.531 38.8783 108.372 38.8106C108.213 38.7428 108.07 38.6426 107.951 38.5163C107.832 38.3899 107.741 38.2402 107.682 38.0765C107.624 37.9127 107.599 37.7386 107.611 37.5649ZM96.6698 35.3671C96.0918 35.3752 95.5406 35.6146 95.1376 36.0326C94.7346 36.4505 94.5127 37.0128 94.5208 37.5957C94.5289 38.1785 94.7663 38.7343 95.1807 39.1407C95.5952 39.5471 96.1528 39.7708 96.7308 39.7627C97.358 39.7951 97.9747 39.5915 98.4613 39.1913L98.0254 38.5143C97.6812 38.7927 97.2548 38.9474 96.8136 38.9539C96.5139 38.9799 96.216 38.887 95.9832 38.6949C95.7504 38.5028 95.6011 38.2267 95.567 37.9253H98.6618C98.6618 37.811 98.6618 37.6968 98.6618 37.5737C98.6618 36.255 97.8511 35.3759 96.6829 35.3759L96.6698 35.3671ZM96.6698 36.1847C96.8055 36.1817 96.9404 36.2058 97.0668 36.2555C97.1933 36.3052 97.3088 36.3795 97.4067 36.4742C97.5047 36.5689 97.5832 36.6821 97.6377 36.8074C97.6923 36.9327 97.7218 37.0676 97.7247 37.2044H95.5452C95.561 36.9223 95.6857 36.6576 95.8926 36.467C96.0995 36.2764 96.3723 36.175 96.6524 36.1847H96.6698ZM119.384 37.5737V33.7847H118.513V35.9825C118.359 35.7827 118.16 35.6227 117.932 35.5157C117.705 35.4087 117.456 35.3578 117.205 35.3671C116.627 35.3671 116.073 35.5986 115.664 36.0108C115.255 36.423 115.025 36.982 115.025 37.5649C115.025 38.1478 115.255 38.7068 115.664 39.119C116.073 39.5311 116.627 39.7627 117.205 39.7627C117.456 39.772 117.705 39.7211 117.932 39.6141C118.16 39.5071 118.359 39.3471 118.513 39.1473V39.6572H119.384V37.5737ZM120.897 39.0638C120.954 39.0631 121.01 39.0735 121.063 39.0946C121.113 39.1152 121.158 39.145 121.198 39.1825C121.236 39.2204 121.267 39.2651 121.289 39.3143C121.311 39.3657 121.323 39.421 121.323 39.477C121.323 39.5329 121.311 39.5883 121.289 39.6396C121.267 39.6889 121.236 39.7336 121.198 39.7715C121.158 39.809 121.113 39.8388 121.063 39.8594C121.01 39.8826 120.954 39.8946 120.897 39.8946C120.814 39.8939 120.734 39.8696 120.664 39.8245C120.595 39.7793 120.539 39.7152 120.505 39.6396C120.483 39.5882 120.472 39.5329 120.472 39.477C120.472 39.4211 120.483 39.3657 120.505 39.3143C120.527 39.2651 120.558 39.2204 120.596 39.1825C120.635 39.145 120.681 39.1152 120.731 39.0946C120.788 39.0718 120.849 39.0613 120.91 39.0638H120.897ZM120.897 39.8066C120.94 39.8069 120.984 39.7979 121.023 39.7803C121.061 39.7634 121.095 39.7395 121.124 39.7099C121.178 39.6499 121.208 39.5715 121.208 39.4902C121.208 39.4088 121.178 39.3304 121.124 39.2704C121.095 39.2407 121.061 39.2168 121.023 39.2C120.984 39.1825 120.94 39.1735 120.897 39.1737C120.854 39.1739 120.811 39.1829 120.771 39.2C120.731 39.2162 120.696 39.2401 120.666 39.2704C120.611 39.3304 120.581 39.4088 120.581 39.4902C120.581 39.5715 120.611 39.6499 120.666 39.7099C120.696 39.7401 120.731 39.764 120.771 39.7803C120.815 39.7994 120.862 39.8084 120.91 39.8066H120.897ZM120.923 39.2836C120.964 39.2816 121.004 39.294 121.036 39.3187C121.05 39.3299 121.06 39.344 121.067 39.3601C121.074 39.3762 121.077 39.3936 121.076 39.411C121.076 39.4256 121.074 39.4402 121.069 39.4538C121.063 39.4675 121.055 39.4798 121.045 39.4902C121.02 39.5133 120.988 39.5272 120.954 39.5297L121.08 39.6748H120.98L120.862 39.5297H120.823V39.6748H120.74V39.288L120.923 39.2836ZM120.827 39.3583V39.4638H120.923C120.94 39.4689 120.958 39.4689 120.975 39.4638C120.978 39.4576 120.98 39.4509 120.98 39.444C120.98 39.4371 120.978 39.4304 120.975 39.4242C120.978 39.4181 120.98 39.4113 120.98 39.4044C120.98 39.3976 120.978 39.3908 120.975 39.3847C120.958 39.3795 120.94 39.3795 120.923 39.3847L120.827 39.3583ZM116.032 37.5737C116.047 37.3263 116.133 37.0886 116.279 36.8899C116.426 36.6911 116.627 36.54 116.858 36.455C117.089 36.3701 117.339 36.3551 117.579 36.4119C117.818 36.4687 118.035 36.5947 118.204 36.7746C118.373 36.9544 118.486 37.1802 118.53 37.4241C118.573 37.668 118.545 37.9193 118.448 38.1472C118.352 38.3751 118.192 38.5696 117.987 38.7066C117.782 38.8437 117.542 38.9174 117.296 38.9187C117.124 38.9209 116.953 38.8871 116.794 38.8193C116.635 38.7516 116.491 38.6514 116.373 38.5251C116.254 38.3987 116.162 38.249 116.104 38.0853C116.045 37.9215 116.021 37.7474 116.032 37.5737ZM85.4193 37.5737V35.4726H84.5126V35.9825C84.3586 35.7827 84.1598 35.6227 83.9324 35.5157C83.705 35.4087 83.4557 35.3578 83.2049 35.3671C82.6269 35.3671 82.0725 35.5986 81.6638 36.0108C81.2551 36.423 81.0254 36.982 81.0254 37.5649C81.0254 38.1478 81.2551 38.7068 81.6638 39.119C82.0725 39.5311 82.6269 39.7627 83.2049 39.7627C83.4557 39.772 83.705 39.7211 83.9324 39.6141C84.1598 39.5071 84.3586 39.3471 84.5126 39.1473V39.6572H85.4193V37.5737ZM82.0454 37.5737C82.0599 37.3263 82.1458 37.0886 82.2925 36.8899C82.4392 36.6911 82.6404 36.54 82.8712 36.455C83.1021 36.3701 83.3525 36.3551 83.5917 36.4119C83.8308 36.4687 84.0483 36.5947 84.2174 36.7746C84.3864 36.9544 84.4996 37.1802 84.5429 37.4241C84.5863 37.668 84.558 37.9193 84.4616 38.1472C84.3651 38.3751 84.2046 38.5696 83.9999 38.7066C83.7952 38.8437 83.5553 38.9174 83.3095 38.9187C83.1362 38.9222 82.9641 38.8892 82.8041 38.822C82.644 38.7548 82.4996 38.6548 82.3799 38.5284C82.2602 38.4019 82.1679 38.2517 82.1089 38.0874C82.0498 37.923 82.0252 37.7481 82.0367 37.5737H82.0454Z" fill="#787878"/>
<path d="M103.322 3.45044H89.5911V28.334H103.322V3.45044Z" fill="#888888"/>
<path d="M90.4628 15.8947C90.4602 13.4979 90.9985 11.132 92.037 8.97601C93.0754 6.82005 94.5866 4.93061 96.4563 3.45079C94.1413 1.61616 91.3612 0.475309 88.4336 0.158632C85.5061 -0.158044 82.5492 0.362226 79.901 1.65998C77.2528 2.95774 75.0201 4.98062 73.458 7.49743C71.896 10.0142 71.0676 12.9234 71.0676 15.8925C71.0676 18.8616 71.896 21.7708 73.458 24.2877C75.0201 26.8045 77.2528 28.8274 79.901 30.1251C82.5492 31.4229 85.5061 31.9431 88.4336 31.6265C91.3612 31.3098 94.1413 30.1689 96.4563 28.3343C94.5872 26.8549 93.0763 24.9662 92.0379 22.8111C90.9995 20.6559 90.4609 18.2908 90.4628 15.8947Z" fill="#9E9E9E"/>
<path d="M121.847 15.8945C121.847 18.8638 121.019 21.7732 119.456 24.2901C117.894 26.807 115.661 28.8298 113.012 30.1274C110.364 31.425 107.407 31.9449 104.479 31.6278C101.551 31.3107 98.7711 30.1693 96.4563 28.3341C98.3247 26.8534 99.8352 24.9641 100.874 22.8089C101.913 20.6536 102.452 18.2886 102.452 15.8923C102.452 13.496 101.913 11.131 100.874 8.97574C99.8352 6.82048 98.3247 4.93123 96.4563 3.45054C98.7711 1.61534 101.551 0.473935 104.479 0.156804C107.407 -0.160328 110.364 0.359608 113.012 1.65718C115.661 2.95475 117.894 4.9776 119.456 7.4945C121.019 10.0114 121.847 12.9208 121.847 15.8901V15.8945Z" fill="#707070"/>
<path d="M120.348 25.6967V25.1868H120.553V25.0813H120.034V25.1868H120.256V25.6967H120.348ZM121.355 25.6967V25.0813H121.198L121.015 25.5209L120.832 25.0813H120.692V25.6967H120.806V25.2351L120.976 25.6351H121.093L121.263 25.2351V25.7011L121.355 25.6967Z" fill="#787878"/>
</g>
<g clip-path="url(#clip2)">
<path d="M144.729 39.666V37.0287C144.744 36.8074 144.712 36.5855 144.634 36.3775C144.556 36.1696 144.434 35.9806 144.277 35.8229C144.119 35.6653 143.929 35.5427 143.72 35.4633C143.51 35.384 143.286 35.3497 143.062 35.3627C142.769 35.3437 142.475 35.403 142.212 35.5344C141.95 35.6658 141.727 35.8646 141.569 36.11C141.424 35.872 141.218 35.6769 140.971 35.5454C140.723 35.4139 140.445 35.3508 140.164 35.3627C139.92 35.3505 139.677 35.4017 139.458 35.5111C139.24 35.6206 139.054 35.7846 138.92 35.9869V35.4682H137.996V39.666H138.929V37.3407C138.908 37.1969 138.92 37.0503 138.964 36.9116C139.007 36.7728 139.082 36.6454 139.181 36.5386C139.281 36.4317 139.403 36.3481 139.539 36.2937C139.676 36.2394 139.822 36.2156 139.969 36.2243C140.582 36.2243 140.893 36.6199 140.893 37.3319V39.666H141.827V37.3407C141.808 37.1972 141.821 37.0512 141.865 36.9132C141.909 36.7752 141.984 36.6485 142.083 36.542C142.182 36.4355 142.304 36.3519 142.439 36.297C142.574 36.2421 142.72 36.2172 142.867 36.2243C143.498 36.2243 143.8 36.6199 143.8 37.3319V39.666H144.729ZM149.929 37.5693V35.4726H148.996V35.9825C148.839 35.7824 148.636 35.6222 148.404 35.5152C148.172 35.4082 147.918 35.3574 147.662 35.3671C147.073 35.3671 146.508 35.5987 146.091 36.0108C145.674 36.423 145.44 36.982 145.44 37.5649C145.44 38.1478 145.674 38.7068 146.091 39.119C146.508 39.5312 147.073 39.7627 147.662 39.7627C147.918 39.7724 148.172 39.7216 148.404 39.6146C148.636 39.5076 148.839 39.3474 148.996 39.1473V39.6572H149.92L149.929 37.5693ZM146.493 37.5693C146.508 37.322 146.596 37.0843 146.745 36.8855C146.895 36.6868 147.1 36.5356 147.335 36.4507C147.571 36.3657 147.826 36.3507 148.07 36.4075C148.314 36.4643 148.536 36.5904 148.708 36.7702C148.88 36.9501 148.996 37.1758 149.04 37.4197C149.084 37.6636 149.055 37.915 148.957 38.1429C148.859 38.3707 148.695 38.5652 148.486 38.7023C148.277 38.8394 148.033 38.9131 147.782 38.9144C147.605 38.9185 147.43 38.886 147.266 38.819C147.103 38.7521 146.955 38.6521 146.833 38.5255C146.711 38.3988 146.617 38.2484 146.557 38.0837C146.497 37.9191 146.472 37.7439 146.484 37.5693H146.493ZM169.68 35.3715C169.984 35.3707 170.286 35.4274 170.569 35.5385C170.839 35.6455 171.085 35.8038 171.293 36.0045C171.499 36.2034 171.662 36.441 171.773 36.7034C172.006 37.267 172.006 37.898 171.773 38.4616C171.662 38.724 171.499 38.9617 171.293 39.1605C171.085 39.3612 170.839 39.5195 170.569 39.6264C169.983 39.8517 169.333 39.8517 168.747 39.6264C168.478 39.5196 168.233 39.3613 168.027 39.1605C167.823 38.9609 167.661 38.7234 167.551 38.4616C167.319 37.8979 167.319 37.267 167.551 36.7034C167.661 36.4416 167.823 36.2041 168.027 36.0045C168.233 35.8037 168.478 35.6454 168.747 35.5385C169.04 35.4184 169.354 35.3572 169.671 35.3583L169.68 35.3715ZM169.68 36.2506C169.499 36.2482 169.319 36.281 169.151 36.3473C168.993 36.4101 168.849 36.5044 168.729 36.6243C168.606 36.7504 168.511 36.9 168.449 37.0638C168.313 37.4148 168.313 37.803 168.449 38.1539C168.511 38.3178 168.606 38.4674 168.729 38.5935C168.849 38.7135 168.993 38.8077 169.151 38.8704C169.49 39.0015 169.866 39.0015 170.204 38.8704C170.371 38.8097 170.522 38.7154 170.649 38.5935C170.772 38.4675 170.867 38.3179 170.929 38.1539C171.065 37.803 171.065 37.4148 170.929 37.0638C170.867 36.8998 170.772 36.7502 170.649 36.6243C170.522 36.5023 170.371 36.408 170.204 36.3473C170.037 36.2714 169.855 36.2296 169.671 36.2243L169.68 36.2506ZM154.951 37.5693C154.951 36.2506 154.124 35.3715 152.938 35.3715C152.348 35.3797 151.786 35.619 151.376 36.037C150.965 36.4549 150.738 37.0172 150.747 37.6001C150.755 38.183 150.997 38.7388 151.42 39.1452C151.842 39.5516 152.411 39.7753 153 39.7671C153.633 39.7885 154.251 39.5788 154.738 39.1781L154.293 38.5012C153.942 38.7795 153.508 38.9342 153.058 38.9407C152.752 38.9667 152.448 38.8738 152.211 38.6817C151.974 38.4896 151.821 38.2135 151.787 37.9122H154.938C154.951 37.8023 154.951 37.6924 154.951 37.5693ZM151.791 37.2001C151.808 36.921 151.934 36.6594 152.142 36.4701C152.35 36.2808 152.624 36.1785 152.907 36.1847C153.045 36.1818 153.183 36.2058 153.312 36.2555C153.44 36.3052 153.558 36.3795 153.658 36.4742C153.758 36.5689 153.838 36.6821 153.894 36.8074C153.949 36.9327 153.979 37.0677 153.982 37.2045L151.791 37.2001ZM158.84 36.5407C158.434 36.3096 157.975 36.1855 157.507 36.1803C157 36.1803 156.698 36.3649 156.698 36.6726C156.698 36.9803 157.018 37.033 157.418 37.0858L157.862 37.1473C158.787 37.2792 159.347 37.666 159.347 38.4045C159.347 39.1429 158.636 39.7759 157.413 39.7759C156.758 39.7931 156.115 39.6021 155.578 39.2308L156.022 38.5188C156.43 38.818 156.928 38.9729 157.436 38.9583C158.067 38.9583 158.404 38.7737 158.404 38.4484C158.404 38.2111 158.164 38.0792 157.658 38.0089L157.213 37.9473C156.262 37.8155 155.747 37.3935 155.747 36.7078C155.747 35.8726 156.44 35.3627 157.524 35.3627C158.131 35.3426 158.731 35.4952 159.253 35.8023L158.84 36.5407ZM163.284 36.3034H161.778V38.1979C161.778 38.6374 161.929 38.9012 162.391 38.9012C162.68 38.8917 162.961 38.8101 163.209 38.6638L163.476 39.4462C163.129 39.6601 162.729 39.7729 162.32 39.7715C161.227 39.7715 160.844 39.1913 160.844 38.2155V36.3034H159.982V35.4682H160.844V34.1935H161.778V35.4682H163.284V36.3034ZM166.48 35.3627C166.704 35.3636 166.927 35.4022 167.138 35.477L166.853 36.3561C166.67 36.2837 166.473 36.2478 166.276 36.2506C165.671 36.2506 165.387 36.6374 165.387 37.3319V39.6836H164.462V35.4858H165.378V35.9957C165.491 35.803 165.655 35.6441 165.852 35.5357C166.049 35.4274 166.272 35.3737 166.498 35.3803L166.48 35.3627ZM172.871 39.055C172.929 39.0543 172.986 39.0648 173.04 39.0858C173.091 39.1064 173.138 39.1362 173.178 39.1737C173.217 39.2116 173.249 39.2563 173.271 39.3056C173.294 39.3569 173.305 39.4123 173.305 39.4682C173.305 39.5242 173.294 39.5795 173.271 39.6308C173.249 39.6801 173.217 39.7248 173.178 39.7627C173.138 39.8002 173.091 39.83 173.04 39.8506C172.987 39.8738 172.929 39.8858 172.871 39.8858C172.787 39.8852 172.705 39.8609 172.634 39.8157C172.563 39.7706 172.507 39.7065 172.471 39.6308C172.449 39.5794 172.437 39.5241 172.437 39.4682C172.437 39.4123 172.449 39.357 172.471 39.3056C172.494 39.2563 172.525 39.2116 172.564 39.1737C172.605 39.1362 172.651 39.1064 172.702 39.0858C172.749 39.0674 172.799 39.057 172.849 39.055H172.871ZM172.871 39.7979C172.916 39.7981 172.959 39.7892 173 39.7715C173.038 39.7546 173.073 39.7308 173.102 39.7012C173.14 39.6636 173.168 39.6176 173.183 39.567C173.199 39.5163 173.202 39.4627 173.192 39.4108C173.182 39.3588 173.159 39.3101 173.126 39.2687C173.092 39.2274 173.049 39.1948 173 39.1737C172.959 39.1562 172.916 39.1472 172.871 39.1473C172.827 39.1476 172.783 39.1565 172.742 39.1737C172.702 39.1899 172.666 39.2138 172.636 39.244C172.58 39.304 172.549 39.3824 172.549 39.4638C172.549 39.5452 172.58 39.6236 172.636 39.6836C172.666 39.7144 172.703 39.7388 172.744 39.7555C172.784 39.7721 172.827 39.7805 172.871 39.7803V39.7979ZM172.898 39.2748C172.939 39.2728 172.98 39.2852 173.013 39.31C173.027 39.3211 173.038 39.3353 173.045 39.3513C173.052 39.3674 173.055 39.3849 173.053 39.4023C173.054 39.4169 173.052 39.4315 173.046 39.4451C173.041 39.4587 173.033 39.4711 173.022 39.4814C172.997 39.5045 172.964 39.5185 172.929 39.521L173.058 39.666H172.956L172.836 39.521H172.796V39.666H172.711V39.2616L172.898 39.2748ZM172.8 39.3495V39.455H172.898C172.915 39.4602 172.934 39.4602 172.951 39.455C172.954 39.4489 172.956 39.4421 172.956 39.4352C172.956 39.4284 172.954 39.4216 172.951 39.4155C172.954 39.4093 172.956 39.4026 172.956 39.3957C172.956 39.3888 172.954 39.382 172.951 39.3759C172.934 39.3708 172.915 39.3708 172.898 39.3759L172.8 39.3495Z" fill="#787878"/>
<path d="M161.951 3.44165H147.951V28.3252H161.951V3.44165Z" fill="#9B9B9B"/>
<path d="M148.84 15.8869C148.838 13.4901 149.386 11.1242 150.445 8.9682C151.504 6.81224 153.045 4.9228 154.951 3.44298C152.591 1.60835 149.756 0.467497 146.771 0.15082C143.786 -0.165856 140.771 0.354408 138.071 1.65216C135.371 2.94992 133.095 4.97281 131.502 7.48962C129.909 10.0064 129.065 12.9156 129.065 15.8847C129.065 18.8538 129.909 21.763 131.502 24.2798C133.095 26.7967 135.371 28.8195 138.071 30.1173C140.771 31.4151 143.786 31.9353 146.771 31.6186C149.756 31.302 152.591 30.1611 154.951 28.3265C153.045 26.8471 151.505 24.9584 150.446 22.8032C149.387 20.6481 148.838 18.283 148.84 15.8869Z" fill="#B3B3B3"/>
<path d="M179.311 25.6879V25.1956H179.52V25.0901H178.991V25.1956H179.2V25.7055L179.311 25.6879ZM180.338 25.6879V25.0725H180.178L179.991 25.5121L179.805 25.0725H179.64V25.6879H179.756V25.2264L179.929 25.6264H180.049L180.222 25.2264V25.6923L180.338 25.6879Z" fill="#787878"/>
<path d="M180.836 15.8857C180.835 18.8543 179.99 21.7627 178.397 24.2789C176.804 26.795 174.528 28.8173 171.828 30.1147C169.129 31.4121 166.115 31.9323 163.13 31.6159C160.146 31.2995 157.311 30.1592 154.951 28.3253C156.856 26.8446 158.396 24.9553 159.455 22.8001C160.514 20.6448 161.065 18.2798 161.065 15.8835C161.065 13.4872 160.514 11.1222 159.455 8.96695C158.396 6.81168 156.856 4.92244 154.951 3.44175C157.311 1.60655 160.146 0.465146 163.131 0.148014C166.116 -0.169117 169.131 0.350821 171.832 1.64839C174.532 2.94596 176.809 4.9688 178.402 7.4857C179.995 10.0026 180.84 12.912 180.84 15.8813L180.836 15.8857Z" fill="#A4A4A4"/>
</g>
<defs>
<clipPath id="clip0">
<rect width="64" height="40" fill="white"/>
</clipPath>
<clipPath id="clip1">
<rect x="71" width="51" height="40" fill="white"/>
</clipPath>
<clipPath id="clip2">
<rect x="129" width="52" height="40" fill="white"/>
</clipPath>
</defs>
</svg>
