<svg width="134" height="23" viewBox="0 0 134 23" fill="none" xmlns="http://www.w3.org/2000/svg">
<path d="M0.5 4.96655H5.8C8.1 4.96655 9.6 6.16655 9.6 8.26655C9.6 9.86655 8.7 10.8666 7.4 11.1666V11.2666C9.1 11.4666 10.3 12.5666 10.3 14.5666C10.3 16.9666 8.4 18.3666 5.7 18.3666H0.5V4.96655ZM2.7 10.5666H4.6C6.6 10.5666 7.5 9.86655 7.5 8.56655C7.5 7.36655 6.7 6.66655 5.4 6.66655H2.7V10.5666ZM2.7 16.4666H4.8C7.1 16.4666 8.1 15.7666 8.1 14.3666C8.1 13.0666 7.2 12.2666 5.5 12.2666H2.7V16.4666Z" fill="white"/>
<path d="M21.4 18.2666H19.3V16.8666H19.2C18.9 17.6666 17.9 18.4666 16.2 18.4666C14.1 18.4666 12.6 17.2666 12.6 14.8666V7.96655H14.8V14.2666C14.8 16.0666 15.8 16.5666 17 16.5666C18.3 16.5666 19.3 15.7666 19.3 14.1666V7.96655H21.5V18.2666H21.4Z" fill="white"/>
<path d="M29.5 18.1666L29.2001 18.8666C28.4001 21.1666 27.2001 21.8666 25.2001 21.8666C24.8001 21.8666 24.4 21.8666 24.1 21.7666V20.1666C24.3001 20.1666 24.6 20.1666 24.9 20.1666C26.1 20.1666 26.6 19.7666 26.9 18.7666L27 18.3666L23.3 7.96655H25.7001L28.2001 16.1666H28.3L30.8 7.96655H33.1C32.6 9.36655 29.5 18.0666 29.5 18.1666Z" fill="white"/>
<path d="M49.7 18.2666H47.4L45.3 10.6666H45.2L43.1 18.2666H40.8L38.1 7.96655H40.3L42 15.8666H42.1L44.2 7.96655H46.3L48.4 15.8666H48.5L50.2 7.96655H52.4L49.7 18.2666Z" fill="white"/>
<path d="M55.8 4.1665C56.5 4.1665 57.1 4.6665 57.1 5.3665C57.1 6.0665 56.5 6.5665 55.8 6.5665C55.1 6.5665 54.5 6.1665 54.5 5.4665C54.5 4.7665 55.1 4.1665 55.8 4.1665ZM54.7 7.9665H56.9V18.2665H54.7V7.9665Z" fill="white"/>
<path d="M60.8 5.46655H62.9V7.96655H64.9V9.66655H62.9V15.1666C62.9 16.2666 63.3 16.5666 64.5 16.5666C64.7 16.5666 64.9 16.5666 65 16.5666V18.2666C64.8 18.2666 64.4 18.3666 64 18.3666C61.5 18.3666 60.8 17.4666 60.8 15.3666V9.66655H59.4V7.96655H60.9V5.46655H60.8Z" fill="white"/>
<path d="M67.7 4.2666H69.9V9.4666H70C70.4 8.7666 71.3 7.8666 73 7.8666C75.1 7.8666 76.6 9.1666 76.6 11.6666V18.2666H74.4V12.0666C74.4 10.3666 73.4 9.6666 72.2 9.6666C70.7 9.6666 69.9 10.7666 69.9 12.0666V18.2666H67.7V4.2666Z" fill="white"/>
<path d="M97.1 6.86646C97 6.96646 95.2 7.96645 95.2 10.1665C95.2 12.7665 97.5 13.6665 97.6 13.7665C97.6 13.8665 97.2 15.0665 96.4 16.2665C95.6 17.3665 94.9 18.4665 93.7 18.4665C92.5 18.4665 92.2 17.7665 90.8 17.7665C89.4 17.7665 89 18.4665 87.9 18.4665C86.8 18.4665 86 17.4665 85.2 16.2665C84.2 14.8665 83.4 12.5665 83.4 10.4665C83.4 7.06646 85.6 5.26646 87.8 5.26646C89 5.26646 89.9 6.06646 90.7 6.06646C91.4 6.06646 92.5 5.26646 93.8 5.26646C94.1 5.06646 95.9 5.16646 97.1 6.86646ZM90.6 4.86646C90.5 4.86646 90.4 4.86646 90.4 4.86646C90.4 4.86646 90.4 4.66646 90.4 4.56646C90.4 3.66646 90.9 2.76646 91.4 2.16646C92 1.36646 93.1 0.866455 94 0.866455C94 0.966455 94 1.06646 94 1.16646C94 2.06646 93.6 2.96646 93.1 3.66646C92.4 4.36646 91.4 4.86646 90.6 4.86646Z" fill="white"/>
<path d="M107.2 2.96655C110.3 2.96655 112.2 5.06655 112.2 7.96655C112.2 10.8666 110.3 12.8666 107.1 12.8666H103.8V18.2666H101.3V2.96655H107.2ZM103.8 10.7666H105.8C108.1 10.7666 109.5 10.1666 109.5 7.86655C109.5 6.06655 108.4 5.06655 106.7 5.06655H103.7V10.7666H103.8Z" fill="white"/>
<path d="M116.3 18.4664C114 18.4664 112.4 17.0664 112.4 14.8664C112.4 12.7664 113.9 11.4664 116.6 11.4664H119.6V10.2664C119.6 8.86636 118.8 8.16636 117.4 8.16636C116 8.16636 115.3 8.86636 115.2 9.96636H112.9C113 7.96636 114.3 6.26636 117.5 6.26636C120.1 6.26636 122.1 7.56636 122.1 10.2664V18.2664H119.7V16.7664H119.6C119.1 17.6664 118.1 18.4664 116.3 18.4664ZM119.7 14.3664V13.0664H117.1C115.7 13.0664 115 13.7664 115 14.7664C115 15.9664 116 16.5664 117.1 16.5664C118.5 16.5664 119.7 15.6664 119.7 14.3664Z" fill="white"/>
<path d="M129.5 18.0665L129.2 18.8665C128.2 21.4665 126.9 22.3665 124.6 22.3665C124.2 22.3665 123.6 22.3665 123.3 22.2665V20.3665C123.5 20.3665 123.9 20.4665 124.2 20.4665C125.5 20.4665 126.2 20.0665 126.4 18.8665L126.5 18.3665L122.3 6.36646H125.1L127.9 15.7665H128L130.9 6.36646H133.5C133.1 8.06646 129.5 18.0665 129.5 18.0665Z" fill="white"/>
</svg>
