<svg width="138" height="22" viewBox="0 0 138 22" fill="none" xmlns="http://www.w3.org/2000/svg">
<path d="M0.760315 2.99953H5.82495C6.56355 2.99953 7.19663 3.15941 7.82971 3.47918C8.46279 3.79895 8.9376 4.22531 9.30689 4.81156C9.67619 5.34451 9.83446 5.98405 9.83446 6.67689C9.83446 7.36972 9.67619 7.95597 9.35965 8.43562C9.04311 8.91528 8.5683 9.28834 8.04073 9.55482V9.66141C8.72657 9.92788 9.25414 10.3009 9.67619 10.8339C10.0982 11.3668 10.3093 12.0597 10.3093 12.8058C10.3093 13.5519 10.0982 14.2448 9.72895 14.7777C9.35965 15.364 8.83208 15.7903 8.199 16.1634C7.56592 16.4832 6.82733 16.6431 6.08874 16.6431H0.813071V2.99953H0.760315ZM5.71944 8.7021C6.29977 8.7021 6.82733 8.48892 7.19663 8.11585C7.56592 7.74279 7.77695 7.31643 7.77695 6.78348C7.77695 6.25053 7.61868 5.87746 7.24938 5.5044C6.88009 5.13133 6.40528 4.91815 5.82495 4.91815H2.87058V8.6488H5.71944V8.7021ZM6.03598 14.6178C6.66906 14.6178 7.19663 14.4047 7.56593 14.0316C7.93522 13.6052 8.14625 13.1789 8.14625 12.6459C8.14625 12.113 7.93522 11.6333 7.56593 11.207C7.19663 10.8339 6.61631 10.6207 5.98323 10.6207H2.87058V14.6711H6.03598V14.6178ZM13.2636 15.8436C12.6306 15.1508 12.3668 14.1382 12.3668 12.9124V6.89007H14.4243V12.5926C14.4243 13.3921 14.6353 13.9783 15.0046 14.3514C15.3739 14.7244 15.8487 14.9376 16.4818 14.9376C16.9566 14.9376 17.3787 14.831 17.8007 14.5645C18.2228 14.2981 18.4866 13.9783 18.6448 13.5519C18.8559 13.1256 18.9614 12.6459 18.9614 12.1663V6.89007H21.0189V16.5898H19.0669V15.3107H18.9614C18.6976 15.7903 18.2755 16.1634 17.748 16.4299C17.2204 16.6963 16.5873 16.8562 16.007 16.8562C14.7408 16.9095 13.844 16.5365 13.2636 15.8436ZM26.5056 16.0568L22.4961 6.89007H24.8174L27.5079 13.4986H27.5607L30.1985 6.89007H32.4671L26.5583 20.6935H24.3953L26.5056 16.0568ZM37.6372 6.89007H39.853L41.805 13.8184H41.8578L44.0208 6.89007H46.131L48.2941 13.8184H48.3468L50.2988 6.89007H52.5146L49.4547 16.5898H47.2917L45.0759 9.60811H45.0232L42.8601 16.5898H40.6971L37.6372 6.89007ZM54.2556 5.07804C53.9918 4.81156 53.8335 4.49179 53.8335 4.06543C53.8335 3.69236 53.9918 3.3193 54.2556 3.05283C54.5194 2.78635 54.8359 2.62646 55.2579 2.62646C55.68 2.62646 55.9965 2.78635 56.2603 3.05283C56.5241 3.3193 56.6824 3.63907 56.6824 4.06543C56.6824 4.4385 56.5241 4.81156 56.2603 5.07804C55.9965 5.34451 55.68 5.5044 55.2579 5.5044C54.8359 5.5044 54.5194 5.34451 54.2556 5.07804ZM54.2028 6.89007H56.2603V16.5898H54.2028V6.89007ZM61.6943 16.5365C61.325 16.3766 61.0084 16.2167 60.7974 16.0035C60.2698 15.4706 60.0061 14.7244 60.0061 13.7651V8.75539H58.3178V6.89007H60.0061V4.17202H62.0636V6.89007H64.3849V8.75539H62.0636V13.3388C62.0636 13.8717 62.1691 14.2448 62.3801 14.458C62.5911 14.7244 62.9077 14.831 63.3825 14.831C63.5935 14.831 63.8045 14.7777 63.9628 14.7244C64.1211 14.6711 64.2793 14.5645 64.4904 14.458V16.4832C64.0683 16.6963 63.5935 16.7496 62.9604 16.7496C62.4856 16.7496 62.0636 16.6963 61.6943 16.5365ZM66.6534 2.99953H68.7109V6.73018L68.6054 8.22244H68.7109C68.9747 7.74279 69.3967 7.36972 69.9243 7.10325C70.4519 6.78348 71.0322 6.67689 71.6653 6.67689C72.8259 6.67689 73.7228 6.99665 74.3559 7.68949C74.9889 8.38233 75.2527 9.34164 75.2527 10.5141V16.6431H73.1952V10.7806C73.1952 10.0345 72.9842 9.50152 72.6149 9.12846C72.2456 8.75539 71.718 8.59551 71.1377 8.59551C70.6629 8.59551 70.2408 8.7021 69.8716 8.96857C69.5023 9.23505 69.1857 9.60811 68.9747 10.0345C68.7636 10.4608 68.6581 10.9405 68.6581 11.4201V16.6431H66.6006V2.99953H66.6534Z" fill="white"/>
<path d="M110.443 3.65334V8.87625H113.661C114.4 8.87625 115.033 8.60977 115.561 8.07682C116.088 7.54387 116.352 6.95763 116.352 6.2115C116.352 5.51866 116.088 4.87912 115.561 4.39947C115.086 3.86652 114.453 3.60004 113.661 3.60004L110.443 3.65334ZM110.443 10.7416V16.8172H108.544V1.84131H113.609C114.875 1.84131 115.983 2.26767 116.88 3.12039C117.776 3.97311 118.251 5.03901 118.251 6.26479C118.251 7.54387 117.776 8.60978 116.88 9.4625C115.983 10.3152 114.875 10.7416 113.609 10.7416H110.443Z" fill="white"/>
<path d="M120.15 13.6727C120.15 14.1524 120.361 14.5787 120.784 14.9518C121.206 15.2716 121.68 15.4315 122.261 15.4315C123.052 15.4315 123.791 15.1117 124.424 14.5255C125.057 13.9392 125.373 13.1931 125.373 12.3937C124.793 11.914 123.949 11.7008 122.894 11.7008C122.102 11.7008 121.469 11.914 120.942 12.2871C120.414 12.6601 120.15 13.1398 120.15 13.6727ZM122.63 6.21143C124.054 6.21143 125.162 6.58449 125.954 7.33062C126.745 8.07675 127.167 9.14265 127.167 10.475V16.8171H125.321V15.3782H125.215C124.424 16.5507 123.369 17.1369 122.05 17.1369C120.942 17.1369 119.992 16.8171 119.254 16.1243C118.515 15.4315 118.146 14.632 118.146 13.6194C118.146 12.5535 118.568 11.7008 119.359 11.0613C120.15 10.4217 121.206 10.102 122.524 10.102C123.632 10.102 124.582 10.3151 125.321 10.7415V10.3151C125.321 9.62231 125.057 9.08936 124.529 8.6097C124.002 8.13005 123.369 7.91687 122.683 7.91687C121.628 7.91687 120.784 8.39652 120.15 9.30254L118.462 8.23664C119.465 6.90426 120.836 6.21143 122.63 6.21143Z" fill="white"/>
<path d="M137.69 6.55786L131.307 21.3739H129.355L131.729 16.2043L127.508 6.55786H129.619L132.626 13.9659H132.679L135.633 6.55786H137.69Z" fill="white"/>
<path d="M100.775 9.41987C100.775 8.83362 100.723 8.24738 100.617 7.66113H92.5454V10.9654H97.1352C96.9242 12.0313 96.3438 12.9906 95.447 13.5769V15.7087H98.1903C99.8258 14.2697 100.775 12.0846 100.775 9.41987Z" fill="#4285F4"/>
<path d="M92.5981 17.8938C94.9194 17.8938 96.8186 17.1476 98.2431 15.8152L95.4997 13.6834C94.7084 14.2164 93.7587 14.4829 92.5981 14.4829C90.3823 14.4829 88.4831 12.9906 87.7972 10.9121H84.9484V13.1505C86.3728 15.9218 89.2217 17.8938 92.5981 17.8938Z" fill="#34A853"/>
<path d="M87.7972 10.9121C87.639 10.3791 87.5334 9.84617 87.5334 9.25992C87.5334 8.67368 87.639 8.14073 87.7972 7.60778V5.36938H84.9484C84.3681 6.54188 84.0515 7.82096 84.0515 9.25992C84.0515 10.6989 84.3681 11.978 84.9484 13.1505L87.7972 10.9121Z" fill="#FABB05"/>
<path d="M92.5981 4.0371C93.8643 4.0371 94.9721 4.46346 95.869 5.31618L98.2958 2.86461C96.8186 1.47894 94.8666 0.626221 92.5981 0.626221C89.2744 0.626221 86.3728 2.54484 84.9484 5.36948L87.7972 7.60786C88.4303 5.58265 90.3296 4.0371 92.5981 4.0371Z" fill="#E94235"/>
</svg>
