<svg width="147" height="26" viewBox="0 0 147 26" fill="none" xmlns="http://www.w3.org/2000/svg">
<path d="M0.790894 4.33962H5.85553C6.59413 4.33962 7.22721 4.4995 7.86029 4.81927C8.49337 5.13904 8.96817 5.5654 9.33747 6.15165C9.70677 6.6846 9.86504 7.32414 9.86504 8.01697C9.86504 8.70981 9.70677 9.29605 9.39023 9.77571C9.07369 10.2554 8.59888 10.6284 8.07131 10.8949V11.0015C8.75715 11.268 9.28472 11.641 9.70677 12.174C10.1288 12.7069 10.3398 13.3998 10.3398 14.1459C10.3398 14.892 10.1288 15.5849 9.75953 16.1178C9.39023 16.7041 8.86266 17.1304 8.22958 17.5035C7.5965 17.8233 6.85791 17.9831 6.11932 17.9831H0.843649V4.33962H0.790894ZM5.75002 10.0422C6.33034 10.0422 6.85791 9.829 7.22721 9.45594C7.5965 9.08287 7.80753 8.65651 7.80753 8.12356C7.80753 7.59061 7.64926 7.21755 7.27996 6.84448C6.91066 6.47142 6.43586 6.25824 5.85553 6.25824H2.90116V9.98889H5.75002V10.0422ZM6.06656 15.9579C6.69964 15.9579 7.22721 15.7448 7.5965 15.3717C7.9658 14.9453 8.17683 14.519 8.17683 13.986C8.17683 13.4531 7.9658 12.9734 7.5965 12.547C7.22721 12.174 6.64688 11.9608 6.0138 11.9608H2.90116V16.0112H6.06656V15.9579ZM13.2942 17.1837C12.6611 16.4909 12.3974 15.4783 12.3974 14.2525V8.23015H14.4549V13.9327C14.4549 14.7321 14.6659 15.3184 15.0352 15.6915C15.4045 16.0645 15.8793 16.2777 16.5124 16.2777C16.9872 16.2777 17.4092 16.1711 17.8313 15.9046C18.2533 15.6382 18.5171 15.3184 18.6754 14.892C18.8864 14.4657 18.9919 13.986 18.9919 13.5064V8.23015H21.0495V17.9298H19.0975V16.6508H18.9919C18.7282 17.1304 18.3061 17.5035 17.7785 17.77C17.251 18.0364 16.6179 18.1963 16.0376 18.1963C14.7714 18.2496 13.8745 17.8765 13.2942 17.1837ZM26.5361 17.3969L22.5266 8.23015H24.8479L27.5385 14.8387H27.5913L30.2291 8.23015H32.4977L26.5889 22.0336H24.4259L26.5361 17.3969ZM37.6678 8.23015H39.8836L41.8356 15.1585H41.8883L44.0514 8.23015H46.1616L48.3246 15.1585H48.3774L50.3294 8.23015H52.5452L49.4853 17.9298H47.3223L45.1065 10.9482H45.0537L42.8907 17.9298H40.7277L37.6678 8.23015ZM54.2862 6.41812C54.0224 6.15165 53.8641 5.83188 53.8641 5.40552C53.8641 5.03245 54.0224 4.65939 54.2862 4.39291C54.5499 4.12644 54.8665 3.96655 55.2885 3.96655C55.7106 3.96655 56.0271 4.12644 56.2909 4.39291C56.5547 4.65939 56.713 4.97916 56.713 5.40552C56.713 5.77858 56.5547 6.15165 56.2909 6.41812C56.0271 6.6846 55.7106 6.84448 55.2885 6.84448C54.8665 6.84448 54.5499 6.6846 54.2862 6.41812ZM54.2334 8.23015H56.2909V17.9298H54.2334V8.23015ZM61.7248 17.8766C61.3555 17.7167 61.039 17.5568 60.828 17.3436C60.3004 16.8107 60.0366 16.0645 60.0366 15.1052V10.0955H58.3484V8.23015H60.0366V5.51211H62.0941V8.23015H64.4154V10.0955H62.0941V14.6789C62.0941 15.2118 62.1996 15.5849 62.4107 15.798C62.6217 16.0645 62.9383 16.1711 63.4131 16.1711C63.6241 16.1711 63.8351 16.1178 63.9934 16.0645C64.1516 16.0112 64.3099 15.9046 64.5209 15.798V17.8233C64.0989 18.0364 63.6241 18.0897 62.991 18.0897C62.5162 18.0897 62.0941 18.0364 61.7248 17.8766ZM66.684 4.33962H68.7415V8.07027L68.636 9.56253H68.7415C69.0053 9.08287 69.4273 8.70981 69.9549 8.44333C70.4825 8.12356 71.0628 8.01697 71.6959 8.01697C72.8565 8.01697 73.7534 8.33674 74.3864 9.02958C75.0195 9.72241 75.2833 10.6817 75.2833 11.8542V17.9831H73.2258V12.1207C73.2258 11.3746 73.0148 10.8416 72.6455 10.4685C72.2762 10.0955 71.7486 9.93559 71.1683 9.93559C70.6935 9.93559 70.2714 10.0422 69.9021 10.3087C69.5328 10.5751 69.2163 10.9482 69.0053 11.3746C68.7942 11.8009 68.6887 12.2806 68.6887 12.7602V17.9831H66.6312V4.33962H66.684Z" fill="white"/>
<path fill-rule="evenodd" clip-rule="evenodd" d="M83.7427 0.272705H95.852L95.851 12.382H83.7427V0.272705Z" fill="#F65314"/>
<path fill-rule="evenodd" clip-rule="evenodd" d="M97.0883 0.272705H109.198C109.198 4.30914 109.198 8.34558 109.197 12.382C105.161 12.3813 101.125 12.382 97.089 12.382C97.0876 8.34558 97.0883 4.30914 97.0883 0.272705Z" fill="#7FBB41"/>
<path fill-rule="evenodd" clip-rule="evenodd" d="M83.7427 13.6177C87.7791 13.6191 91.8155 13.6172 95.852 13.6191C95.8527 17.6555 95.852 21.6913 95.852 25.7277H83.7427V13.6177Z" fill="#00A1F1"/>
<path fill-rule="evenodd" clip-rule="evenodd" d="M97.0891 13.6188C101.125 13.6174 105.161 13.6181 109.198 13.6181V25.7274H97.0884C97.0891 21.691 97.0877 17.6545 97.0891 13.6188Z" fill="#FFBB00"/>
<path d="M121.522 5.76563C124.33 5.76563 126.285 7.7008 126.285 10.5183C126.285 13.3458 124.29 15.291 121.452 15.291H118.344V20.2342H116.098V5.76562H121.522V5.76563ZM118.344 13.4059H120.921C122.876 13.4059 123.989 12.3533 123.989 10.5283C123.989 8.70359 122.876 7.66077 120.931 7.66077H118.344V13.4059Z" fill="white"/>
<path d="M126.872 17.2363C126.872 15.3913 128.285 14.2583 130.792 14.1179L133.68 13.9475V13.1354C133.68 11.9622 132.887 11.2604 131.564 11.2604C130.311 11.2604 129.528 11.8619 129.338 12.8045H127.293C127.413 10.8993 129.037 9.49561 131.644 9.49561C134.201 9.49561 135.835 10.8492 135.835 12.9648V20.2342H133.76V18.4996H133.71C133.098 19.6728 131.765 20.4147 130.381 20.4147C128.315 20.4147 126.872 19.1312 126.872 17.2363ZM133.68 16.2838V15.4516L131.083 15.6119C129.789 15.7022 129.057 16.2737 129.057 17.1762C129.057 18.0985 129.819 18.7002 130.982 18.7002C132.496 18.7002 133.68 17.6573 133.68 16.2838Z" fill="white"/>
<path d="M137.795 24.1145V22.3598C137.955 22.3999 138.316 22.3999 138.496 22.3999C139.499 22.3999 140.041 21.9788 140.371 20.896C140.371 20.8759 140.562 20.2543 140.562 20.2442L136.752 9.68604H139.098L141.765 18.269H141.805L144.473 9.68604H146.759L142.808 20.7855C141.906 23.3425 140.863 24.1646 138.677 24.1646C138.496 24.1646 137.955 24.1445 137.795 24.1145Z" fill="white"/>
</svg>
