<svg width="18" height="22" viewBox="0 0 18 22" fill="none" xmlns="http://www.w3.org/2000/svg">
<path d="M8.99796 1C6.863 1 5.12732 2.7296 5.12732 4.85708V4.95047H2.56863C2.36084 4.95047 2.18564 5.10881 2.16527 5.31588L1 18.4178C1 18.43 1 18.4421 1 18.4543C1 19.8591 2.29972 21 3.90094 21H14.0991C15.7003 21 17 19.8591 17 18.4543C17 18.4421 17 18.43 17 18.4178L15.8307 5.31588C15.8103 5.10881 15.6392 4.95047 15.4273 4.95047H12.8686V4.85708C12.8686 2.7296 11.1329 1 8.99796 1ZM5.93405 4.85708C5.93405 3.17215 7.30711 1.8039 8.99796 1.8039C10.6888 1.8039 12.0619 3.17215 12.0619 4.85708V4.95047H5.93405V4.85708ZM15.0565 5.75436L16.1892 18.4706C16.177 19.4247 15.244 20.1961 14.095 20.1961H3.90094C2.75197 20.1961 1.81895 19.4247 1.80672 18.4706L2.93939 5.75436H5.12732V7.61388C5.12732 7.83719 5.3066 8.01583 5.53068 8.01583C5.75477 8.01583 5.93405 7.83719 5.93405 7.61388V5.75436H12.0619V7.61388C12.0619 7.83719 12.2412 8.01583 12.4652 8.01583C12.6893 8.01583 12.8686 7.83719 12.8686 7.61388V5.75436H15.0565Z" fill="white" stroke="white" stroke-width="0.25"/>
</svg>
