<svg width="20" height="20" viewBox="0 0 20 20" fill="none" xmlns="http://www.w3.org/2000/svg">
<path fill-rule="evenodd" clip-rule="evenodd" d="M15.123 8.54252C15.123 12.471 12.0349 15.585 8.3115 15.585C4.58811 15.585 1.5 12.471 1.5 8.54252C1.5 4.61401 4.58811 1.5 8.3115 1.5C12.0349 1.5 15.123 4.61401 15.123 8.54252ZM13.7967 14.9607C12.333 16.2831 10.4134 17.085 8.3115 17.085C3.72119 17.085 0 13.2604 0 8.54252C0 3.82461 3.72119 0 8.3115 0C12.9018 0 16.623 3.82461 16.623 8.54252C16.623 10.4228 16.0319 12.1612 15.0303 13.5722C15.0762 13.6046 15.1198 13.6418 15.1606 13.6837L19.3471 17.9865C19.7077 18.3572 19.7077 18.9582 19.3471 19.3288C18.9864 19.6995 18.4017 19.6995 18.041 19.3288L13.8546 15.026C13.8341 15.005 13.8148 14.9832 13.7967 14.9607Z" fill="white"/>
</svg>
