<svg width="16" height="20" viewBox="0 0 16 20" fill="none" xmlns="http://www.w3.org/2000/svg">
<path d="M7.93183 10.7766C7.9513 10.7766 7.97078 10.7766 7.99415 10.7766C8.00194 10.7766 8.00973 10.7766 8.01752 10.7766C8.02921 10.7766 8.04479 10.7766 8.05647 10.7766C9.19779 10.7559 10.121 10.3293 10.8026 9.51336C12.3023 7.71588 12.053 4.6345 12.0257 4.34044C11.9284 2.13295 10.9468 1.07683 10.1365 0.583972C9.53278 0.215366 8.82774 0.0165666 8.04089 0H8.01363C8.00973 0 8.00194 0 7.99805 0H7.97467C7.5423 0 6.69313 0.0745496 5.87902 0.567405C5.06102 1.06026 4.06383 2.11638 3.96645 4.34044C3.93918 4.6345 3.68988 7.71588 5.18956 9.51336C5.86734 10.3293 6.79051 10.7559 7.93183 10.7766ZM5.00648 4.44398C5.00648 4.43156 5.01038 4.41913 5.01038 4.41085C5.13892 1.44129 7.12161 1.12239 7.97078 1.12239H7.98636C7.99415 1.12239 8.00584 1.12239 8.01752 1.12239C9.06924 1.14724 10.8572 1.60282 10.9779 4.41085C10.9779 4.42328 10.9779 4.4357 10.9818 4.44398C10.9857 4.47298 11.2584 7.28929 10.0197 8.772C9.52888 9.36012 8.87448 9.65003 8.01363 9.65831C8.00584 9.65831 8.00194 9.65831 7.99415 9.65831C7.98636 9.65831 7.98247 9.65831 7.97467 9.65831C7.11772 9.65003 6.45942 9.36012 5.97251 8.772C4.73771 7.29758 5.00259 4.46883 5.00648 4.44398Z" fill="white"/>
<path d="M15.9989 15.8874C15.9989 15.8832 15.9989 15.8791 15.9989 15.8749C15.9989 15.8418 15.995 15.8087 15.995 15.7714C15.9716 14.9513 15.921 13.0338 14.2305 12.4208C14.2188 12.4167 14.2032 12.4125 14.1915 12.4084C12.4347 11.9321 10.974 10.8553 10.9584 10.8428C10.7208 10.6647 10.3936 10.7269 10.2261 10.9795C10.0586 11.2321 10.1171 11.58 10.3547 11.7581C10.4209 11.8078 11.9712 12.9551 13.911 13.4852C14.8186 13.829 14.9199 14.8602 14.9472 15.8045C14.9472 15.8418 14.9472 15.8749 14.9511 15.9081C14.955 16.2808 14.9316 16.8565 14.8693 17.1878C14.2382 17.5689 11.7648 18.8859 8.00193 18.8859C4.25469 18.8859 1.76561 17.5647 1.13069 17.1837C1.06836 16.8524 1.0411 16.2767 1.04889 15.9039C1.04889 15.8708 1.05278 15.8377 1.05278 15.8004C1.08005 14.8561 1.18133 13.8248 2.08892 13.4811C4.02876 12.9509 5.57908 11.7996 5.6453 11.754C5.88291 11.5759 5.94134 11.228 5.77384 10.9754C5.60635 10.7227 5.27914 10.6606 5.04153 10.8387C5.02595 10.8511 3.57302 11.9279 1.80846 12.4042C1.79288 12.4084 1.7812 12.4125 1.76951 12.4167C0.0789655 13.0338 0.0283271 14.9513 0.00495551 15.7672C0.00495551 15.8045 0.00495542 15.8377 0.00106015 15.8708C0.00106015 15.8749 0.00106015 15.8791 0.00106015 15.8832C-0.00283511 16.0986 -0.00673029 17.2044 0.199719 17.7594C0.238671 17.8671 0.308786 17.9582 0.402272 18.0203C0.51913 18.1031 3.31983 20 8.00583 20C12.6918 20 15.4925 18.099 15.6094 18.0203C15.699 17.9582 15.773 17.8671 15.8119 17.7594C16.0067 17.2085 16.0028 16.1027 15.9989 15.8874Z" fill="white"/>
</svg>
