<svg width="200" height="27" viewBox="0 0 200 27" fill="none" xmlns="http://www.w3.org/2000/svg">
<rect x="102.875" y="0.5" width="45.125" height="26" rx="1.5" fill="white" stroke="#DDDCDC"/>
<path d="M129.1 6.74629H121.467V20.2539H129.1V6.74629Z" fill="#FF5F00"/>
<path d="M121.952 13.5019C121.95 12.2009 122.25 10.9165 122.827 9.74621C123.404 8.57588 124.244 7.55024 125.283 6.74694C123.997 5.75104 122.451 5.13175 120.824 4.95985C119.196 4.78794 117.553 5.07036 116.081 5.77483C114.609 6.47929 113.368 7.57738 112.499 8.94359C111.631 10.3098 111.17 11.889 111.17 13.5007C111.17 15.1125 111.631 16.6917 112.499 18.0579C113.368 19.4241 114.609 20.5222 116.081 21.2266C117.553 21.9311 119.196 22.2135 120.824 22.0416C122.451 21.8697 123.997 21.2504 125.283 20.2545C124.244 19.4515 123.405 18.4262 122.827 17.2563C122.25 16.0864 121.951 14.8026 121.952 13.5019V13.5019Z" fill="#EB001B"/>
<path d="M139.398 13.5012C139.398 15.113 138.937 16.6923 138.069 18.0586C137.2 19.4248 135.959 20.5229 134.487 21.2273C133.014 21.9316 131.371 22.2139 129.743 22.0417C128.116 21.8696 126.57 21.25 125.283 20.2538C126.322 19.45 127.162 18.4245 127.739 17.2545C128.316 16.0846 128.616 14.8008 128.616 13.5C128.616 12.1992 128.316 10.9154 127.739 9.74544C127.162 8.57549 126.322 7.54994 125.283 6.74618C126.57 5.74997 128.116 5.13038 129.743 4.95823C131.371 4.78608 133.014 5.06832 134.487 5.77268C135.959 6.47705 137.2 7.57512 138.069 8.94137C138.937 10.3076 139.398 11.8869 139.398 13.4988V13.5012Z" fill="#F79E1B"/>
<path d="M138.564 18.8222V18.5454H138.678V18.4881H138.39V18.5454H138.513V18.8222H138.564ZM139.124 18.8222V18.4881H139.037L138.935 18.7267L138.833 18.4881H138.756V18.8222H138.819V18.5717L138.913 18.7888H138.979L139.073 18.5717V18.8246L139.124 18.8222Z" fill="#F79E1B"/>
<rect x="0.5" y="0.5" width="44" height="26" rx="1.5" fill="white" stroke="#DDDCDC"/>
<path d="M29.4148 8.59082H26.5775C26.3837 8.59082 26.219 8.73329 26.1887 8.92635L25.0422 16.276C25.0198 16.4211 25.1305 16.5516 25.2754 16.5516H26.7303C26.8661 16.5516 26.982 16.4518 27.0031 16.3159L27.3286 14.2322C27.3589 14.0391 27.5237 13.8967 27.7174 13.8967H28.6148C30.4835 13.8967 31.5615 12.9833 31.8436 11.1725C31.9701 10.3803 31.8488 9.75851 31.4811 9.32312C31.0792 8.8438 30.3649 8.59082 29.4148 8.59082ZM29.7429 11.275C29.5874 12.3043 28.8099 12.3043 28.0574 12.3043H27.6291L27.9296 10.383C27.948 10.2671 28.0469 10.1819 28.1628 10.1819H28.3592C28.8718 10.1819 29.3555 10.1819 29.6045 10.4762C29.7535 10.6519 29.7996 10.9142 29.7429 11.275Z" fill="#009ADE"/>
<path d="M9.18231 8.59102H6.345C6.15128 8.59102 5.98655 8.73349 5.95624 8.92655L4.80971 16.2762C4.78731 16.4213 4.89801 16.5518 5.04297 16.5518H6.39771C6.59144 16.5518 6.75617 16.4093 6.78648 16.2163L7.09617 14.2337C7.12648 14.0407 7.29121 13.8982 7.48493 13.8982H8.38238C10.2511 13.8982 11.3291 12.9848 11.6111 11.1741C11.7376 10.3818 11.6164 9.76004 11.2487 9.32466C10.8467 8.844 10.1312 8.59102 9.18231 8.59102ZM9.50914 11.2752C9.35363 12.3045 8.57611 12.3045 7.82362 12.3045H7.39532L7.69579 10.3832C7.71424 10.2673 7.81308 10.1821 7.92905 10.1821H8.12541C8.63805 10.1821 9.12169 10.1821 9.37077 10.4764C9.521 10.6521 9.56581 10.9144 9.50914 11.2752Z" fill="#002F87"/>
<path d="M17.6615 11.2418H16.3028C16.1868 11.2418 16.0867 11.327 16.0695 11.4428L16.0102 11.8263L15.9154 11.6878C15.6215 11.2564 14.9652 11.1126 14.3102 11.1126C12.8092 11.1126 11.5269 12.2617 11.2779 13.8727C11.1474 14.6769 11.3319 15.4452 11.7839 15.9817C12.199 16.4744 12.7894 16.6794 13.4945 16.6794C14.7043 16.6794 15.375 15.8939 15.375 15.8939L15.3144 16.276C15.292 16.4211 15.4027 16.5529 15.5477 16.5529H16.7706C16.9644 16.5529 17.1291 16.4105 17.1594 16.2174L17.8934 11.5187C17.9172 11.3736 17.8065 11.2418 17.6615 11.2418ZM15.7678 13.914C15.636 14.6982 15.0205 15.2241 14.2351 15.2241C13.8411 15.2241 13.5261 15.0963 13.3232 14.854C13.1229 14.613 13.0464 14.2708 13.1097 13.89C13.2322 13.1125 13.8582 12.5692 14.6318 12.5692C15.0179 12.5692 15.3302 12.6984 15.5371 12.9434C15.7467 13.1897 15.8284 13.5345 15.7678 13.914Z" fill="#002F87"/>
<path d="M37.8953 11.2418H36.5366C36.4207 11.2418 36.3205 11.327 36.3034 11.4428L36.2441 11.8263L36.1492 11.6878C35.8553 11.2564 35.199 11.1126 34.5441 11.1126C33.043 11.1126 31.7608 12.2617 31.5117 13.8727C31.3812 14.6769 31.5657 15.4452 32.0177 15.9817C32.4329 16.4744 33.0233 16.6794 33.7283 16.6794C34.9381 16.6794 35.6089 15.8939 35.6089 15.8939L35.5482 16.276C35.5258 16.4211 35.6365 16.5529 35.7815 16.5529H37.0045C37.1982 16.5529 37.3629 16.4105 37.3932 16.2174L38.1273 11.5187C38.151 11.3736 38.0403 11.2418 37.8953 11.2418ZM36.0016 13.914C35.8698 14.6982 35.2544 15.2241 34.4689 15.2241C34.0749 15.2241 33.7599 15.0963 33.557 14.854C33.3567 14.613 33.2802 14.2708 33.3435 13.89C33.4661 13.1125 34.092 12.5692 34.8656 12.5692C35.2517 12.5692 35.5641 12.6984 35.771 12.9434C35.9792 13.1897 36.0609 13.5345 36.0016 13.914Z" fill="#009ADE"/>
<path d="M24.8958 11.2418H23.5306C23.4001 11.2418 23.2775 11.307 23.2051 11.4162L21.3219 14.2189L20.5232 11.5254C20.4732 11.3563 20.3203 11.2418 20.145 11.2418H18.8035C18.6414 11.2418 18.5267 11.4029 18.5794 11.5573L20.0831 16.0164L18.669 18.0322C18.5583 18.1906 18.6704 18.409 18.8615 18.409H20.2254C20.3546 18.409 20.4758 18.3451 20.5496 18.2372L25.0909 11.6159C25.199 11.4588 25.0869 11.2418 24.8958 11.2418Z" fill="#002F87"/>
<path d="M39.4964 8.79358L38.3314 16.2777C38.309 16.4228 38.4197 16.5533 38.5647 16.5533H39.7363C39.93 16.5533 40.0947 16.4108 40.125 16.2178L41.2729 8.86814C41.2953 8.72301 41.1846 8.59253 41.0396 8.59253H39.7297C39.6124 8.5912 39.5135 8.67641 39.4964 8.79358Z" fill="#009ADE"/>
<rect x="51.125" y="0.5" width="45.125" height="26" rx="1.5" fill="white" stroke="#DDDCDC"/>
<path d="M68.7229 19.4646L70.5431 8.77513H73.4565L71.6343 19.4646H68.7229Z" fill="#005098"/>
<path d="M82.201 9.03927C81.6236 8.82225 80.7187 8.5909 79.5906 8.5909C76.7119 8.5909 74.685 10.0404 74.6666 12.1186C74.6502 13.6541 76.1141 14.512 77.2197 15.0218C78.3539 15.5459 78.7347 15.8796 78.7286 16.3485C78.7204 17.0651 77.8237 17.3926 76.9863 17.3926C75.8193 17.3926 75.2009 17.2309 74.2448 16.8316L73.8701 16.6617L73.4607 19.0551C74.1404 19.354 75.3995 19.612 76.7058 19.6263C79.7687 19.6263 81.7567 18.1932 81.7792 15.9758C81.7895 14.7597 81.0135 13.8343 79.3326 13.0726C78.315 12.5792 77.6906 12.2475 77.6967 11.748C77.6967 11.3037 78.2249 10.8287 79.3653 10.8287C80.3174 10.8144 81.0074 11.0212 81.5458 11.2382L81.8079 11.361L82.201 9.03927Z" fill="#005098"/>
<path d="M89.6718 8.78535H87.4197C86.7216 8.78535 86.1995 8.97576 85.8944 9.67188L81.5683 19.4666H84.6271C84.6271 19.4666 85.1266 18.1501 85.2413 17.8614C85.575 17.8614 88.5478 17.8655 88.9716 17.8655C89.0597 18.2402 89.3258 19.4666 89.3258 19.4666H92.0284L89.6718 8.78535ZM86.0787 15.6748C86.3203 15.0586 87.2395 12.6877 87.2395 12.6877C87.2232 12.7163 87.4791 12.0694 87.6265 11.6681L87.8231 12.5894C87.8231 12.5894 88.3799 15.1405 88.4966 15.6748H86.0787V15.6748Z" fill="#005098"/>
<path d="M66.2784 8.78331L63.4263 16.072L63.1233 14.5918C62.5931 12.8842 60.9388 11.0334 59.0879 10.108L61.6963 19.4543L64.7776 19.4502L69.3638 8.78331H66.2784Z" fill="#005098"/>
<path d="M60.7811 8.77731H56.0843L56.0454 8.99842C59.7 9.8829 62.118 12.0204 63.1212 14.5899L62.0996 9.67816C61.9256 9.00252 61.4137 8.79983 60.7811 8.77731Z" fill="#F79E1B"/>
<rect x="154.125" width="45" height="27" rx="2" fill="#26A6D1"/>
<path d="M161.817 9L157.5 17.9884H162.668L163.309 16.5553H164.773L165.414 17.9884H171.102V16.8946L171.609 17.9884H174.551L175.058 16.8715V17.9884H186.888L188.327 16.5925L189.674 17.9884L195.75 18L191.42 13.5193L195.75 9H189.768L188.368 10.3701L187.063 9H174.193L173.088 11.32L171.957 9H166.8V10.0566L166.227 9C166.227 9 161.817 9 161.817 9ZM162.817 10.2764H165.336L168.199 16.3715V10.2764H170.959L173.17 14.6465L175.209 10.2764H177.954V16.7262H176.284L176.27 11.6721L173.834 16.7262H172.34L169.89 11.6721V16.7262H166.453L165.802 15.2802H162.281L161.631 16.7249H159.79C159.79 16.7249 162.817 10.2764 162.817 10.2764ZM179.483 10.2764H186.276L188.354 12.3881L190.499 10.2764H192.577L189.42 13.518L192.577 16.7224H190.405L188.327 14.5861L186.171 16.7224H179.483V10.2764ZM164.042 11.3676L162.882 13.9435H165.201L164.042 11.3676ZM181.16 11.6118V12.7892H184.867V14.1015H181.16V15.3869H185.317L187.249 13.4937L185.399 11.6107H181.16V11.6118Z" fill="white"/>
</svg>
