<?xml version="1.0" encoding="UTF-8"?>
<!DOCTYPE svg PUBLIC "-//W3C//DTD SVG 1.1//EN" "http://www.w3.org/Graphics/SVG/1.1/DTD/svg11.dtd">
<!-- Creator: CorelDRAW 2021 (64-Bit) -->
<svg xmlns="http://www.w3.org/2000/svg" xml:space="preserve" width="60px" height="24px" version="1.1" style="shape-rendering:geometricPrecision; text-rendering:geometricPrecision; image-rendering:optimizeQuality; fill-rule:evenodd; clip-rule:evenodd"
viewBox="0 0 6.64 2.65"
 xmlns:xlink="http://www.w3.org/1999/xlink"
 xmlns:xodm="http://www.corel.com/coreldraw/odm/2003">
 <defs>
  <style type="text/css">
   <![CDATA[
    .fil0 {fill:#060809}
    .fil1 {fill:#0FA0EA}
   ]]>
  </style>
 </defs>
 <g id="Слой_x0020_1">
  <metadata id="CorelCorpID_0Corel-Layer"/>
  <g id="_2711445902608">
   <g>
    <path class="fil0" d="M0.54 1.49c-0.18,0 -0.38,0.09 -0.5,0.18l0.11 0.21c0.09,-0.08 0.23,-0.15 0.37,-0.15 0.12,0 0.19,0.04 0.19,0.13 0,0.05 -0.05,0.08 -0.13,0.09 -0.33,0.04 -0.58,0.13 -0.58,0.38 0,0.2 0.14,0.32 0.36,0.32 0.16,0 0.3,-0.09 0.36,-0.2l0 0.17 0.3 0 0 -0.71c0,-0.3 -0.21,-0.42 -0.48,-0.42zm-0.11 0.93c-0.08,0 -0.12,-0.04 -0.12,-0.11 0,-0.12 0.14,-0.16 0.39,-0.19 0,0.17 -0.11,0.3 -0.27,0.3zm3.34 -0.71l0 -0.19 -0.29 0 0 1.1 0.31 0 0 -0.53c0,-0.25 0.15,-0.32 0.26,-0.32 0.04,0 0.09,0.01 0.13,0.04l0.06 -0.29c-0.05,-0.02 -0.1,-0.03 -0.14,-0.03 -0.16,0 -0.27,0.07 -0.33,0.22zm1.92 -0.22c-0.17,0 -0.29,0.1 -0.36,0.19 -0.06,-0.12 -0.18,-0.19 -0.34,-0.19 -0.16,0 -0.28,0.09 -0.33,0.2l0 -0.17 -0.3 0 0 1.1 0.31 0 0 -0.57c0,-0.2 0.11,-0.29 0.21,-0.29 0.09,0 0.17,0.05 0.17,0.2l0 0.66 0.31 0 0 -0.57c0,-0.2 0.11,-0.29 0.21,-0.29 0.08,0 0.17,0.06 0.17,0.2l0 0.66 0.31 0 0 -0.76c0,-0.24 -0.16,-0.37 -0.36,-0.37zm-3.57 -0.05l0 0.08 -0.47 0 0 -0.11c0,-0.14 0.08,-0.18 0.15,-0.18 0.04,0 0.09,0.01 0.14,0.03l0.1 -0.22c-0.06,-0.03 -0.16,-0.06 -0.28,-0.06 -0.2,0 -0.43,0.11 -0.43,0.47l0 0.08 -0.18 0 0 0.24 0.18 0 0 0.85 0.32 0 0 -0.85 0.47 0 0 0.85 0.31 0 0 -0.85 0.29 0 0 -0.25 -0.29 0 0 -0.11c0,-0.14 0.08,-0.18 0.16,-0.18 0.08,0 0.14,0.03 0.14,0.03l0.09 -0.22c0,0 -0.1,-0.06 -0.27,-0.06 -0.2,0 -0.43,0.11 -0.43,0.46zm0.78 0.08l0.31 0 0 1.1 -0.31 0 0 -1.1z"/>
    <path class="fil1" d="M4.72 0c-0.84,0 -1.59,0.59 -1.81,1.34l0.31 0c0.18,-0.56 0.78,-1.05 1.5,-1.05 0.88,0 1.63,0.66 1.63,1.7 0,0.23 -0.03,0.44 -0.08,0.63l0.29 0 0.01 -0.01c0.05,-0.19 0.07,-0.4 0.07,-0.62 0,-1.16 -0.84,-1.99 -1.92,-1.99z"/>
   </g>
  </g>
 </g>
</svg>
