<svg width="30" height="23" viewBox="0 0 30 23" fill="none" xmlns="http://www.w3.org/2000/svg">
<path fill-rule="evenodd" clip-rule="evenodd" d="M3.28125 2.06899H26.4491C27.2677 2.06899 27.931 2.73235 27.931 3.55096V19.3481H28.518C29.3366 19.3481 30 18.6847 30 17.8661V1.48197C30 0.663362 29.3366 0 28.518 0H4.76322C3.94461 0 3.28125 0.663362 3.28125 1.48197V2.06899Z" fill="#139AD6"/>
<path d="M1.48197 22.4152H25.2368C26.0554 22.4152 26.7188 21.7518 26.7188 20.9332V4.54911C26.7188 3.7305 26.0554 3.06714 25.2368 3.06714H1.48197C0.663359 3.06714 -2.5034e-06 3.7305 -2.5034e-06 4.54911V20.9332C-2.5034e-06 21.7518 0.663359 22.4152 1.48197 22.4152Z" fill="#139AD6"/>
<path d="M8.44941 7.22339H12.5954C12.8502 7.22339 13.0561 7.42977 13.0561 7.68406C13.0561 7.93835 12.8502 8.14472 12.5954 8.14472H8.44941C8.19466 8.14472 7.98874 7.93835 7.98874 7.68406C7.98874 7.42977 8.19466 7.22339 8.44941 7.22339Z" fill="white"/>
<path d="M2.00002 7.68406C2.00002 7.42977 2.20594 7.22339 2.46069 7.22339H6.6067C6.86145 7.22339 7.06737 7.42977 7.06737 7.68406C7.06737 7.93835 6.86145 8.14472 6.6067 8.14472H2.46069C2.20594 8.14472 2.00002 7.93835 2.00002 7.68406Z" fill="white"/>
<path d="M12.1348 9.52661H12.5954C12.8502 9.52661 13.0561 9.73299 13.0561 9.98728C13.0561 10.2416 12.8502 10.4479 12.5954 10.4479H12.1348C11.88 10.4479 11.6741 10.2416 11.6741 9.98728C11.6741 9.73299 11.88 9.52661 12.1348 9.52661Z" fill="white"/>
<path d="M9.37068 9.52661H10.292C10.5468 9.52661 10.7527 9.73299 10.7527 9.98728C10.7527 10.2416 10.5468 10.4479 10.292 10.4479H9.37068C9.11593 10.4479 8.91001 10.2416 8.91001 9.98728C8.91001 9.73299 9.11593 9.52661 9.37068 9.52661Z" fill="white"/>
<path d="M7.06736 9.52661H7.52803C7.78277 9.52661 7.98869 9.73299 7.98869 9.98728C7.98869 10.2416 7.78277 10.4479 7.52803 10.4479H7.06736C6.81261 10.4479 6.60669 10.2416 6.60669 9.98728C6.60669 9.73299 6.81261 9.52661 7.06736 9.52661Z" fill="white"/>
<path d="M4.30336 9.52661H5.2247C5.47945 9.52661 5.68536 9.73299 5.68536 9.98728C5.68536 10.2416 5.47945 10.4479 5.2247 10.4479H4.30336C4.04861 10.4479 3.84269 10.2416 3.84269 9.98728C3.84269 9.73299 4.04861 9.52661 4.30336 9.52661Z" fill="white"/>
<path d="M2.78314 9.66022C2.87113 9.74775 2.92134 9.86292 2.92134 9.9873C2.92134 10.1117 2.87113 10.2268 2.78775 10.3144C2.70068 10.3973 2.58045 10.448 2.46067 10.448C2.3409 10.448 2.22159 10.3973 2.1336 10.3144C2.05068 10.2268 2 10.1071 2 9.9873C2 9.86752 2.05068 9.74775 2.1336 9.66483C2.30405 9.48978 2.6173 9.48978 2.78314 9.66022Z" fill="white"/>
<path d="M20.2694 16.4265H24.4154V19.1905H20.2694V16.4265Z" fill="white"/>
<path d="M14.2807 16.4265H18.4267V19.1905H14.2807V16.4265Z" fill="white"/>
<path d="M8.29202 16.4265H12.438V19.1905H8.29202V16.4265Z" fill="white"/>
<path d="M2.30334 16.4265H6.44936V19.1905H2.30334V16.4265Z" fill="white"/>
</svg>
