<svg id="Слой_1" data-name="Слой 1" xmlns="http://www.w3.org/2000/svg" viewBox="0 0 25.00049 20">
  <defs>
    <style>
      .cls-1 {
        fill: #139ad6;
      }
    </style>
  </defs>
  <title>shipping</title>
  <path class="cls-1" d="M24.876,14.27344a0.60175,0.60175,0,0,1,.625.625v1.25a0.60175,0.60175,0,0,1-.625.625H23.001a3.73441,3.73441,0,0,1-3.75,3.75,3.73441,3.73441,0,0,1-3.75-3.75h-5a3.61732,3.61732,0,0,1-1.09375,2.65625A3.61667,3.61667,0,0,1,6.751,20.52344a3.61542,3.61542,0,0,1-2.65674-1.09375,3.61544,3.61544,0,0,1-1.09375-2.65625v-5h5.938a0.33606,0.33606,0,0,0,.3125-0.3125v-0.625a0.33606,0.33606,0,0,0-.3125-0.3125H0.813a0.299,0.299,0,0,1-.21484-0.09766,0.299,0.299,0,0,1-.09766-0.21484v-0.625A0.299,0.299,0,0,1,.59814,9.37109,0.299,0.299,0,0,1,.813,9.27344h9.37549a0.33606,0.33606,0,0,0,.3125-0.3125v-0.625a0.33606,0.33606,0,0,0-.3125-0.3125H2.063a0.33606,0.33606,0,0,1-.3125-0.3125v-0.625a0.33606,0.33606,0,0,1,.3125-0.3125h9.37549a0.33606,0.33606,0,0,0,.3125-0.3125v-0.625a0.33606,0.33606,0,0,0-.3125-0.3125H0.813A0.299,0.299,0,0,1,.59814,5.42578,0.299,0.299,0,0,1,.50049,5.21094v-0.625A0.299,0.299,0,0,1,.59814,4.37109,0.299,0.299,0,0,1,.813,4.27344h2.1875v-1.875a1.80755,1.80755,0,0,1,.54688-1.32812A1.80787,1.80787,0,0,1,4.876.52344h10a1.80911,1.80911,0,0,1,1.32813.54688A1.80944,1.80944,0,0,1,16.751,2.39844v1.875h1.71875a1.80911,1.80911,0,0,1,1.32813.54688L23.7041,8.72656a1.80944,1.80944,0,0,1,.54688,1.32813v4.21875h0.625Zm-18.125,4.375a1.875,1.875,0,1,0-1.32812-3.20312A1.875,1.875,0,0,0,6.751,18.64844Zm15.625-8.125V10.05469L18.46973,6.14844H16.751v4.375h5.625Zm-3.125,8.125a1.8672,1.8672,0,1,0-1.32812-.54687A1.80723,1.80723,0,0,0,19.251,18.64844Z" transform="translate(-0.50049 -0.52344)"/>
</svg>
