<?xml version="1.0" encoding="utf-8"?>
<!-- Generator: Adobe Illustrator 19.2.0, SVG Export Plug-In . SVG Version: 6.00 Build 0)  -->
<svg version="1.1" id="Слой_1" xmlns="http://www.w3.org/2000/svg" xmlns:xlink="http://www.w3.org/1999/xlink" x="0px" y="0px"
	 viewBox="0 0 153.1 22.2" style="enable-background:new 0 0 153.1 22.2;" xml:space="preserve">
<style type="text/css">
	.st0{display:none;fill:#FFFFFF;}
	.st1{fill:#EFEFEF;}
	.st2{fill:#EA001B;}
	.st3{fill:#F79F1A;}
	.st4{fill:#FF5F01;}
	.st5{fill:#3C58BF;}
	.st6{fill:#293688;}
	.st7{fill:#FFBC00;}
	.st8{fill:#F7981D;}
	.st9{fill:#ED7C00;}
	.st10{fill:#051244;}
	.st11{fill:#306FC5;}
	.st12{fill:#FFFFFF;}
	.st13{fill:#E8E8E8;}
	.st14{fill:#F26E21;}
	.st15{fill:#0B161F;}
	.st16{clip-path:url(#SVGID_2_);fill:#F26E21;}
</style>
<g>
	<path class="st0" d="M71.9,21.5h-31c-1.1,0-2-0.9-2-2v-17c0-1.1,0.9-2,2-2h31c1.1,0,2,0.9,2,2v17C73.9,20.6,73,21.5,71.9,21.5z"/>
	<path class="st1" d="M71.9,22h-31c-1.4,0-2.5-1.1-2.5-2.5v-17c0-1.4,1.1-2.5,2.5-2.5h31c1.4,0,2.5,1.1,2.5,2.5v17
		C74.4,20.9,73.3,22,71.9,22z M40.9,1c-0.8,0-1.5,0.7-1.5,1.5v17c0,0.8,0.7,1.5,1.5,1.5h31c0.8,0,1.5-0.7,1.5-1.5v-17
		c0-0.8-0.7-1.5-1.5-1.5H40.9z"/>
</g>
<path class="st2" d="M54.2,11.4c0-2,0.9-3.8,2.3-5C55.4,5.5,54.1,5,52.6,5c-3.4,0-6.2,2.9-6.2,6.4s2.8,6.4,6.2,6.4
	c1.5,0,2.8-0.5,3.9-1.4C55.1,15.3,54.2,13.5,54.2,11.4z"/>
<path class="st3" d="M60.4,5.1c-1.5,0-2.8,0.5-3.9,1.3c1.4,1.2,2.2,3,2.2,5.1c-0.1,2-1,3.8-2.4,5c1,0.9,2.4,1.5,3.9,1.5
	c3.4,0.1,6.2-2.7,6.3-6.3C66.5,8.1,63.8,5.2,60.4,5.1z"/>
<path class="st4" d="M58.6,11.3c0-2-0.9-3.8-2.3-5c-1.4,1.2-2.3,3-2.3,5s0.9,3.8,2.3,5C57.7,15.1,58.6,13.3,58.6,11.3z"/>
<g>
	<path class="st0" d="M33.5,21.5h-31c-1.1,0-2-0.9-2-2v-17c0-1.1,0.9-2,2-2h31c1.1,0,2,0.9,2,2v17C35.5,20.6,34.6,21.5,33.5,21.5z"
		/>
	<path class="st1" d="M33.5,22h-31C1.1,22,0,20.9,0,19.5v-17C0,1.1,1.1,0,2.5,0h31C34.9,0,36,1.1,36,2.5v17C36,20.9,34.9,22,33.5,22
		z M2.5,1C1.7,1,1,1.7,1,2.5v17C1,20.3,1.7,21,2.5,21h31c0.8,0,1.5-0.7,1.5-1.5v-17C35,1.7,34.3,1,33.5,1H2.5z"/>
</g>
<polygon class="st5" points="13.9,15.4 15.3,7 17.4,7 16.1,15.4 "/>
<polygon class="st6" points="13.9,15.4 15.7,7 17.4,7 16.1,15.4 "/>
<path class="st5" d="M23.8,7c-0.4-0.2-1.1-0.4-2-0.4c-2.1,0-3.7,1.2-3.7,2.9c0,1.3,1.1,1.9,1.9,2.4c1,0.4,1.2,0.7,1.2,1.1
	c0,0.6-0.7,0.8-1.3,0.8c-0.9,0-1.3-0.1-2.1-0.5l-0.3-0.1l-0.3,1.9c0.5,0.2,1.5,0.5,2.4,0.5c2.3,0,3.8-1.2,3.8-3c0-1-0.6-1.7-1.8-2.4
	c-0.8-0.4-1.2-0.7-1.2-1.1s0.4-0.8,1.2-0.8c0.7,0,1.2,0.1,1.6,0.3l0.2,0.1L23.8,7L23.8,7z"/>
<path class="st6" d="M23.8,7c-0.4-0.2-1.1-0.4-2-0.4c-2.1,0-3.3,1.2-3.3,2.9c0,1.3,0.7,1.9,1.5,2.4c1,0.4,1.2,0.7,1.2,1.1
	c0,0.6-0.7,0.8-1.3,0.8c-0.9,0-1.3-0.1-2.1-0.5l-0.3-0.1l-0.3,1.9c0.5,0.2,1.5,0.5,2.4,0.5c2.3,0,3.8-1.2,3.8-3c0-1-0.6-1.7-1.8-2.4
	c-0.8-0.4-1.2-0.7-1.2-1.1s0.4-0.8,1.2-0.8c0.7,0,1.2,0.1,1.6,0.3l0.2,0.1L23.8,7L23.8,7z"/>
<path class="st5" d="M27.5,7c-0.5,0-0.9,0-1.1,0.6l-3.2,7.9h2.3l0.4-1.5h2.7l0.3,1.4H31L29.2,7H27.5z M26.5,12.6
	c0.1-0.4,0.9-2.5,0.9-2.5s0.2-0.5,0.3-0.8l0.1,0.8c0,0,0.4,2.1,0.5,2.6L26.5,12.6L26.5,12.6z"/>
<path class="st6" d="M28,7c-0.5,0-0.9,0-1.1,0.6l-3.7,7.9h2.3l0.4-1.5h2.7l0.3,1.4H31L29.2,7H28z M26.5,12.6
	c0.2-0.5,0.9-2.5,0.9-2.5s0.2-0.5,0.3-0.8l0.1,0.8c0,0,0.4,2.1,0.5,2.6L26.5,12.6L26.5,12.6z"/>
<path class="st5" d="M10,12.9l-0.3-1.2c-0.4-1.4-1.6-3-3-3.7l1.9,7.5H11L14.5,7h-2.4L10,12.9z"/>
<path class="st6" d="M10,12.9l-0.3-1.2c-0.4-1.4-1.6-3-3-3.7l1.9,7.5H11L14.5,7h-1.9L10,12.9z"/>
<path class="st7" d="M4,7h0.4C7.1,7.8,9,9.5,9.7,11.7L9,7.7C8.8,7.1,8.5,7,8,7H4z"/>
<path class="st8" d="M4,7L4,7c2.7,0.7,5,2.5,5.7,4.7L9,8.3C8.9,7.7,8.5,7.4,8,7.4L4,7z"/>
<path class="st9" d="M4,7L4,7c2.7,0.7,5,2.5,5.7,4.7L9.2,9.8C9.1,9.2,8.9,8.6,8.3,8.4L4,7z"/>
<g>
	<path class="st10" d="M12.1,12.6L10.6,11L10,12.8l-0.2-1.2c-0.4-1.4-1.6-3-3-3.7l1.9,7.5H11L12.1,12.6z"/>
	<polygon class="st10" points="16.1,15.4 14.2,13.4 13.9,15.4 	"/>
	<path class="st10" d="M21,12.5L21,12.5c0.2,0.2,0.3,0.3,0.2,0.5c0,0.6-0.7,0.8-1.3,0.8c-0.9,0-1.3-0.1-2.1-0.5l-0.3-0.1l-0.3,1.9
		c0.5,0.2,1.5,0.5,2.4,0.5c1.4,0,2.5-0.4,3.1-1.2L21,12.5z"/>
	<path class="st10" d="M23.5,15.4h2l0.4-1.4h2.7l0.3,1.4H31L30.3,12l-2.6-2.7l0.1,0.7c0,0,0.4,2.1,0.5,2.6h-1.8
		c0.2-0.5,0.9-2.5,0.9-2.5s0.2-0.5,0.3-0.8"/>
</g>
<path class="st11" d="M113.5,20.1c0,1-1,1.9-2.1,1.9H79.6c-1.1,0-2.1-0.8-2.1-1.9V1.9c0-1.1,1-1.9,2.1-1.9h31.7
	c1.2,0,2.2,0.8,2.2,1.9V20.1L113.5,20.1z"/>
<polygon class="st12" points="82.1,11.1 83.3,11.1 82.7,9.7 "/>
<polygon class="st12" points="104.4,9.7 103.7,11.1 105,11.1 "/>
<path class="st12" d="M108.8,8.5v0.6l-0.3-0.6h-2.6v0.6l-0.3-0.6h-3.5c-0.6,0-1.1,0.1-1.5,0.3V8.5h-2.5l0,0v0.2
	c-0.3-0.2-0.6-0.3-1-0.3h-8.8l-0.6,1.2L87,8.5h-2h-0.8v0.6l-0.3-0.6l0,0h-2.4l-1.1,2.3l-1.3,2.5l0,0l0,0h2.8l0,0l0,0l0.3-0.7h0.7
	l0.3,0.8h3.2l0,0v-0.5l0.3,0.6h1.6l0.3-0.6v0.5l0,0h1.3h6.3h0.1V12h0.1c0.1,0,0.1,0,0.1,0.1v1.1h4v-0.3c0.3,0.1,0.8,0.3,1.5,0.3h1.6
	l0.3-0.8h0.8l0.3,0.8h3.2v-0.5v-0.2l0.5,0.7h0.1h0.1h2.4V8.5H108.8L108.8,8.5L108.8,8.5z M90.2,12.6h-0.5h-0.3v-0.3V9.9L89.3,10l0,0
	L88,12.6l0,0h-0.3h-0.5l-1.3-2.7v2.7H84l-0.4-0.7h-1.8l-0.4,0.7h-1L82,9.2h1.4l1.5,3.3V9.1h0.3h1.1l0,0l0,0l0.7,1.3l0.5,1v-0.1
	L88.6,9h1.5L90.2,12.6L90.2,12.6L90.2,12.6z M94,9.9h-2.1v0.6H94v0.7h-2.1v0.7H94v0.7h-3.1V9.1H94V9.9L94,9.9z M97.9,11.1L97.9,11.1
	C98,11.2,98,11.2,97.9,11.1c0.2,0.2,0.2,0.4,0.3,0.6l0,0l0,0l0,0v0.1v0.7h-0.8v-0.4c0-0.2,0-0.5-0.2-0.7c-0.1,0-0.1-0.1-0.2-0.1
	c-0.1,0-0.2,0-0.5,0h-1v1.2h-0.9V9.1h2.1c0.5,0,0.8,0,1.1,0.1c0.3,0.1,0.4,0.4,0.4,0.8c0,0.5-0.4,0.8-0.7,0.9
	C97.6,10.9,97.8,11,97.9,11.1z M99.8,12.6h-0.9V9.1h0.9V12.6z M110.5,12.6h-1.2l-1.8-2.6v2.1l0,0v0.4h-0.9l0,0h-0.9l-0.3-0.7h-1.9
	l-0.3,0.8h-1c-0.4,0-1-0.1-1.3-0.4c-0.3-0.3-0.5-0.7-0.5-1.3c0-0.5,0.1-1,0.5-1.4c0.3-0.3,0.8-0.4,1.4-0.4h0.9v0.7h-0.9
	c-0.3,0-0.5,0-0.7,0.2c-0.2,0.1-0.3,0.4-0.3,0.8c0,0.4,0.1,0.6,0.3,0.8c0.2,0.1,0.4,0.2,0.7,0.2h0.4l1.3-2.7h0.5h0.8l1.5,3.3v-0.2
	v-1.1V11V9.2h1.4l1.6,2.4V9.2h0.7V12.6L110.5,12.6L110.5,12.6z"/>
<path class="st12" d="M97.2,10.6C97.2,10.6,97.2,10.5,97.2,10.6c0.1-0.1,0.1-0.2,0.1-0.4l0,0l0,0l0,0c0-0.1-0.1-0.1-0.2-0.2
	c-0.1,0-0.3,0-0.4,0h-1.1v0.8h1.1C96.8,10.7,97,10.7,97.2,10.6C97.1,10.6,97.1,10.6,97.2,10.6L97.2,10.6
	C97.1,10.6,97.1,10.6,97.2,10.6z"/>
<path class="st13" d="M153.1,20.1c0,1-1,1.9-2.1,1.9h-31.8c-1.1,0-2.1-0.8-2.1-1.9V1.9c0-1.1,1-1.9,2.1-1.9h31.7
	c1.2,0,2.2,0.8,2.2,1.9V20.1L153.1,20.1z"/>
<circle class="st14" cx="135.1" cy="10" r="2.1"/>
<g>
	<path class="st15" d="M124,10.9c-0.2,0.2-0.6,0.3-1.1,0.3h-0.1V8.7h0.2c0.5,0,0.8,0.1,1,0.3c0.3,0.2,0.4,0.6,0.4,1
		C124.4,10.3,124.3,10.7,124,10.9L124,10.9z M123.1,8H122v3.9h1.1c0.6,0,1-0.1,1.4-0.5c0.5-0.3,0.7-0.9,0.7-1.4
		C125.2,8.8,124.4,8,123.1,8"/>
	<polyline class="st15" points="125.6,11.9 126.4,11.9 126.4,8 125.6,8 125.6,11.9 	"/>
	<path class="st15" d="M128.2,9.5c-0.5-0.2-0.6-0.3-0.6-0.5s0.2-0.4,0.6-0.4c0.2,0,0.4,0.1,0.6,0.3l0.4-0.5C128.9,8.1,128.5,8,128,8
		c-0.7,0-1.2,0.5-1.2,1.1c0,0.5,0.2,0.8,1,1.1c0.3,0.1,0.5,0.2,0.5,0.2c0.2,0.1,0.2,0.2,0.2,0.4c0,0.3-0.3,0.6-0.6,0.6
		c-0.4,0-0.7-0.2-0.8-0.5l-0.5,0.5c0.4,0.4,0.8,0.6,1.4,0.6c0.8,0,1.4-0.5,1.4-1.3C129.4,10.1,129.1,9.8,128.2,9.5"/>
	<path class="st15" d="M129.6,10c0,1.1,0.9,2,2.1,2c0.3,0,0.6-0.1,1-0.2v-0.9c-0.3,0.3-0.6,0.4-0.9,0.4c-0.8,0-1.3-0.6-1.3-1.3
		s0.6-1.3,1.3-1.3c0.4,0,0.6,0.1,1,0.4V8.2c-0.5-0.2-0.8-0.3-1.1-0.3C130.5,7.9,129.6,8.8,129.6,10"/>
	<polyline class="st15" points="138.9,10.6 137.8,8 137,8 138.6,12 139.1,12 140.8,8 139.9,8 138.9,10.6 	"/>
	<polyline class="st15" points="141.1,11.9 143.3,11.9 143.3,11.3 141.9,11.3 141.9,10.2 143.2,10.2 143.2,9.5 141.9,9.5 141.9,8.7 
		143.3,8.7 143.3,8 141.1,8 141.1,11.9 	"/>
	<path class="st15" d="M144.8,9.8h-0.2V8.6h0.2c0.5,0,0.7,0.2,0.7,0.6C145.5,9.6,145.3,9.8,144.8,9.8L144.8,9.8z M146.3,9.2
		c0-0.7-0.5-1.2-1.4-1.2h-1.1v3.9h0.8v-1.6h0.1l1.1,1.6h0.9l-1.2-1.6C146,10.2,146.3,9.8,146.3,9.2"/>
</g>
<g>
	<defs>
		<path id="SVGID_1_" d="M153,15.4c0,5,0.2,5.6-0.4,6.1c-0.6,0.7-2.1,0.7-1.7,0.7c0.4,0-12.9,0-12.9,0L153,15.4z"/>
	</defs>
	<clipPath id="SVGID_2_">
		<use xlink:href="#SVGID_1_"  style="overflow:visible;"/>
	</clipPath>
	<path class="st16" d="M153.1,20.1c0,1-1,1.9-2.1,1.9h-31.8c-1.1,0-2.1-0.8-2.1-1.9V1.9c0-1.1,1-1.9,2.1-1.9h31.7
		c1.2,0,2.2,0.8,2.2,1.9V20.1L153.1,20.1z"/>
</g>
</svg>
