<?xml version="1.0" encoding="utf-8"?>
<!-- Generator: Adobe Illustrator 19.2.0, SVG Export Plug-In . SVG Version: 6.00 Build 0)  -->
<svg version="1.1" id="Layer_1" xmlns="http://www.w3.org/2000/svg" xmlns:xlink="http://www.w3.org/1999/xlink" x="0px" y="0px"
	 viewBox="0 0 491.5 491.5" style="enable-background:new 0 0 491.5 491.5;" xml:space="preserve">
<style type="text/css">
	.st0{fill:#DC8744;}
	.st1{fill:#3A556A;}
	.st2{fill:#64798A;}
	.st3{fill:#F6C358;}
	.st4{fill:#FCD462;}
</style>
<path class="st0" d="M399.4,220.8h-19.8h0h-47.8h0h-86.1h-86.1h0h-47.8h0H92.1c-15.7,0-28.3,12.7-28.3,28.3v214
	c0,15.7,12.7,28.3,28.3,28.3h153.6h153.6c15.7,0,28.3-12.7,28.3-28.3v-214C427.7,233.5,415.1,220.8,399.4,220.8z"/>
<path class="st1" d="M331.8,133.8v69.7h0h47.8v-69.7C379.6,60,319.6,0,245.8,0v47.8C293.2,47.8,331.8,86.4,331.8,133.8z"/>
<path class="st2" d="M159.7,203.6v-69.7c0-47.5,38.6-86.1,86.1-86.1V0C172,0,111.9,60,111.9,133.8v69.7h0H159.7z"/>
<path class="st3" d="M399.4,203.6h-19.8h0h-47.8h0h-86.1v270.7h153.6c15.7,0,28.3-12.7,28.3-28.3v-214
	C427.7,216.3,415.1,203.6,399.4,203.6z"/>
<path class="st4" d="M159.7,203.6L159.7,203.6h-47.8h0H92.1c-15.7,0-28.3,12.7-28.3,28.3v214c0,15.7,12.7,28.3,28.3,28.3h153.6
	V203.6H159.7z"/>
<path class="st0" d="M278.2,297.6c0-17.9-14.5-32.4-32.4-32.4c-17.9,0-32.4,14.5-32.4,32.4c0,11.5,6,21.5,15.1,27.3l-9.7,46h54
	l-9.7-46C272.1,319.2,278.2,309.1,278.2,297.6z"/>
</svg>
