<?xml version="1.0" encoding="utf-8"?>
<!-- Generator: Adobe Illustrator 19.2.0, SVG Export Plug-In . SVG Version: 6.00 Build 0)  -->
<svg version="1.1" id="Layer_1" xmlns="http://www.w3.org/2000/svg" xmlns:xlink="http://www.w3.org/1999/xlink" x="0px" y="0px"
	 viewBox="0 0 62 17" style="enable-background:new 0 0 62 17;" xml:space="preserve">
<style type="text/css">
	.st0{fill:#139AD6;}
	.st1{fill:#263B80;}
</style>
<path class="st0" d="M41.9,0h-4.8c-0.3,0-0.6,0.3-0.7,0.6l-2,12.6c0,0.3,0.1,0.4,0.4,0.4h2.5c0.3,0,0.4-0.1,0.4-0.4l0.6-3.6
	c0-0.3,0.3-0.6,0.7-0.6h1.5c3.2,0,5.1-1.6,5.5-4.7c0.3-1.3,0-2.4-0.6-3.1C44.7,0.4,43.4,0,41.9,0 M42.5,4.7
	c-0.3,1.7-1.5,1.7-2.8,1.7h-0.8l0.6-3.3c0-0.1,0.1-0.3,0.4-0.3h0.3c0.8,0,1.7,0,2.1,0.6C42.5,3.6,42.5,4,42.5,4.7"/>
<g>
	<path class="st1" d="M7.5,0H2.7C2.4,0,2.1,0.3,2,0.6L0,13.1c0,0.3,0.1,0.4,0.4,0.4h2.2c0.3,0,0.6-0.3,0.7-0.6l0.6-3.4
		C3.9,9.3,4.2,9,4.6,9h1.5c3.2,0,5.1-1.6,5.5-4.7c0.3-1.3,0-2.4-0.6-3.1C10.3,0.4,9.1,0,7.5,0 M8,4.7C7.7,6.4,6.5,6.4,5.2,6.4H4.5
		l0.6-3.3c0-0.1,0.1-0.3,0.4-0.3h0.3c0.8,0,1.7,0,2.1,0.6C8,3.6,8.2,4,8,4.7"/>
	<path class="st1" d="M21.9,4.6h-2.2c-0.1,0-0.4,0.1-0.4,0.3l-0.1,0.7L19,5.3c-0.6-0.7-1.5-1-2.7-1c-2.5,0-4.8,2-5.2,4.7
		c-0.3,1.4,0.1,2.7,0.8,3.6c0.7,0.9,1.7,1.1,3,1.1c2.1,0,3.2-1.3,3.2-1.3L18,13.1c0,0.3,0.1,0.4,0.4,0.4h2.1c0.3,0,0.6-0.3,0.7-0.6
		l1.3-8C22.4,4.9,22.1,4.6,21.9,4.6 M18.7,9.1c-0.3,1.3-1.3,2.3-2.7,2.3c-0.7,0-1.3-0.3-1.5-0.6c-0.3-0.4-0.4-1-0.4-1.7
		c0.1-1.3,1.3-2.3,2.5-2.3c0.7,0,1.1,0.3,1.5,0.6C18.6,7.9,18.7,8.6,18.7,9.1"/>
</g>
<path class="st0" d="M56.2,4.6H54c-0.1,0-0.4,0.1-0.4,0.3l-0.1,0.7l-0.1-0.3c-0.6-0.7-1.5-1-2.7-1c-2.5,0-4.8,2-5.2,4.7
	c-0.3,1.4,0.1,2.7,0.8,3.6c0.7,0.9,1.7,1.1,3,1.1c2.1,0,3.2-1.3,3.2-1.3l-0.1,0.7c0,0.3,0.1,0.4,0.4,0.4h2.1c0.3,0,0.6-0.3,0.7-0.6
	l1.3-8C56.7,4.9,56.5,4.6,56.2,4.6 M53,9.1c-0.3,1.3-1.3,2.3-2.7,2.3c-0.7,0-1.3-0.3-1.5-0.6c-0.3-0.4-0.4-1-0.4-1.7
	c0.1-1.3,1.3-2.3,2.5-2.3c0.7,0,1.1,0.3,1.5,0.6C53,7.9,53.1,8.6,53,9.1"/>
<path class="st1" d="M34.2,4.6h-2.4c-0.3,0-0.4,0.1-0.6,0.3l-3.1,4.9l-1.4-4.6c-0.1-0.3-0.3-0.4-0.7-0.4h-2.2
	c-0.3,0-0.4,0.3-0.4,0.6l2.5,7.6l-2.4,3.4c-0.1,0.3,0,0.7,0.3,0.7H26c0.3,0,0.4-0.1,0.6-0.3l7.7-11.3C34.7,5,34.4,4.6,34.2,4.6"/>
<path class="st0" d="M58.9,0.4l-2,12.9c0,0.3,0.1,0.4,0.4,0.4h2c0.3,0,0.6-0.3,0.7-0.6l2-12.6c0-0.3-0.1-0.4-0.4-0.4h-2.2
	C59.2,0,59,0.1,58.9,0.4"/>
</svg>
