<svg width="39" height="24" viewBox="0 0 39 24" fill="none" xmlns="http://www.w3.org/2000/svg">
<rect x="0.5" y="0.5" width="38" height="23" rx="1.5" stroke="#F3F3F3"/>
<path fill-rule="evenodd" clip-rule="evenodd" d="M9.49889 3.56348V20.8181H21.4687L25.4575 19.7334L28.1726 17.3797L29.5007 13.6774V9.40011L27.5146 5.96349L24.0503 4.01215L20.7125 3.73217L9.49889 3.56348Z" fill="white"/>
<path fill-rule="evenodd" clip-rule="evenodd" d="M9.85312 3.85292V20.2871H19.8378C25.8671 20.2871 29.147 17.4785 29.147 12.049C29.147 6.4693 25.5918 3.85292 19.8378 3.85292H9.85312ZM19.8378 3C28.6797 3 30 8.66994 30 12.049C30 17.9118 26.3912 21.1404 19.8378 21.1404C19.8378 21.1404 9.21394 21.1404 9 21.1404C9 20.9256 9 3.21426 9 3C9.21394 3 19.8378 3 19.8378 3Z" fill="#0A0B09"/>
<path fill-rule="evenodd" clip-rule="evenodd" d="M11.2285 18.98H14.4248V13.29H11.2285V18.98Z" fill="#0A0B09"/>
<path fill-rule="evenodd" clip-rule="evenodd" d="M14.8083 10.4258C14.8083 11.5231 13.9192 12.4127 12.8219 12.4127C11.7252 12.4127 10.8352 11.5231 10.8352 10.4258C10.8352 9.32941 11.7252 8.43945 12.8219 8.43945C13.9192 8.43945 14.8083 9.32941 14.8083 10.4258Z" fill="#0A0B09"/>
<path fill-rule="evenodd" clip-rule="evenodd" d="M16.0132 9.50008C16.0132 10.0139 16.0132 10.8408 16.0132 11.3544C16.2948 11.3544 16.5824 11.3544 16.5824 11.3544C16.9768 11.3544 17.341 11.2405 17.341 10.4127C17.341 9.60377 16.9357 9.50008 16.5824 9.50008C16.5824 9.50008 16.2948 9.50008 16.0132 9.50008ZM25.5081 8.57775H26.4288C26.4288 8.57775 26.4288 10.6769 26.4288 11.3544C26.6329 11.3544 27.1937 11.3544 27.7931 11.3544C27.4189 6.31609 23.4554 5.22754 19.8539 5.22754H16.014V8.57965H16.5824C17.6186 8.57965 18.2625 9.28235 18.2625 10.4127C18.2625 11.5789 17.6341 12.2751 16.5824 12.2751H16.014V18.9824H19.8539C25.7096 18.9824 27.7473 16.2632 27.8193 12.2751H25.5081V8.57775ZM22.9428 10.6408H23.6089L23.3043 9.59558H23.249L22.9428 10.6408ZM21.506 12.2762L22.6209 8.57762H23.9308L25.0455 12.2762H24.087L23.8781 11.5607H22.6737L22.4642 12.2762H21.506ZM21.0638 11.3544V12.2751H18.786V8.57913H20.9903V9.49943C20.9903 9.49943 20.2058 9.49943 19.7069 9.49943C19.7069 9.62632 19.7069 9.77183 19.7069 9.92789H20.9207V10.8479H19.7069C19.7069 11.0327 19.7069 11.2069 19.7069 11.3544C20.2203 11.3544 21.0638 11.3544 21.0638 11.3544Z" fill="#D50172"/>
</svg>
