<svg width="20" height="20" viewBox="0 0 20 20" fill="none" xmlns="http://www.w3.org/2000/svg">
<path d="M10.75 8.71445H9.25016C8.83581 8.71445 8.50005 8.3625 8.50005 7.92861C8.50005 7.49473 8.83581 7.14277 9.25016 7.14277H11.4646C11.8985 7.14277 12.2503 6.79103 12.2503 6.35713C12.2503 5.92323 11.8985 5.57148 11.4646 5.57148H10.75V4.74993C10.75 4.33576 10.4143 4 10.0001 4C9.58592 4 9.25016 4.33575 9.25016 4.74993V5.57148C8.00749 5.57148 7 6.62676 7 7.92861C7 9.23008 8.00749 10.2857 9.25016 10.2857H10.75C11.1644 10.2857 11.5001 10.6375 11.5001 11.0716C11.5001 11.5055 11.1644 11.8574 10.75 11.8574H8.53548C8.10163 11.8574 7.74993 12.2091 7.74993 12.643C7.74993 13.0768 8.10163 13.4285 8.53548 13.4285H9.25016V14.2501C9.25016 14.6642 9.58592 15 10.0001 15C10.4143 15 10.75 14.6642 10.75 14.2501V13.4285C11.9931 13.4285 13 12.373 13 11.0716C13 9.76973 11.9931 8.71445 10.75 8.71445Z" fill="#017FBB"/>
<circle cx="10" cy="10" r="9.1" stroke="#017FBB" stroke-width="1.8"/>
</svg>
