<svg width="20" height="20" viewBox="0 0 20 20" fill="none" xmlns="http://www.w3.org/2000/svg">
<path fill-rule="evenodd" clip-rule="evenodd" d="M9.13034 0.0371094C4.01471 0.477809 0 4.76997 0 9.99982C0 15.5227 4.47715 19.9998 10 19.9998C15.2297 19.9998 19.5218 15.9853 19.9627 10.8698H18.1361C17.7017 14.9795 14.2248 18.1816 10 18.1816C5.48131 18.1816 1.81818 14.5185 1.81818 9.99982C1.81818 5.77488 5.02051 2.29789 9.13034 1.86367V0.0371094Z" fill="#017FBB"/>
<mask id="path-2-inside-1" fill="white">
<path fill-rule="evenodd" clip-rule="evenodd" d="M20 9.99742H10.2178V0C15.64 0.115848 19.9999 4.54746 20 9.99742Z"/>
</mask>
<path d="M20 9.99742V11.8156H21.8182L21.8182 9.99737L20 9.99742ZM10.2178 9.99742H8.39959V11.8156H10.2178V9.99742ZM10.2178 0L10.2566 -1.81777L8.39959 -1.85744V0H10.2178ZM20 8.17924H10.2178V11.8156H20V8.17924ZM12.036 9.99742V0H8.39959V9.99742H12.036ZM10.1789 1.81777C14.6145 1.91253 18.1817 5.53863 18.1818 9.99746L21.8182 9.99737C21.818 3.55629 16.6655 -1.68084 10.2566 -1.81777L10.1789 1.81777Z" fill="#017FBB" mask="url(#path-2-inside-1)"/>
</svg>
