<svg width="21" height="21" viewBox="0 0 21 21" fill="none" xmlns="http://www.w3.org/2000/svg">
<path d="M8.30796 20.4214C6.18384 20.4214 4.16844 19.6186 2.61298 18.1552C0.99899 16.6248 0.0707336 14.5676 0.00383223 12.3515C-0.0630691 10.1354 0.74811 8.02797 2.27012 6.40561C3.80048 4.79162 5.8577 3.86336 8.07381 3.80483C8.46685 3.79646 8.86826 3.81319 9.26131 3.855C9.72125 3.90518 10.0474 4.32331 9.99722 4.78326C9.94705 5.2432 9.53727 5.56935 9.06896 5.51917C8.75118 5.48572 8.44176 5.469 8.11562 5.47736C6.3511 5.52753 4.71201 6.26345 3.49107 7.5513C2.27012 8.84751 1.62619 10.5284 1.67637 12.3013C1.72654 14.0742 2.46246 15.7133 3.75867 16.9342C5.05488 18.1552 6.74414 18.7824 8.50867 18.7489C12.1715 18.6402 15.0566 15.5795 14.9563 11.925C14.9479 11.6156 14.9145 11.3061 14.8643 11.0051C14.789 10.5535 15.0901 10.1186 15.55 10.0434C16.01 9.96811 16.4365 10.2692 16.5117 10.7291C16.5786 11.1054 16.6121 11.4985 16.6288 11.8832C16.7626 16.4659 13.1416 20.296 8.55884 20.4298C8.47521 20.4214 8.39159 20.4214 8.30796 20.4214Z" fill="white"/>
<path d="M8.31619 16.4166C8.23257 16.4166 8.14058 16.4166 8.04859 16.4083C6.91126 16.3414 5.85757 15.8313 5.0882 14.9699C4.3272 14.1086 3.94252 13.0047 4.00942 11.8506C4.15158 9.47563 6.20044 7.66093 8.56707 7.81146C9.02702 7.83655 9.37825 8.23796 9.35316 8.6979C9.32808 9.15785 8.9183 9.51745 8.46672 9.484C7.00325 9.39201 5.76558 10.5042 5.67359 11.9593C5.63178 12.6618 5.86593 13.3392 6.33424 13.866C6.80255 14.3929 7.44647 14.7107 8.14894 14.7525C8.85977 14.7943 9.52878 14.5601 10.0556 14.0918C10.5825 13.6235 10.9003 12.9796 10.9421 12.2771C10.9672 11.8172 11.3686 11.4492 11.8285 11.491C12.2885 11.5161 12.6397 11.9175 12.6146 12.3775C12.5477 13.5232 12.0292 14.5769 11.1679 15.3462C10.3734 16.0403 9.36989 16.4166 8.31619 16.4166Z" fill="white"/>
<path d="M20.3754 3.99736C20.1161 3.37016 19.5056 2.96875 18.8283 2.96875H17.5822V1.67253C17.5822 0.995158 17.1725 0.384683 16.5536 0.12544C16.3445 0.0418133 16.1271 0 15.9181 0C15.4832 0 15.0567 0.167253 14.7389 0.493397L12.205 3.01056C11.8036 3.40361 11.5695 3.93882 11.5862 4.49912C11.6113 5.14304 11.7284 6.65668 11.8036 7.55149L7.72264 11.6325C7.39649 11.9586 7.39649 12.4855 7.72264 12.8116C7.88989 12.9789 8.09896 13.0541 8.31638 13.0541C8.53381 13.0541 8.74288 12.9705 8.91013 12.8116L12.8908 8.83098L16.01 8.95642C16.5703 8.95642 17.1055 8.73899 17.4986 8.33758L20.0241 5.81205C20.4924 5.34375 20.6346 4.62456 20.3754 3.99736ZM13.2671 4.49912C13.2671 4.38204 13.3089 4.27332 13.3925 4.1897L15.9097 1.67253V3.43706C15.9013 3.44542 15.893 3.44542 15.8846 3.45378L13.2587 6.07966L13.2671 4.49912ZM16.3111 7.15844C16.2275 7.24207 16.1188 7.28388 16.0017 7.28388H14.4379L17.0888 4.63292H18.8366L16.3111 7.15844Z" fill="white"/>
</svg>
